<?xml version="1.0" standalone="no"?>
<!DOCTYPE svg PUBLIC "-//W3C//DTD SVG 1.1//EN" "http://www.w3.org/Graphics/SVG/1.1/DTD/svg11.dtd" >
<svg xmlns="http://www.w3.org/2000/svg" xmlns:xlink="http://www.w3.org/1999/xlink" version="1.1">
<metadata>
Created by FontForge 20200314 at Thu May 22 21:40:38 2014
 By Unknown
Copyright (c) S-Core Co., Ltd., 2011. All rights reserved.
</metadata>
<defs>
<font id="CoreBandiFaceW01-Regular" horiz-adv-x="405" >
  <font-face 
    font-family="CoreBandiFaceW01-Regular"
    font-weight="400"
    font-stretch="normal"
    units-per-em="1000"
    panose-1="1 0 0 0 0 0 0 0 0 0"
    ascent="800"
    descent="-200"
    x-height="486"
    cap-height="628.5"
    bbox="-3 -93 769.471 870"
    underline-thickness="25"
    underline-position="-224"
    unicode-range="U+0020-2122"
  />
<missing-glyph horiz-adv-x="810" 
d="M55 -75v700h700v-700h-700zM105 -25h600v600h-600v-600z" />
    <glyph glyph-name=".notdef" horiz-adv-x="810" 
d="M55 -75v700h700v-700h-700zM105 -25h600v600h-600v-600z" />
    <glyph glyph-name=".null" horiz-adv-x="0" 
 />
    <glyph glyph-name="nonmarkingreturn" horiz-adv-x="333" 
 />
    <glyph glyph-name="space" unicode=" " horiz-adv-x="310" 
 />
    <glyph glyph-name="exclam" unicode="!" horiz-adv-x="290" 
d="M85 605q-4 20 4.5 29.5t32.5 9.5q13 0 24 -3t18 -17q8 -13 12 -40t4 -75q0 -70 -8 -135.5t-26 -123.5q-5 -15 -12.5 -19t-17.5 -3q-16 1 -15 17q5 94 2 180t-18 180zM76 117q0 20 12.5 30.5t29.5 10.5q18 0 29 -12t11 -33q0 -15 -10.5 -27.5t-28.5 -12.5
q-24 0 -33.5 13.5t-9.5 30.5z" />
    <glyph glyph-name="quotedbl" unicode="&#x22;" horiz-adv-x="317" 
d="M53 458q-5 -3 -10 -3q-13 0 -13 11q0 4 3 9q17 29 26.5 64.5t15.5 71.5q1 6 5 11t12 5q17 0 28.5 -8t11.5 -27q0 -10 -3 -20q-3 -12 -9 -28t-16 -32t-22.5 -30.5t-28.5 -23.5zM172 463q-15 0 -15 13q0 6 4 11q19 31 34 64.5t26 68.5q3 8 13 8q16 0 28.5 -9t12.5 -25
q0 -10 -6 -26q-8 -23 -28.5 -54t-57.5 -48q-6 -3 -11 -3z" />
    <glyph glyph-name="numbersign" unicode="#" horiz-adv-x="561" 
d="M319 225q0 6 -2.5 9.5t-12.5 4.5q-22 2 -41 2t-36 -1q-14 -1 -16.5 -2.5t-3.5 -10.5q-3 -31 -8 -65.5t-14 -66.5q-3 -11 -14.5 -14t-22.5 -2q-14 1 -16 5t-1 10q5 33 7 65.5t3 64.5q0 12 -5 14.5t-25 3.5q-12 1 -25.5 1t-29.5 2q-14 2 -19 12t-5 22q0 10 4.5 13.5
t20.5 3.5h37t41 2q8 1 10 4.5t4 8.5q5 23 8.5 51.5t7.5 70.5q1 16 -17 16q-16 0 -30 2l-28 4q-15 3 -22 7t-7 17q0 18 15 18q16 0 37 0.5t40 2.5q13 1 17 14q8 27 12.5 55t8.5 56q2 16 23 14q14 -1 19 -4.5t5 -9.5q1 -28 -1 -55.5t-6 -54.5q-2 -10 2.5 -11.5t12.5 -2.5
q20 -2 38 -2.5t37 -0.5q17 1 21 5.5t7 16.5q6 23 10.5 50t7.5 55q3 21 26 21q10 0 18 -3t9 -12q2 -24 -0.5 -56.5t-7.5 -55.5q-3 -16 -0.5 -20.5t13.5 -5.5q17 -2 37 -2h37q10 0 15 -4.5t3 -18.5q-3 -21 -20 -22q-16 -2 -32 -3t-34 -1q-13 0 -16 -2.5t-4 -10.5
q-2 -29 -4.5 -57t-5.5 -57q-1 -8 0.5 -11.5t7.5 -4.5q18 -2 38 -2h36q10 0 14.5 -5t3.5 -20q-1 -11 -5.5 -19.5t-19.5 -9.5t-31 -1.5t-31 0.5q-14 1 -18 -1.5t-6 -13.5q-4 -29 -11 -67t-16 -66q-8 -23 -33 -21q-17 2 -20.5 6.5t-2.5 12.5q4 30 7 64t5 69zM212 314
q-2 -12 13 -13q22 -2 47 -2t44 2q8 1 12 5t6 17q4 28 5 47t2 46q1 18 -3.5 22t-21.5 6t-31 2h-29q-11 0 -17 -0.5t-9 -3t-3.5 -8t-1.5 -14.5q-2 -26 -5 -50t-8 -56z" />
    <glyph glyph-name="dollar" unicode="$" horiz-adv-x="492" 
d="M240 32q-6 -19 -17 -19q-16 0 -23.5 8t-6.5 22q1 12 1.5 26t0.5 27q0 8 -11 11q-33 8 -64.5 26t-50.5 39q-17 17 -17 35q0 9 6.5 22t16.5 13q4 0 8 -4q23 -20 50 -34t56 -20q14 -3 14 8q3 72 3 145q0 16 -14 19q-26 5 -50 15.5t-42 33.5q-18 22 -23 43t-3 50
q2 28 12.5 50.5t26 39t35.5 27.5t41 16q7 2 8 4.5t1 8.5v21q0 35 36 34q21 -1 24 -16t4 -31q1 -11 2.5 -12.5t9.5 -2.5q25 -3 51.5 -12t46.5 -20q11 -7 18.5 -13.5t8.5 -14.5q0 -16 -10 -24t-24 -9q-14 0 -27 4q-10 3 -28.5 6t-28.5 4q-11 1 -14.5 -3.5t-2.5 -20.5l3 -122
q0 -8 4 -10t9 -4q18 -5 38.5 -11t35.5 -17q17 -12 28 -23.5t18 -26.5t9.5 -34t2.5 -44q-2 -57 -37 -97q-22 -23 -53.5 -34t-62.5 -13q-9 0 -9 -9q-1 -13 -3.5 -28.5t-6.5 -28.5zM269 179q40 0 57 19.5t17 53.5q-2 26 -15 45t-55 33q-6 1 -6 -5q-1 -71 -6 -140q0 -6 8 -6z
M187 550q-19 -8 -30.5 -25.5t-12.5 -35.5q-1 -23 11 -38.5t40 -25.5q10 -4 10 3l-1 100q0 19 -3.5 22.5t-13.5 -0.5z" />
    <glyph glyph-name="percent" unicode="%" horiz-adv-x="777" 
d="M508 581q-21 -66 -50.5 -132.5t-64.5 -129.5q-34 -63 -74 -116.5t-82 -88.5q-15 -12 -32 -12q-13 0 -23.5 4.5t-10.5 14.5q0 3 4 7q96 109 158 234t104 260q8 26 27 26q22 0 36 -8.5t14 -28.5q0 -6 -2 -14zM64 500q0 28 8.5 49t23.5 35t35 21t42 7q58 0 84 -31.5
t26 -76.5q0 -61 -33 -90.5t-89 -29.5q-24 0 -42.5 9.5t-30.5 26t-18 37t-6 43.5zM172 441q9 0 19 1.5t16 5.5q18 11 20 42q0 39 -22 52t-46 10q-22 -3 -33 -22t-9 -39q1 -27 17.5 -38.5t37.5 -11.5zM459 223q0 28 8.5 49t23.5 35t35 21t42 7q58 0 84 -31.5t26 -76.5
q0 -61 -33 -90.5t-89 -29.5q-24 0 -42.5 9.5t-30.5 26t-18 37t-6 43.5zM570 167q9 0 19 1.5t16 5.5q18 11 20 42q0 39 -22 52t-46 10q-22 -3 -33 -22t-9 -39q1 -27 17.5 -38.5t37.5 -11.5z" />
    <glyph glyph-name="ampersand" unicode="&#x26;" horiz-adv-x="634" 
d="M234 645q22 0 39.5 -9t30 -24t19 -34t6.5 -39q0 -35 -5.5 -62t-21.5 -56q-5 -8 -10.5 -16t-14.5 -19q-5 -6 -5.5 -11.5t6.5 -13.5q25 -28 57.5 -57.5t64.5 -55.5q36 28 62 55.5t47 59.5q11 16 26 4q7 -5 9 -17t-3 -25q-14 -31 -37 -56.5t-50 -49.5q22 -13 53.5 -19
t57.5 -8q14 -1 17.5 -6.5t-0.5 -19.5q-4 -15 -26.5 -19t-41.5 -3q-31 2 -60 7t-56 19q-51 -49 -112.5 -71.5t-124.5 -19.5q-47 2 -77 29t-30 68q0 28 9.5 54.5t24.5 52.5t35 51t41 50q6 7 2 14q-20 30 -31.5 62.5t-11.5 68.5q0 54 31 85t80 31zM225 334q-7 8 -10 5l-6 -6
q-15 -17 -29 -37t-24 -42t-15.5 -44t-2.5 -41q1 -11 10 -17.5t22 -9t27.5 -1.5t28.5 4q37 8 64.5 23.5t52.5 36.5q8 6 8.5 10t-7.5 9q-60 44 -119 110zM203 432q11 -17 18.5 -18t17.5 8q24 23 33.5 56.5t8.5 64.5q-1 26 -10 39.5t-37 13.5q-32 0 -42.5 -21t-10.5 -51
q0 -35 7 -58t15 -34z" />
    <glyph glyph-name="quotesingle" unicode="'" horiz-adv-x="191" 
d="M35 487q19 31 34 64.5t26 68.5q3 8 13 8q16 0 28.5 -9t12.5 -25q0 -10 -6 -26q-8 -23 -28.5 -54t-57.5 -48q-6 -3 -11 -3q-15 0 -15 13q0 6 4 11z" />
    <glyph glyph-name="parenleft" unicode="(" horiz-adv-x="320" 
d="M251 600q-38 -54 -61 -128t-23 -155q0 -47 4.5 -85.5t14.5 -71.5t26.5 -63.5t41.5 -60.5q14 -17 5 -33q-7 -12 -23 -13t-27 6q-34 21 -57 60t-37 84.5t-20 93.5t-6 88q0 45 7 90.5t22.5 87.5t39.5 80t57 68q12 10 30 -3q13 -10 15 -19.5t-9 -25.5z" />
    <glyph glyph-name="parenright" unicode=")" horiz-adv-x="320" 
d="M66 596q-9 17 -5 28t15 17t24 3.5t23 -11.5q22 -21 39 -61t28.5 -86.5t17.5 -93.5t7 -83q1 -31 -4.5 -72t-16.5 -82t-27.5 -78.5t-37.5 -62.5q-8 -9 -20 -16.5t-27 -7.5q-16 0 -23 7q-6 6 -4 13t7 16q18 29 31.5 65.5t22.5 76t13.5 78.5t4.5 74q0 60 -15.5 133t-52.5 143
z" />
    <glyph glyph-name="asterisk" unicode="*" horiz-adv-x="446" 
d="M260 339q35 -15 65.5 -30.5t59.5 -34.5q12 -9 7 -18q-2 -5 -6.5 -11t-10.5 -9t-14.5 -4t-17.5 3q-27 11 -52 26.5t-47 31.5q-7 4 -7 -3v-24v-12t1 -13q1 -14 1.5 -27t0.5 -25q0 -23 -9.5 -32t-27.5 -9q-13 0 -17 4.5t-4 12.5q0 15 1 31.5t3 34.5q1 18 3 36.5t4 36.5
q0 6 -6 2q-22 -16 -49.5 -33t-51.5 -29q-9 -4 -19.5 -6.5t-16.5 0.5q-14 4 -21 18q-4 7 -2 11.5t11 10.5q10 7 23.5 14t30.5 15q16 8 34 16.5t36 17.5q7 2 1 6q-32 18 -65 39t-57 41q-10 9 -5 20q6 12 20 19q13 6 29 -3q21 -13 48.5 -34.5t47.5 -40.5q7 -9 7 3
q-6 31 -9.5 63.5t-5.5 64.5q-1 14 5.5 19t16.5 5q20 0 27 -6t8 -15q2 -35 3 -67.5t1 -63.5q0 -14 9 -7q32 24 62 46t55 39q9 5 20 -1q4 -4 9 -10.5t5 -14.5q0 -7 -12 -18.5t-30 -24.5q-19 -13 -42.5 -26.5t-47.5 -25.5q-6 -3 -6 -5.5t4 -3.5z" />
    <glyph glyph-name="plus" unicode="+" horiz-adv-x="366" 
d="M147 276q-2 24 -4 29t-13 3q-14 -2 -33 -2t-33 2q-19 3 -26 16t-8 30q0 17 19 17q18 -1 37.5 -0.5t35.5 2.5q11 1 16.5 3t7.5 10q4 19 4 44.5t-1 48.5q-1 13 6 17t15 4q16 0 27.5 -5t12.5 -25q1 -17 1 -39.5t-1 -37.5q-1 -13 4.5 -15.5t16.5 -3.5q16 -2 36 -2.5t39 0.5
q14 1 17.5 -10.5t0.5 -22.5q-4 -16 -33 -24q-11 -3 -27 -4.5t-29 -1.5q-12 0 -16 -4.5t-5 -14.5q-2 -23 -6.5 -43t-10.5 -37t-16 -25t-26 -5t-13 17q4 20 5 41.5t0 37.5z" />
    <glyph glyph-name="comma" unicode="," horiz-adv-x="200" 
d="M96 86q0 4 -2 7.5t-7 4.5q-7 1 -12.5 2t-11.5 5q-18 10 -18 35q0 23 12 33t32 10q26 0 36.5 -14t10.5 -40q0 -9 -1.5 -28t-6.5 -39q-11 -40 -35 -59q-10 -8 -17 -8q-5 0 -9.5 3t-4.5 7q0 5 4 9q10 11 20 29.5t10 42.5z" />
    <glyph glyph-name="hyphen" unicode="-" horiz-adv-x="366" 
d="M66 312q-19 5 -26.5 16.5t-7.5 25.5q0 11 5.5 17t13.5 5q54 -5 119.5 -5t137.5 6q19 2 19 -16q0 -19 -15 -31q-18 -14 -52 -21t-76 -7q-35 0 -65 2t-53 8z" />
    <glyph glyph-name="period" unicode="." horiz-adv-x="200" 
d="M49 144q0 19 11 32t34 13q14 0 27 -10.5t13 -30.5q0 -23 -11 -36.5t-29 -13.5q-26 0 -35.5 14t-9.5 32z" />
    <glyph glyph-name="slash" unicode="/" horiz-adv-x="451" 
d="M406 600q-23 -89 -59.5 -180.5t-80 -172.5t-90 -143.5t-88.5 -92.5q-9 -6 -17 -10t-16 -4q-14 0 -22 5t-8 14q0 5 4 12q48 63 92.5 137.5t83 153t70.5 159t56 155.5q5 12 16 13t25 -4q20 -6 29.5 -15.5t4.5 -26.5z" />
    <glyph glyph-name="zero" unicode="0" horiz-adv-x="520" 
d="M245 647q48 0 85 -17.5t60 -53.5q23 -37 32 -93t6 -117q-1 -61 -16 -110.5t-40.5 -85t-60 -54.5t-75.5 -19q-34 0 -61.5 5.5t-47.5 21.5q-22 17 -37 41t-24.5 53t-14 62t-4.5 67q0 144 53.5 222t144.5 78zM169 494q-5 17 -10 17t-12 -17q-14 -35 -20 -75t-6 -84
q1 -36 9 -67t22.5 -53.5t35.5 -35.5t47 -13q35 0 40 15q1 6 -5 20q-10 23 -22 55t-25 69.5t-27 80.5t-27 88zM318 248q8 -18 17 6q4 15 7 33.5t5 39.5t3 42t1 41q0 48 -8 78.5t-22.5 48.5t-34.5 25t-44 7q-33 0 -28 -21q17 -72 44 -149t60 -151z" />
    <glyph glyph-name="one" unicode="1" horiz-adv-x="520" 
d="M299 150q-10 -33 -26.5 -47t-40.5 -14q-16 0 -13 22q18 101 25.5 195t-0.5 195q-1 6 -2.5 7.5t-6.5 -0.5q-18 -6 -49.5 -10.5t-59.5 -3.5q-17 0 -21.5 7t-4.5 20q0 10 8 13q45 20 80.5 41.5t60.5 40.5q21 15 37 15q28 0 35.5 -6t8.5 -23q5 -80 4 -156.5t-10 -155.5
q-5 -40 -10 -73t-15 -67z" />
    <glyph glyph-name="two" unicode="2" horiz-adv-x="520" 
d="M199 181q14 -1 31 -1.5t32 -0.5q46 1 85.5 8t68.5 18q15 6 21 6q16 0 16 -30q0 -14 -9.5 -24t-21.5 -16q-38 -18 -92.5 -27.5t-109.5 -10.5q-37 -1 -70.5 2t-59.5 10q-12 3 -15.5 12t-3.5 21q0 23 11 30q47 32 91 72.5t83 97.5q34 49 34 112q0 44 -21.5 71.5t-71.5 27.5
q-36 0 -58 -17t-44 -47q-10 -13 -20 -13q-12 0 -22 5t-8 19q6 26 18.5 49.5t32 41t44.5 28t56 10.5q91 0 140 -47t49 -124q0 -87 -47.5 -156t-138.5 -127z" />
    <glyph glyph-name="three" unicode="3" horiz-adv-x="520" 
d="M105 180q13 -6 25.5 -10.5t27 -7.5t32.5 -4.5t41 -0.5q35 1 56.5 9.5t33 22t14.5 31.5t0 38q-4 29 -26.5 48.5t-51.5 27.5q-26 7 -52 8t-49 2q-31 1 -46 8q-8 4 -10 10t-2 13q0 24 14 24q43 2 78 4t60 10t38.5 24.5t13.5 46.5q0 45 -27 62.5t-69 17.5q-19 0 -39.5 -8
t-42.5 -22q-14 -9 -26 -9q-13 0 -24.5 7.5t-11.5 18.5q0 6 4 11.5t9 10.5q33 29 74 43.5t77 14.5q34 0 65.5 -8.5t54.5 -26t37 -44t14 -62.5q0 -29 -14.5 -61t-55.5 -52q19 -11 36 -22t30 -26t20.5 -34t7.5 -45q0 -78 -44 -116t-128 -38q-54 0 -96 7t-73 27q-11 8 -11 20
q0 11 6 22t17 11q7 0 13 -3z" />
    <glyph glyph-name="four" unicode="4" horiz-adv-x="520" 
d="M262 241q-17 -3 -42 -6.5t-52 -6t-52 -2.5t-41 4q-20 5 -26.5 15.5t-2.5 28.5q19 91 48 178t60 177q4 11 14 17t38 1q12 -2 14.5 -9t-2.5 -22q-26 -75 -45.5 -144t-33.5 -144q-2 -11 -0.5 -15t11.5 -6q27 -4 57.5 -1.5t51.5 8.5q10 3 12 7.5t3 18.5q2 42 2 77t-2 77
q0 10 1 14t8 8q7 3 20.5 5t19.5 1q18 -2 19 -24q3 -40 5 -75.5t2 -77.5q0 -14 0.5 -17.5t11.5 -1.5q26 4 47.5 11.5t35.5 13.5t21 4.5t9 -16.5q4 -23 -3.5 -35t-28.5 -23q-13 -7 -36.5 -13.5t-40.5 -10.5q-13 -3 -13 -18q1 -24 -1 -49t-7 -45q-2 -11 -6 -22t-10 -20.5
t-14.5 -15.5t-19.5 -6q-7 0 -11.5 2.5t-4.5 12.5q2 32 2 65t-2 66q-1 6 -3.5 11t-12.5 3z" />
    <glyph glyph-name="five" unicode="5" horiz-adv-x="520" 
d="M147 617q21 4 48 6.5t57.5 3.5t63 0t64.5 -4q17 -2 24 -7t5 -17q-2 -11 -6.5 -17t-14.5 -7q-56 -2 -107 -6.5t-85 -11.5q-14 -3 -19.5 -10t-7.5 -15q-2 -9 -4 -20t-3.5 -23t-2 -23t-0.5 -18q0 -12 7.5 -16.5t37.5 -7.5q64 -6 109.5 -17.5t74.5 -31t42.5 -48.5t13.5 -69
q0 -42 -18.5 -73.5t-49 -52.5t-71 -31.5t-85.5 -10.5q-39 0 -70 6t-51 17q-25 15 -12 44q4 8 9.5 10.5t22.5 -0.5q109 -17 169.5 11.5t60.5 97.5q0 41 -28.5 58.5t-88.5 23.5q-29 3 -61 5t-61 3q-30 1 -32 28q-2 49 1.5 98.5t10.5 81.5q3 21 15 29.5t42 13.5z" />
    <glyph glyph-name="six" unicode="6" horiz-adv-x="520" 
d="M67 294q0 54 18 106.5t49 97t72 78t88 50.5q21 8 33 4.5t20 -15.5t5.5 -20.5t-25.5 -19.5q-51 -25 -86.5 -58.5t-61.5 -73.5q-11 -17 -7.5 -25t31.5 -4q29 4 64 1.5t67 -15.5q21 -8 39 -21t31.5 -31t21.5 -43t8 -57q0 -39 -14 -69.5t-39.5 -52t-61 -32.5t-77.5 -11
q-43 0 -76 16.5t-55 45.5t-33 67t-11 82zM253 147q51 1 81 30t30 74q0 103 -128 103q-41 0 -65.5 -19t-24.5 -66q0 -26 7 -48.5t20.5 -39t33.5 -25.5t46 -9z" />
    <glyph glyph-name="seven" unicode="7" horiz-adv-x="520" 
d="M304 514q0 33 -4.5 41t-18.5 8q-28 -2 -55 -5t-46 -6q-15 -2 -24 -4t-14.5 -6t-8.5 -10t-7 -17q-5 -11 -9 -24t-8 -25q-5 -15 -18.5 -20t-30.5 -5q-15 0 -16 8.5t1 19.5q12 55 31 105q8 20 23 30t42 15q51 8 114 11.5t120 -3.5q18 -2 22 -28.5t2 -62.5
q-6 -118 -28.5 -211t-54.5 -152q-29 -54 -54 -68.5t-42 -0.5q-11 9 -10 18t17 36q17 27 31.5 66t24.5 85.5t15.5 98.5t5.5 106z" />
    <glyph glyph-name="eight" unicode="8" horiz-adv-x="520" 
d="M53 265q2 36 18 64.5t46 51.5q6 5 6 8.5t-5 8.5q-23 25 -33.5 49t-10.5 56q0 62 40 100t115 38q63 0 103.5 -33t44.5 -97q2 -29 -12.5 -56t-40.5 -47q-7 -5 -6 -7t7 -4q19 -5 37.5 -16.5t33.5 -29t24.5 -40t9.5 -49.5q0 -82 -44 -126.5t-135 -48.5q-94 -4 -145 41.5
t-53 136.5zM243 363q-47 0 -79.5 -28.5t-32.5 -85.5q0 -46 29 -76t76 -30q22 0 41.5 6.5t34.5 20t23.5 34.5t8.5 50q0 46 -24 77.5t-77 31.5zM216 423q52 0 74 27t22 64q0 35 -22 53t-60 18q-47 0 -70 -26t-23 -61q0 -14 4 -27.5t13 -24t24 -17t38 -6.5z" />
    <glyph glyph-name="nine" unicode="9" horiz-adv-x="520" 
d="M217 72q-20 -8 -34.5 -6.5t-19.5 17.5q-4 13 6 18q30 16 54 38.5t42.5 49t30 56t15.5 58.5q2 18 -1 21t-11 0q-20 -8 -43.5 -12.5t-40.5 -4.5q-94 0 -132.5 46t-38.5 129q0 33 13.5 60t38 47t59 31t75.5 11q48 0 82.5 -15t56.5 -40.5t32.5 -61t10.5 -75.5
q0 -72 -15 -132.5t-41.5 -107.5t-62 -79t-76.5 -48zM222 370q45 0 75 23t30 75q0 46 -28 75t-73 29q-23 0 -43 -8t-35 -22.5t-23.5 -34t-8.5 -42.5q0 -40 30 -67.5t76 -27.5z" />
    <glyph glyph-name="colon" unicode=":" horiz-adv-x="240" 
d="M69 417q0 19 11 32t34 13q14 0 27 -10.5t13 -30.5q0 -23 -11 -36.5t-29 -13.5q-26 0 -35.5 14t-9.5 32zM69 144q0 19 11 32t34 13q14 0 27 -10.5t13 -30.5q0 -23 -11 -36.5t-29 -13.5q-26 0 -35.5 14t-9.5 32z" />
    <glyph glyph-name="semicolon" unicode=";" horiz-adv-x="240" 
d="M61 417q0 19 11 32t34 13q14 0 27 -10.5t13 -30.5q0 -23 -11 -36.5t-29 -13.5q-26 0 -35.5 14t-9.5 32zM120 86q0 4 -2 7.5t-7 4.5q-7 1 -12.5 2t-11.5 5q-18 10 -18 35q0 23 12 33t32 10q26 0 36.5 -14t10.5 -40q0 -9 -1.5 -28t-6.5 -39q-11 -40 -35 -59q-10 -8 -17 -8
q-6 0 -11 5q-6 6 1 14q10 11 20 29.5t10 42.5z" />
    <glyph glyph-name="less" unicode="&#x3c;" horiz-adv-x="430" 
d="M307 167q-57 12 -116.5 51.5t-104.5 87.5q-18 18 -20 33t17 24q64 30 126 73.5t107 88.5q5 5 10 5t11 -4q11 -9 12 -25.5t-17 -35.5q-27 -28 -70.5 -61.5t-88.5 -59.5q-8 -5 -11.5 -7t-3.5 -5q0 -2 2.5 -4.5t7.5 -6.5q39 -36 92.5 -66.5t107.5 -51.5q6 -3 10 -7.5
t2 -12.5q-6 -18 -28.5 -20t-44.5 4z" />
    <glyph glyph-name="equal" unicode="=" horiz-adv-x="395" 
d="M178 382q-7 0 -22.5 1t-32.5 2.5t-32.5 4t-22.5 4.5q-36 10 -36 37q0 11 5.5 17t13.5 5q54 -4 124.5 -4.5t142.5 5.5q21 2 22 -18q1 -15 -5 -23.5t-20 -13.5q-15 -5 -34.5 -8.5t-39.5 -5.5t-37 -2.5t-26 -0.5zM71 233q-26 9 -32.5 20.5t-6.5 23.5q0 19 19 17
q57 -7 131 -8t146 9q10 2 14 -5t5 -15q2 -23 -12 -31q-26 -15 -67 -21t-86 -5q-38 0 -68.5 5t-42.5 10z" />
    <glyph glyph-name="greater" unicode="&#x3e;" horiz-adv-x="430" 
d="M118 167q-38 -9 -53 -5.5t-20 21.5q-3 8 1 12.5t11 7.5q27 9 58.5 22t60.5 30q29 16 52.5 34t37.5 36q5 6 -1 11.5t-20 13.5q-48 25 -88 53.5t-62 66.5q-14 22 -15 33t10 23q3 4 8 4t10 -3q45 -40 110 -82.5t134 -76.5q9 -5 14 -16.5t-16 -44.5q-12 -19 -38 -40.5
t-58 -40.5q-32 -20 -68 -36t-68 -23z" />
    <glyph glyph-name="question" unicode="?" horiz-adv-x="432" 
d="M122 327q0 22 5.5 34.5t22.5 21.5q25 13 48.5 26.5t46.5 30.5q25 18 33.5 38.5t6.5 46.5q-2 29 -21.5 51t-55.5 24q-36 3 -66 -11t-55 -33q-5 -5 -15 -3t-16 8q-5 6 -4.5 10t2.5 8q6 15 19.5 29.5t32 26.5t42 19.5t50.5 7.5q34 0 62.5 -11t49 -29.5t32.5 -44t12 -54.5
q1 -27 -5.5 -55t-23.5 -50q-17 -20 -43.5 -38.5t-58.5 -32.5q-19 -8 -26.5 -14.5t-10.5 -20.5q0 -4 -0.5 -11.5t-1 -15.5t-0.5 -16v-12q0 -30 -19 -30q-22 0 -30.5 5.5t-9.5 18.5q-3 43 -3 76zM128 116q1 17 11.5 29t31.5 12q18 0 29 -15q8 -11 8 -29q0 -17 -10 -28t-29 -12
q-25 -1 -33 12.5t-8 30.5z" />
    <glyph glyph-name="at" unicode="@" horiz-adv-x="669" 
d="M393 460q11 -44 11 -102q0 -51 10.5 -73t33.5 -22q16 0 29 11.5t21 27.5q9 18 13 44.5t5 52.5q0 19 -1.5 33.5t-9.5 34.5q-11 27 -30.5 46t-43.5 32q-24 12 -50.5 18t-50.5 6q-45 0 -80 -17.5t-62 -45.5q-26 -29 -41 -66t-16 -79q-4 -113 43.5 -166.5t131.5 -53.5
q33 0 58.5 6t55.5 27q15 8 22 -8q3 -10 -0.5 -17.5t-12.5 -16.5q-49 -47 -120 -53q-46 -4 -93.5 9.5t-84.5 58.5q-40 48 -52.5 101.5t-12.5 110.5q0 54 16 102t49 85t81.5 59.5t114.5 24.5q45 1 86.5 -12.5t74.5 -39.5q17 -14 31 -29t24.5 -35.5t16 -46.5t5.5 -62
q0 -33 -6.5 -66t-21.5 -59.5t-38 -43.5t-56 -17t-47 9.5t-25 30.5q-6 -14 -19.5 -26t-29.5 -20t-32.5 -11t-29.5 1q-17 4 -27 20t-14 38q-5 22 -3.5 47.5t7.5 49.5q5 22 15 47t25 46q16 20 37.5 33t50.5 12q28 -1 42 -36zM285 255q25 -2 47.5 18.5t31.5 48.5q4 11 6 32t1 42
q-2 20 -8 35.5t-19 15.5q-20 0 -33.5 -14t-22.5 -32q-10 -19 -15 -39t-7 -33q-2 -8 -3 -20.5t0 -23.5q2 -12 6.5 -20.5t15.5 -9.5z" />
    <glyph glyph-name="A" unicode="A" horiz-adv-x="522" 
d="M351 137q-5 23 -10 50t-10 42q-3 9 -8 12.5t-13 4.5q-16 2 -34.5 3t-38.5 1q-36 0 -64 -3q-9 -1 -13.5 -4.5t-6.5 -8.5q-7 -27 -15 -57t-19 -53q-10 -18 -22 -28.5t-29 -10.5q-29 0 -29 21q0 7 3 18q18 59 36.5 123.5t36 129t33 125t27.5 110.5q4 17 16 25.5t35 8.5
q30 0 59 -11t43 -43q13 -34 29 -91t31 -122t28 -130t21 -113q5 -32 -2.5 -39.5t-28.5 -7.5q-18 0 -33.5 11.5t-21.5 36.5zM320 335q0 22 -3.5 48t-8.5 52.5t-12 52.5t-14 49q-6 18 -14 22.5t-20 4.5q-9 0 -17.5 -3t-10.5 -11q-6 -21 -13 -49t-13.5 -56.5t-12 -54t-7.5 -42.5
q-3 -22 17 -27q22 -5 47 -6.5t50 -1.5q18 0 25 5t7 17z" />
    <glyph glyph-name="B" unicode="B" horiz-adv-x="522" 
d="M87 178q-15 97 -18.5 202.5t6.5 201.5q3 31 33.5 49.5t83.5 18.5q57 0 92 -6.5t54.5 -19t26 -32t6.5 -45.5q0 -43 -14 -79t-40 -56q56 -9 90 -38t34 -89q0 -48 -18.5 -81.5t-49.5 -55t-73 -31.5t-88 -10q-36 0 -59 3t-36.5 11t-20 21.5t-9.5 35.5zM190 168q28 -2 63 4
q54 8 79 29t25 63q0 25 -4 42t-16.5 27t-35 14.5t-59.5 4.5q-56 0 -76 -10.5t-21 -41.5q-1 -20 1.5 -48t7.5 -50q4 -17 10.5 -25t25.5 -9zM161 427q38 0 63.5 9t40.5 22q17 14 22.5 31t5.5 40q0 29 -16.5 42t-66.5 13q-45 0 -59.5 -8t-15.5 -23q-2 -24 -2 -48.5t3 -47.5
q2 -17 7.5 -23.5t17.5 -6.5z" />
    <glyph glyph-name="C" unicode="C" horiz-adv-x="524" 
d="M206 110q-45 18 -72.5 46t-43 59.5t-21 63.5t-5.5 58q0 64 23.5 115t62.5 87t89.5 55t104.5 19q36 0 59 -9t23 -23q0 -22 -12 -32t-40 -11q-100 -2 -159.5 -53t-59.5 -153q0 -44 14.5 -74t39 -48.5t57.5 -26.5t70 -8q19 0 38.5 2.5t37.5 7.5q16 5 27.5 1t11.5 -21
q0 -28 -14.5 -41.5t-42.5 -21.5q-40 -12 -91.5 -11t-96.5 19z" />
    <glyph glyph-name="D" unicode="D" horiz-adv-x="559" 
d="M77 170q0 52 0.5 106.5t3 107t6 100.5t9.5 88q6 37 32.5 53.5t64.5 16.5q58 0 110 -14t91 -45.5t62 -82t23 -123.5t-25 -123t-68 -81t-100 -44.5t-121 -13.5q-27 0 -44.5 2.5t-27 9t-13 17t-3.5 26.5zM206 190q36 0 71.5 12.5t63 35t44.5 54t17 70.5q0 54 -12.5 92
t-36.5 62t-58.5 35.5t-78.5 13.5q-23 1 -32.5 -7.5t-14.5 -38.5q-2 -15 -5 -49.5t-5.5 -76.5t-3.5 -84t1 -72q2 -28 12 -37.5t38 -9.5z" />
    <glyph glyph-name="E" unicode="E" horiz-adv-x="546" 
d="M82 192q-14 86 -12.5 180t21.5 175q6 25 14 41t21.5 26.5t34.5 16t52 8.5q110 11 195 3q12 -1 19 -9t5 -26q-2 -20 -19 -30.5t-43 -10.5q-34 0 -81 -3.5t-85 -9.5q-17 -2 -24 -15t-10 -26q-3 -10 -5.5 -27.5t-4.5 -34.5q-1 -15 4.5 -25.5t19.5 -10.5q61 1 119 4t97 7
q18 2 24.5 -4t8.5 -24q2 -23 -8.5 -33t-32.5 -12q-42 -5 -87 -8t-77 -5q-26 -1 -40 -4t-21 -7.5t-9 -10.5t-3 -13q-3 -34 0 -63q2 -27 17.5 -35.5t46.5 -10.5q54 -3 111.5 1.5t111.5 20.5q12 4 19.5 3.5t9.5 -15.5q3 -25 -5.5 -39t-25.5 -19q-75 -24 -155.5 -26.5
t-157.5 14.5q-25 5 -33 19.5t-12 37.5z" />
    <glyph glyph-name="F" unicode="F" horiz-adv-x="513" 
d="M98 561q4 22 21 36t53 19q57 8 122 7.5t121 -6.5q17 -2 27 -9.5t8 -27.5q-2 -17 -11.5 -30t-31.5 -14q-21 -1 -46.5 -2t-53 -2.5t-55 -3.5t-50.5 -4q-19 -1 -25 -25q-3 -14 -6 -40.5t-2 -49.5q0 -8 5 -11.5t19 -4.5q45 -2 88.5 -2.5t88.5 1.5q20 1 28.5 -3.5t8.5 -28.5
q0 -23 -26 -33.5t-73 -15.5q-26 -2 -52.5 -3t-55.5 1q-35 1 -36 -32q-2 -35 -1.5 -81.5t3.5 -84.5q2 -16 -6 -24t-20 -8q-32 0 -46.5 21.5t-16.5 56.5q-13 202 21 404z" />
    <glyph glyph-name="G" unicode="G" horiz-adv-x="575" 
d="M454 587q0 -23 -13.5 -34.5t-40.5 -7.5q-14 2 -28.5 3.5t-28.5 0.5q-40 -1 -75 -15t-60.5 -39.5t-40 -61t-14.5 -78.5q0 -39 12 -68t33.5 -48t50.5 -28t64 -9q47 0 73 26t26 77q0 13 -14 15q-10 1 -24 1h-29q-47 0 -51 47q-2 19 18 21q26 2 64.5 2t67.5 -3
q34 -4 42 -20.5t8 -53.5q0 -92 -47 -141.5t-140 -49.5q-36 0 -62 4t-46 12q-45 19 -71.5 48.5t-40.5 62.5t-18 66t-4 59q0 57 20.5 103.5t56 80.5t82 52.5t98.5 18.5q60 0 96 -13.5t36 -29.5z" />
    <glyph glyph-name="H" unicode="H" horiz-adv-x="563" 
d="M365 98q0 54 -2 97.5t-6 84.5q-3 31 -29 34q-41 5 -78 7t-71 1q-21 0 -24 -21q-4 -41 -5.5 -82t-8.5 -78q-3 -14 -8.5 -23t-17.5 -12q-13 -3 -25 2q-7 3 -11 14.5t-5 36.5q-5 111 3 221t26 221q2 12 11 16t25 4q14 0 24.5 -4t9.5 -18q-2 -40 -3.5 -85.5t-1.5 -93.5
q0 -22 20 -25q63 -11 143 -6q18 2 19 18q5 50 6.5 98.5t1.5 98.5q0 22 36 21q28 -1 35.5 -8t9.5 -29q11 -120 9.5 -238t-10.5 -238q-2 -20 -15.5 -27.5t-33.5 -6.5q-24 1 -24 20z" />
    <glyph glyph-name="I" unicode="I" horiz-adv-x="403" 
d="M32 141q1 16 8.5 18.5t24.5 3.5q12 1 26.5 1h30.5q23 0 25 21q5 77 6 164.5t1 164.5q0 17 -3 27.5t-22 11.5q-21 1 -37.5 2t-28.5 4q-30 9 -30 42q0 22 31 23q63 4 131 4.5t127 -4.5q19 -2 25 -7t5 -22q-1 -12 -5 -19t-15 -9q-21 -5 -40.5 -7.5t-40.5 -4.5
q-18 -1 -19 -26q-5 -86 -6 -171t-1 -171q0 -19 16 -20q46 -3 86 0q13 1 17 -4.5t3 -19.5q-1 -20 -10.5 -27.5t-26.5 -9.5q-59 -8 -117 -9.5t-117 1.5q-16 1 -25 5.5t-13.5 11t-5 13.5t-0.5 13z" />
    <glyph glyph-name="J" unicode="J" horiz-adv-x="497" 
d="M332 529q-1 -39 -3 -87t-6.5 -96.5t-12 -93t-18.5 -74.5q-17 -48 -51 -69.5t-80 -16.5q-51 5 -85.5 21.5t-48.5 42.5q-6 11 -6.5 23.5t9.5 22.5q9 10 24 -1q22 -17 50 -28t63 -11q18 0 33 9t23 31q30 87 31 314q0 21 -2.5 29.5t-21.5 10.5q-22 2 -50.5 4.5t-49.5 5.5
q-15 2 -21 12.5t-6 24.5q0 20 11 25t31 5q72 0 144 -2t143 -10q15 -2 23.5 -6.5t6.5 -24.5q-2 -19 -5 -24t-14 -7q-24 -4 -47.5 -5.5t-43.5 -2.5t-20 -22z" />
    <glyph glyph-name="K" unicode="K" horiz-adv-x="533" 
d="M106 618q3 39 27 39q26 -1 38 -13.5t10 -32.5q-4 -39 -6.5 -76.5t-3.5 -76.5q-1 -29 7.5 -39t34.5 8q62 43 110.5 88.5t84.5 90.5q14 17 24 20.5t21 -7.5q14 -13 11.5 -30t-13.5 -35q-15 -24 -35.5 -47.5t-44 -45.5t-47.5 -42t-46 -37q-20 -15 -1 -37q38 -47 89 -88
t101 -76q17 -11 21.5 -21t-9.5 -24q-18 -18 -47.5 -13.5t-52.5 21.5q-53 37 -99.5 80t-86.5 93q-11 14 -18.5 13.5t-11.5 -21.5q-8 -42 -13 -85.5t-9 -89.5q-2 -18 -12 -25.5t-33 -5.5q-14 1 -17.5 11t-3.5 34q-1 118 7 235t24 235z" />
    <glyph glyph-name="L" unicode="L" horiz-adv-x="506" 
d="M128 96q-29 2 -40 20t-12 51q-4 108 3.5 215t20.5 215q3 31 21 31q32 0 40.5 -21.5t6.5 -55.5q-3 -44 -5.5 -90.5t-4 -92t-1.5 -87.5t1 -77q0 -13 3.5 -19.5t10.5 -9t18.5 -2.5h27.5q50 0 103.5 7t97.5 24q7 3 12.5 4t9.5 1q18 0 18 -35q0 -14 -14 -25t-46 -23
q-20 -8 -47 -15t-56 -11q-40 -5 -78 -7t-90 3z" />
    <glyph glyph-name="M" unicode="M" horiz-adv-x="712" 
d="M532 137q-3 87 -8 176t-12 174q-1 20 -4.5 21.5t-11.5 -17.5q-38 -90 -71.5 -159.5t-70.5 -130.5q-10 -17 -26 -17q-15 0 -24 19q-29 72 -59.5 144t-65.5 145q-16 33 -20 -5q-9 -93 -9.5 -178t4.5 -171q1 -13 -6.5 -22t-24.5 -9q-21 0 -29 9t-10 29q-10 115 -9 227.5
t6 227.5q1 20 10.5 31.5t30.5 11.5q26 0 47 -7t32 -27q35 -66 65.5 -131t56.5 -131q4 -11 10 -11t11 11q32 61 59.5 122t52.5 122q11 26 23.5 35t30.5 9q36 0 48.5 -14t16.5 -44q14 -104 21.5 -207.5t10.5 -206.5q1 -23 -11 -34t-40 -11q-11 0 -17.5 4t-6.5 15z" />
    <glyph glyph-name="N" unicode="N" horiz-adv-x="588" 
d="M377 247q10 -17 13 -15.5t4 21.5q4 86 1 180t-14 180q-2 17 3.5 21.5t22.5 4.5t31.5 -8.5t16.5 -26.5q17 -115 22 -228t-9 -228q-3 -23 -21.5 -33t-41.5 -10q-16 0 -28.5 8.5t-25.5 31.5q-35 61 -77 142.5t-93 184.5q-17 34 -20 -5q-2 -26 -3 -64.5t-1 -83t1.5 -91.5
t4.5 -90q2 -29 -6.5 -42.5t-36.5 -13.5q-12 0 -16.5 11t-6.5 22q-7 46 -11.5 101t-7 113t-3 117.5t1.5 114.5q1 55 51 55q28 0 44 -7t27 -24q42 -76 86.5 -161.5t91.5 -176.5z" />
    <glyph glyph-name="O" unicode="O" horiz-adv-x="599" 
d="M286 630q60 0 105 -21.5t67 -58.5q34 -57 34 -142t-16 -155.5t-58 -112.5q-35 -36 -72 -46.5t-77 -10.5q-54 0 -92.5 21.5t-63 58t-36 85t-11.5 101.5q0 64 17 116t46.5 88.5t69.5 56.5t87 20zM281 154q30 0 55 15.5t43.5 44t28.5 69.5t10 92q0 53 -10 87t-27.5 54
t-40.5 28t-48 9q-37 1 -64.5 -18.5t-45.5 -50.5t-27 -69t-9 -74q0 -42 10.5 -76t28.5 -59t42.5 -38.5t53.5 -13.5z" />
    <glyph glyph-name="P" unicode="P" horiz-adv-x="540" 
d="M86 559q4 41 39 56t113 15q64 0 107 -8.5t68.5 -26.5t36 -46.5t10.5 -67.5q0 -41 -12 -73.5t-35 -55.5q-18 -18 -45 -29.5t-56.5 -16.5t-59.5 -6t-55 2q-14 1 -22 0.5t-12 -4.5t-5 -12t-1 -20q-2 -38 -2 -73.5v-73.5q0 -23 -15.5 -33t-41.5 -10q-14 0 -18 10t-5 33
q-1 46 -1.5 101.5t0.5 113.5t3.5 116t8.5 109zM364 397q18 11 25 37t7 46q0 27 -7.5 38.5t-30.5 20.5q-15 6 -41 9t-53 3q-24 0 -43 -1t-32 -3q-16 -3 -21.5 -10t-7.5 -28q-2 -24 -2.5 -54t0.5 -53q0 -11 3.5 -15.5t12.5 -6.5q20 -4 41.5 -6t42.5 -2q32 0 59 6t47 19z" />
    <glyph glyph-name="Q" unicode="Q" horiz-adv-x="589" 
d="M484 167q5 -9 9.5 -16t6.5 -12q3 -8 3.5 -14.5t-7.5 -11.5q-13 -10 -25 -13.5t-23 4.5q-9 7 -16.5 17.5t-13.5 20.5q-7 11 -12.5 11.5t-22.5 -10.5q-22 -14 -52 -19.5t-62 -4.5q-29 1 -56.5 9.5t-50.5 25.5q-22 18 -40 42.5t-30.5 54t-19.5 62.5t-7 67q0 64 15 117
t43 90.5t67.5 58t88.5 20.5q51 0 87 -19.5t60 -55.5q25 -38 37.5 -91.5t12.5 -114.5q0 -44 -5.5 -84t-16.5 -70q-2 -5 -1.5 -9.5t5.5 -12.5t12.5 -19.5t13.5 -22.5zM384 301q14 -22 18 4q3 22 4 52t-3 62t-13 62.5t-24.5 54t-38 37.5t-53.5 12q-36 -2 -60 -18.5t-39.5 -41.5
t-23 -56.5t-10.5 -63.5q-3 -40 5.5 -76.5t26.5 -64.5t43.5 -45.5t55.5 -20.5q23 -2 38.5 -0.5t29.5 6.5t15.5 9t-2.5 9q-6 9 -14 22t-15.5 27.5t-13.5 28.5t-10 25q-4 9 -2.5 17t11.5 13q14 8 24 5t21 -15q4 -5 14 -19t16 -25z" />
    <glyph glyph-name="R" unicode="R" horiz-adv-x="550" 
d="M344 407q20 22 26.5 50t1.5 54q-5 22 -25 30.5t-40 14.5q-14 3 -30.5 4t-33.5 1t-33 -1.5t-28 -2.5q-14 -2 -22 -8t-8 -32q-2 -25 -2.5 -56.5t1.5 -54.5q2 -41 36 -41q21 0 44 2t44 7t39 13t30 20zM256 297q-20 0 -35.5 -2t-32.5 -6q-15 -4 -19.5 -10t-5.5 -23
q-2 -33 -3.5 -65t-0.5 -55q1 -26 -10.5 -39.5t-28.5 -14.5q-20 -1 -25 7.5t-8 41.5q-3 46 -6.5 98.5t-5.5 107t-2.5 109t2.5 105.5q3 49 44 62q37 11 87 14t98 -3q40 -5 68.5 -16t46.5 -29t26 -44t9 -63q1 -48 -23.5 -79.5t-59.5 -52.5q-9 -5 -9.5 -11.5t3.5 -14.5
q28 -54 55.5 -97t62.5 -88q5 -6 6.5 -14.5t-4.5 -14.5q-13 -13 -31.5 -16.5t-32.5 8.5q-40 37 -65.5 77t-48.5 85q-8 15 -13.5 24t-10.5 13t-11.5 5t-15.5 1z" />
    <glyph glyph-name="S" unicode="S" horiz-adv-x="489" 
d="M91 228q29 -26 71.5 -41t90.5 -15q37 0 58.5 17.5t21.5 57.5q0 16 -4 30t-15 26t-30.5 21.5t-50.5 17.5q-17 4 -35 7.5t-35.5 9.5t-33.5 15.5t-29 25.5q-15 18 -20.5 35t-5.5 38q0 41 13.5 71.5t36.5 50t55 29t68 9.5q33 0 65.5 -9t59.5 -24q14 -8 21.5 -16.5t4.5 -19.5
q-5 -15 -20.5 -21.5t-39.5 0.5q-20 8 -46 10.5t-42 2.5q-35 -2 -59 -17t-29 -55q-2 -24 10.5 -43t33.5 -28q14 -5 28 -8.5t30 -5.5q24 -5 47 -12t43 -22q16 -11 27.5 -22t18 -24.5t9.5 -30.5t3 -39q0 -37 -8.5 -61.5t-28.5 -47.5q-19 -21 -48.5 -34t-68.5 -13q-54 0 -104 19
t-85 55q-14 14 -17 30.5t11 31.5q11 13 28 -1z" />
    <glyph glyph-name="T" unicode="T" horiz-adv-x="517" 
d="M285 481q5 -61 5 -126t-2 -123q-1 -21 -3.5 -53t-7.5 -58q-4 -19 -15.5 -31.5t-36.5 -11.5q-22 4 -19 23q11 96 8 191t-14 191q-2 15 -3 24t-4.5 13.5t-11.5 6t-23 2.5q-22 1 -44.5 1t-44.5 2q-9 1 -18 3.5t-16.5 9t-12.5 16.5t-5 26q0 12 5 15.5t15 4.5q103 5 204.5 5
t206.5 -3q15 -1 23 -8.5t8 -25.5q0 -19 -3.5 -26t-14.5 -8q-30 -3 -65 -5.5t-73 -3.5q-14 0 -22 -1.5t-12 -6.5t-4.5 -15t0.5 -28z" />
    <glyph glyph-name="U" unicode="U" horiz-adv-x="575" 
d="M142 105q-27 7 -39 28t-16 48q-28 196 2 395q4 26 12.5 37t27.5 9q21 -2 31.5 -8.5t8.5 -21.5q-11 -104 -11.5 -187t4.5 -152q2 -26 8 -49.5t29 -28.5q32 -8 60 -10.5t59 -0.5q15 1 24.5 10.5t17.5 45.5q20 96 24 191t-3 192q-1 14 9.5 17t21.5 3q16 0 28 -7t14 -24
q4 -36 7 -95.5t0 -125t-15.5 -127.5t-37.5 -104q-17 -29 -46 -38.5t-61 -10.5q-34 -1 -74 1t-85 13z" />
    <glyph glyph-name="V" unicode="V" horiz-adv-x="532" 
d="M15 574q-11 28 25 44q10 5 20.5 0.5t19.5 -14t16 -22t11 -22.5q15 -34 31 -73t32 -80t31.5 -82.5t28.5 -80.5q7 -17 13 -30t10 -13q5 2 10 16.5t13 32.5q32 80 58 169t43 166q8 34 20.5 46t39.5 7q12 -2 19 -12t5 -27q-13 -111 -48.5 -220.5t-91.5 -220.5
q-8 -17 -15 -26.5t-14 -15t-15.5 -8t-20.5 -3.5q-24 -1 -36.5 9t-23.5 36q-20 49 -43.5 105.5t-47.5 112.5t-47.5 109t-42.5 97z" />
    <glyph glyph-name="W" unicode="W" horiz-adv-x="711" 
d="M334 326q-3 11 -6 10t-5 -10q-10 -42 -22.5 -82.5t-26.5 -69.5q-13 -25 -28 -32t-44 -5q-26 2 -43.5 16t-30.5 40q-18 36 -33 84t-26.5 101.5t-20.5 109t-15 105.5q-2 14 4.5 25.5t29.5 17.5q16 4 22 -2t9 -20q7 -48 17 -99t22 -99.5t26.5 -92.5t31.5 -79q8 -17 22 -17
q15 0 26 39q21 83 34 165.5t23 165.5q2 11 11 14t21 3q10 0 20 -3t12 -14q13 -88 31 -170t43 -172q13 -47 29 -47q14 0 27 33q29 75 50 165t29 180q2 14 8 19.5t20 3.5q29 -5 37.5 -18t6.5 -43q-23 -280 -131 -423q-8 -11 -19.5 -13.5t-31.5 -2.5q-12 0 -25.5 4.5
t-22.5 19.5q-21 34 -44.5 86t-36.5 107z" />
    <glyph glyph-name="X" unicode="X" horiz-adv-x="535" 
d="M68 137q32 38 62.5 81t50.5 78q11 18 11 27q0 5 -2.5 9t-7.5 11q-34 47 -69 98t-67 98q-7 10 -9.5 19t-2.5 17q0 16 12.5 29t27.5 13q10 0 20 -14q15 -23 31.5 -48t33 -49t32 -46t28.5 -39q16 -20 21 -28.5t13 -8.5t14.5 6.5t18.5 20.5q29 33 63.5 82.5t66.5 100.5
q13 19 39 3q17 -11 18.5 -27.5t-9.5 -35.5q-15 -26 -29.5 -49t-29.5 -44t-31 -42t-33 -43q-17 -21 -18 -32q-1 -6 2.5 -12.5t10.5 -17.5q30 -46 64 -93t63 -83q4 -5 7 -9.5t3 -10.5q0 -17 -14 -27t-28 -10q-8 0 -15.5 2.5t-13.5 8.5q-17 18 -35 41.5t-36 48.5t-35.5 50
t-32.5 47q-7 9 -14 -3q-28 -42 -56 -79.5t-55 -67.5q-9 -11 -19.5 -17.5t-23.5 -6.5q-14 0 -26 9.5t-12 22.5q0 3 1.5 7.5t9.5 12.5z" />
    <glyph glyph-name="Y" unicode="Y" horiz-adv-x="501" 
d="M197 134q0 34 2.5 61t3.5 62q1 29 -1 39.5t-9 18.5q-44 62 -83 121.5t-71 119.5q-10 18 -9 31t19 23q13 7 25.5 0.5t22.5 -23.5q30 -54 61 -104t61 -82q16 -19 25.5 -17t29.5 29q28 36 59 87.5t51 104.5q7 18 16 21.5t24 -4.5q26 -15 29 -35t-11 -47q-24 -49 -63.5 -105
t-84.5 -115q-8 -12 -14.5 -26t-5.5 -29q2 -45 -0.5 -82t-4.5 -70q-2 -23 -18 -26t-33 1q-7 2 -14 9.5t-7 36.5z" />
    <glyph glyph-name="Z" unicode="Z" horiz-adv-x="541" 
d="M83 130q-22 8 -22 37q-1 11 3.5 21t15.5 23q61 70 121 147t103 144q17 27 10 38.5t-51 9.5q-17 -1 -38.5 -2t-44 -2.5l-45 -3t-41.5 -3.5q-25 -2 -35.5 4t-16.5 23q-11 30 18 37q69 16 137.5 21t140.5 3q20 -1 36 -9.5t20 -27.5q6 -29 4 -46.5t-13 -37.5
q-42 -77 -98.5 -150t-111.5 -140q-15 -19 -8.5 -28t46.5 -8q57 2 116.5 11t113.5 30q19 10 27 -7q6 -12 4.5 -22t-8.5 -18.5t-16 -14.5t-18 -10q-37 -17 -74 -23t-79 -10q-49 -5 -101.5 -3t-94.5 17z" />
    <glyph glyph-name="bracketleft" unicode="[" horiz-adv-x="370" 
d="M152 2q-21 2 -27.5 15.5t-8.5 30.5q-12 143 -9.5 285t16.5 290q2 19 10.5 27t22.5 9q25 2 55 1.5t59 -1.5q17 -1 25.5 -5.5t6.5 -20.5q-2 -15 -8 -22t-21 -11q-11 -3 -26.5 -5.5t-28.5 -3.5q-14 -1 -17 -14.5t-5 -27.5q-5 -53 -8.5 -105.5t-5 -109t-0.5 -118.5t4 -134
q0 -7 5 -11t19 -6q20 -3 41.5 -5t34.5 -2q9 0 13.5 -6t-0.5 -26q-5 -19 -16.5 -24t-36.5 -5q-16 0 -44.5 1.5t-49.5 3.5z" />
    <glyph glyph-name="backslash" unicode="\" horiz-adv-x="535" 
d="M34 546q-12 24 -12 41q0 18 12.5 33t27.5 15q12 0 20 -16q41 -77 86 -152.5t92.5 -146.5t95.5 -136t95 -121q4 -5 7 -10.5t3 -12.5q0 -19 -14 -31t-28 -12q-17 0 -29 13q-47 56 -94.5 119.5t-93.5 132t-88.5 140.5t-79.5 144z" />
    <glyph glyph-name="bracketright" unicode="]" horiz-adv-x="370" 
d="M208 2q-16 -2 -43 -4t-51 -1q-26 1 -37 5.5t-16 23.5q-5 20 -0.5 26t13.5 6q13 0 34.5 2t41.5 5q8 2 15 6t9 22q5 62 6.5 125.5t0 123.5t-5.5 114t-11 96q-4 25 -6 32t-11 9q-10 2 -28.5 4t-31.5 3q-15 1 -21 9.5t-8 23.5q-2 16 6.5 20.5t25.5 5.5q29 2 59.5 0.5
t55.5 -5.5q13 -2 22 -9.5t11 -26.5q8 -74 14 -145.5t8 -142.5t-1 -141.5t-13 -140.5q-2 -17 -9.5 -30t-28.5 -16z" />
    <glyph glyph-name="asciicircum" unicode="^" horiz-adv-x="397" 
d="M208 686q29 -61 57.5 -110.5t54.5 -93.5q5 -9 8.5 -16t-4.5 -15q-10 -10 -18 -8t-23 17q-20 20 -46.5 52.5t-57.5 93.5q-5 9 -7 9t-6 -8q-23 -45 -45.5 -80t-51.5 -61q-6 -5 -15 -7t-18 4t-5 15q35 52 58.5 102t46.5 106q4 11 11.5 17.5t21.5 5.5q29 -1 39 -23z" />
    <glyph glyph-name="underscore" unicode="_" horiz-adv-x="403" 
d="M65 8q-19 4 -26.5 16t-7.5 26q0 11 5.5 17t13.5 5q27 -3 63 -4t76.5 -1t81 1.5t76.5 4.5q19 1 19 -20q0 -20 -21.5 -31t-50 -16.5t-56 -6.5t-40.5 -1q-33 0 -68 2t-65 8z" />
    <glyph glyph-name="grave" unicode="`" horiz-adv-x="220" 
d="M140 551q-5 -5 -8 -5.5t-6 0.5q-18 8 -32.5 20.5t-25 26.5t-18 28t-12.5 26q-11 26 -6.5 40t21.5 20q7 3 15.5 3t10.5 -8q11 -35 26 -67.5t34 -66.5q2 -5 4 -8.5t-3 -8.5z" />
    <glyph glyph-name="a" unicode="a" horiz-adv-x="489" 
d="M301 190q5 20 5 36q0 19 -12 22q-32 9 -75 9q-47 0 -71.5 -14t-24.5 -52q0 -25 21 -34t68 -9q40 0 62 11.5t27 30.5zM338 73q-27 -1 -30 15q-1 5 -1.5 12t-0.5 12q0 6 -4 2q-14 -14 -42 -20.5t-59 -6.5q-32 0 -58 3.5t-45.5 13.5t-30 27t-10.5 43q0 44 12.5 72t33.5 44
t47.5 22t54.5 6q26 0 50.5 -2.5t49.5 -9.5q7 15 10.5 29t-1.5 29q-8 26 -30.5 38t-58.5 12q-25 0 -45 -4.5t-38 -11.5q-11 -5 -25.5 -2t-22.5 14q-11 14 -11.5 24.5t7.5 14.5q28 19 65 28.5t72 9.5q41 0 80 -13.5t62 -44.5q10 -12 13.5 -33.5t4.5 -40.5q1 -26 0 -51t-4 -50
q-5 -42 -8 -79.5t0 -70.5q3 -30 -37 -31z" />
    <glyph glyph-name="b" unicode="b" horiz-adv-x="490" 
d="M138 129q-2 -25 -12 -42q-8 -14 -24 -16.5t-27 3.5q-12 7 -11 20q5 47 6 108.5t1 131v145t3 151.5q1 17 9.5 21.5t22.5 2.5q18 -3 28 -11t9 -28q-1 -23 -1 -44t0.5 -41.5t2 -42t3.5 -46.5q27 8 53 12t51 4q78 0 118.5 -42t40.5 -136q0 -64 -19 -104t-43 -57
q-41 -28 -94 -28q-45 0 -72.5 11t-44.5 28zM166 174q20 -8 39.5 -11.5t37.5 -3.5q51 0 74.5 27t23.5 77q0 35 -8 64q-10 36 -35.5 47.5t-60.5 11.5q-23 0 -42 -7q-20 -7 -30.5 -15.5t-13.5 -26.5q-5 -30 -5.5 -71t4.5 -71q2 -15 16 -21z" />
    <glyph glyph-name="c" unicode="c" horiz-adv-x="429" 
d="M174 125q-39 17 -62 38.5t-34.5 45.5t-15 48.5t-3.5 48.5q0 39 16.5 73.5t44.5 60.5t65.5 41.5t78.5 15.5q18 0 34.5 -3t28.5 -10q20 -12 19 -32q-1 -14 -9 -19.5t-32 -4.5q-70 2 -114.5 -31t-44.5 -98t37 -91.5t96 -26.5q18 0 35 4.5t29 10.5q10 5 19 2t11 -14
q2 -14 -3 -25t-14 -19t-20.5 -13t-22.5 -8q-31 -7 -69 -6.5t-70 12.5z" />
    <glyph glyph-name="d" unicode="d" horiz-adv-x="510" 
d="M60 244q0 46 10.5 85t31.5 67.5t51 44.5t69 16q24 0 49 -4.5t48 -14.5q6 58 6 105.5t-5 95.5q-3 30 38 28q45 -2 48 -44q3 -62 1.5 -133.5t-3.5 -142.5t-3.5 -135.5t0.5 -110.5q0 -6 -0.5 -13t-7.5 -10q-12 -5 -25.5 -3.5t-23.5 12.5q-7 8 -10 19.5t-3 20.5
q-14 -24 -44.5 -34.5t-63.5 -10.5q-87 0 -125 43.5t-38 118.5zM303 165q12 8 17 34.5t7 57.5q1 26 0 50.5t-3 38.5q-1 11 -9.5 18.5t-20.5 12.5t-26 7t-25 2q-27 0 -47 -12.5t-33 -31.5t-19.5 -43t-6.5 -46q0 -21 3 -40t13 -33.5t29.5 -23t53.5 -8.5q42 0 67 17z" />
    <glyph glyph-name="e" unicode="e" horiz-adv-x="498" 
d="M390 418q14 -17 19.5 -36t5.5 -41q1 -29 -14 -53.5t-53 -28.5q-40 -4 -90.5 -3t-102.5 6q-13 2 -16 -14q-5 -25 2 -50q5 -18 19 -28.5t33.5 -16.5t42 -7.5t44.5 -1.5q26 0 50.5 5t43.5 15q20 11 27 2q20 -25 -5 -47q-21 -18 -53 -28.5t-64 -10.5q-112 0 -166.5 43
t-54.5 142q0 45 13 83.5t37 66.5t58 44t77 16q41 0 81.5 -13t65.5 -44zM171 313q49 -5 85.5 -5t65.5 3q14 2 17.5 9t3.5 20q0 22 -8 36t-20.5 21.5t-29.5 10.5t-35 3q-25 0 -45 -6.5t-34.5 -18t-22.5 -26t-8 -30.5q0 -9 8.5 -12.5t22.5 -4.5z" />
    <glyph glyph-name="f" unicode="f" horiz-adv-x="440" 
d="M371 555q-18 7 -38 12t-40 3q-11 -2 -21.5 -7.5t-15.5 -16.5q-8 -17 -9.5 -36.5t-1.5 -36.5q0 -8 3 -11t14 -3q9 0 24 -1t31.5 -3t31.5 -4.5t25 -4.5q14 -3 19 -9t4 -19q-1 -19 -9.5 -26.5t-22.5 -7.5h-48t-52 -1q-15 -1 -18 -5.5t-5 -18.5q-7 -72 -4 -137t10 -131
q2 -12 -3 -20t-22 -8q-21 0 -30.5 7t-13.5 26q-11 64 -15 129t-4 145q0 13 -13 13q-21 0 -48 -0.5t-45 1.5q-13 1 -19 9t-7 20q-1 14 5 21.5t18 11.5q16 5 44 8t54 3q14 0 16 2.5t2 16.5q0 80 27 119t85 39q35 0 60.5 -7.5t41.5 -17.5q27 -16 10 -48q-4 -7 -9.5 -7.5
t-10.5 1.5z" />
    <glyph glyph-name="g" unicode="g" horiz-adv-x="529" 
d="M371 -14q-19 -22 -46 -31.5t-57 -9.5q-54 0 -94 12t-75 44q-11 10 -14 24.5t3 25.5q10 16 29 3q31 -23 65 -32.5t76 -9.5q17 0 32.5 7t26.5 22q14 20 19 53.5t5 68.5q-14 -3 -31 -4.5t-34 -1.5q-48 0 -93.5 10t-78.5 37q-20 17 -32 45.5t-12 61.5q0 49 13 81t35.5 51
t54 27t69.5 8q35 0 63.5 -10.5t50.5 -28.5q13 29 26.5 40t33.5 4q27 -9 22 -47q-6 -41 -7.5 -98.5t-1.5 -118.5q0 -36 -2.5 -71t-8 -65.5t-14.5 -55.5t-23 -41zM191 241q19 -7 43 -9.5t39 -1.5q28 1 41.5 8.5t19.5 28.5q7 26 5 53.5t-4 37.5q-2 15 -7.5 20.5t-16.5 13.5
q-14 8 -37.5 12t-48.5 4q-20 0 -39 -6t-33 -19q-10 -9 -15.5 -25t-5.5 -32q1 -37 17 -55.5t42 -29.5z" />
    <glyph glyph-name="h" unicode="h" horiz-adv-x="500" 
d="M332 119q3 49 2 100t-5 105q-2 16 -12.5 24t-27.5 16q-12 6 -28 9t-33.5 2.5t-33.5 -4t-28 -9.5t-15 -15t-4 -22q-2 -18 -2.5 -44t-2 -54t-5.5 -54.5t-11 -44.5q-8 -18 -20 -22.5t-28 -2.5q-11 2 -16 10.5t-4 17.5q4 54 7.5 119t6.5 135t5 141.5t4 138.5q0 14 12.5 18.5
t24.5 4.5q14 0 25 -7.5t13 -24.5q3 -29 3.5 -55.5t0 -53t-2 -54.5t-2.5 -60q18 11 49 15.5t60 0.5q31 -3 57.5 -13.5t46.5 -29.5q11 -11 18.5 -23.5t9.5 -29.5q3 -26 5 -57t2.5 -62.5t-0.5 -61.5t-5 -55q-3 -17 -12 -24t-27 -7q-16 0 -22.5 10t-4.5 23z" />
    <glyph glyph-name="i" unicode="i" horiz-adv-x="259" 
d="M72 94q4 35 7 72.5t2 75.5q-1 43 -3 82t-5 77q-1 12 5.5 19.5t24.5 8.5q17 0 29 -7.5t14 -16.5q5 -23 6.5 -49.5t2.5 -54.5q0 -35 -1 -76t-7 -76t-17 -58.5t-30 -21.5q-20 1 -24 7.5t-4 17.5zM56 574q0 19 12 32t34 13q20 0 30.5 -14t11.5 -31q0 -18 -9.5 -34.5
t-30.5 -16.5q-26 0 -37 14.5t-11 36.5z" />
    <glyph glyph-name="j" unicode="j" horiz-adv-x="392" 
d="M18 -14q-9 8 -15 18.5t-6 21.5q0 29 19 29q11 0 20 -7q21 -16 47.5 -25.5t51.5 -9.5q38 0 58 37q16 30 21 69t4.5 85t-4 97t-6.5 104q-3 30 22 30q18 0 30.5 -3t15.5 -20q8 -41 13 -97t3.5 -113.5t-11.5 -110t-31 -86.5q-22 -35 -47 -48.5t-55 -13.5q-38 0 -72.5 11.5
t-57.5 31.5zM191 574q0 19 12 32t34 13q20 0 30.5 -14t11.5 -31q0 -18 -9.5 -34.5t-30.5 -16.5q-26 0 -37 14.5t-11 36.5z" />
    <glyph glyph-name="k" unicode="k" horiz-adv-x="438" 
d="M70 120q-5 69 -5 134.5t3 137.5q3 77 8.5 155t15.5 137q2 10 8.5 15.5t23.5 1.5q27 -6 31 -22t2 -39q-5 -64 -6 -126t0 -121q0 -17 5.5 -20t20.5 6q13 8 34 22t43 29.5t41.5 30t29.5 24.5q8 8 19 8t25 -15q7 -8 9 -23.5t-8 -26.5q-15 -15 -33.5 -30t-39 -29t-40.5 -26.5
t-38 -22.5q-12 -6 -6 -15q15 -20 35.5 -39.5t42.5 -38.5t44.5 -36t42.5 -30q15 -10 20 -18t-3 -20q-8 -14 -22 -16.5t-30 3.5q-22 8 -48 24t-51 36t-47 42t-37 43q-6 8 -8.5 5t-4.5 -10q-8 -30 -11 -63.5t-5 -69.5q-1 -12 -5.5 -18t-17.5 -6q-22 0 -29.5 6.5t-8.5 20.5z" />
    <glyph glyph-name="l" unicode="l" horiz-adv-x="269" 
d="M63 102q8 51 11.5 115t3.5 134t-3 143t-7 141q-1 30 36 28q21 -1 32 -10t13 -23q8 -53 11.5 -116t3.5 -131q0 -64 -5.5 -127t-19.5 -120q-11 -41 -26 -52t-32 -6q-21 6 -18 24z" />
    <glyph glyph-name="m" unicode="m" horiz-adv-x="699" 
d="M142 467q1 -7 1.5 -7.5t5.5 2.5q20 14 46.5 22t55.5 8q49 0 86 -28q27 19 58.5 28t62.5 9q21 0 43 -4.5t40 -13.5t31 -21.5t16 -28.5q4 -19 6.5 -42t4 -47t1.5 -47.5v-43.5q-1 -34 -6.5 -67.5t-16.5 -56.5q-7 -14 -14.5 -19.5t-18.5 -5.5q-14 0 -20.5 5.5t-4.5 21.5
q11 68 9 137t-12 129q-3 18 -18 26.5t-39 8.5q-36 0 -63 -20.5t-27 -51.5q0 -17 -0.5 -38l-1 -42t-1 -39.5t-1.5 -28.5q-2 -23 -3 -40t-4 -31q-6 -28 -28 -28q-23 0 -34.5 5t-9.5 25q5 55 4.5 112t-4.5 108q-2 32 -17 41t-41 9q-35 0 -51.5 -12.5t-24.5 -44.5
q-10 -46 -14 -99.5t-4 -95.5q0 -52 -48 -52q-12 0 -17 8t-6 18q-2 42 1.5 93t8.5 100q5 48 6 87.5t-4 62.5q-2 12 -0.5 19.5t13.5 10.5q17 5 34.5 -6.5t19.5 -34.5z" />
    <glyph glyph-name="n" unicode="n" horiz-adv-x="515" 
d="M348 78q-16 4 -18 9.5t1 22.5q7 31 9.5 63.5t2.5 63t-2.5 57t-5.5 47.5q-10 65 -74 68q-37 2 -62 -7t-36 -30q-7 -14 -10 -43q-3 -35 -5.5 -82.5t-6.5 -90.5q-3 -32 -13 -49.5t-33 -19.5q-5 0 -11.5 0.5t-11.5 2.5t-8.5 5.5t-2.5 9.5q3 47 7.5 103t10.5 110q5 48 3.5 88
t-7.5 64q-8 27 19 31q17 2 31.5 -3.5t18.5 -18.5q4 -11 5 -25q1 -5 5 -5.5t7 1.5q25 19 54.5 26.5t55.5 7.5q35 0 67.5 -15.5t50.5 -41.5q16 -21 21 -51t7 -54q1 -13 1.5 -34.5t-0.5 -47t-3.5 -52.5t-8.5 -50q-2 -11 -6 -23.5t-11 -22t-17.5 -14t-23.5 -0.5z" />
    <glyph glyph-name="o" unicode="o" horiz-adv-x="503" 
d="M58 290q0 47 15 84.5t39.5 63.5t56 39.5t65.5 13.5q46 0 77.5 -15t51.5 -41.5t29 -62.5t11 -78q2 -47 -9 -85t-32 -65.5t-51.5 -44.5t-67.5 -20q-29 -2 -50 1t-41 14q-46 30 -70 81t-24 115zM330 278q0 78 -25 109t-67 31q-25 0 -44.5 -11t-32.5 -29t-20 -41.5t-7 -48.5
q0 -71 27.5 -105t69.5 -34q45 0 72 33.5t27 95.5z" />
    <glyph glyph-name="p" unicode="p" horiz-adv-x="530" 
d="M142 463q23 10 53.5 14t58.5 4q35 0 66.5 -7.5t55.5 -24.5t38.5 -43.5t14.5 -63.5q0 -51 -11 -86.5t-34.5 -57.5t-59.5 -32t-86 -10q-20 0 -34 2t-24 4q-21 4 -26 -16q-3 -14 -6 -35.5t-5 -44.5t-3.5 -46t-1.5 -41q0 -15 -5.5 -23t-12.5 -12t-14 -4.5t-11 -0.5
q-19 1 -20.5 13t-2.5 29q-1 25 -1 59.5t1 73.5t2 81t3 83q2 60 -2 113t-12 88q-2 11 3 17.5t13 10.5q7 3 14.5 4t15.5 -3t16.5 -14.5t16.5 -30.5zM358 359q-2 20 -10.5 27.5t-27.5 14.5q-13 5 -31.5 7.5t-37.5 3t-37 0t-30 -2.5q-26 -4 -29 -36q-1 -11 -2 -26.5t-1 -32.5
v-34t1 -32q1 -11 4 -12.5t12 -3.5q46 -7 83.5 -4t65.5 20t35 48t5 63z" />
    <glyph glyph-name="q" unicode="q" horiz-adv-x="532" 
d="M235 233q20 -3 42 -2.5t32 3.5q17 5 22.5 16t7.5 26q3 24 2 54t-8 57q-5 18 -32 24q-23 5 -47 4t-47 -8q-42 -12 -56 -34.5t-12 -55.5q2 -31 24 -53.5t72 -30.5zM339 460q5 26 14 35.5t29 9.5q23 0 29.5 -13.5t9.5 -45.5q9 -115 3.5 -238t-22.5 -236q-1 -7 -4 -17
t-9 -18.5t-15.5 -14t-23.5 -3.5q-26 3 -23 23q6 47 9 96.5t0 91.5q-2 27 -8 32t-15 3q-27 -8 -64.5 -7.5t-65.5 8.5q-30 8 -53 21t-38 33q-14 20 -24 47t-10 57q0 48 16 80t43 51.5t62.5 28t74.5 8.5q26 0 48 -7.5t37 -24.5z" />
    <glyph glyph-name="r" unicode="r" horiz-adv-x="410" 
d="M75 135q-8 32 -9 82t4 104q4 46 3 87t-8 66q-5 13 2 19t16 7q7 1 16.5 0t19 -5.5t17 -12t11.5 -18.5q4 -12 3.5 -23.5t0.5 -25.5q18 25 54 44.5t77 19.5q42 0 68.5 -17t41.5 -43q5 -8 5.5 -18t-6.5 -17q-11 -11 -17.5 -10t-12.5 5q-18 11 -37 19t-44 8q-23 0 -44 -8.5
t-39 -23t-30.5 -33t-16.5 -38.5q-9 -39 -12 -81.5t3 -104.5q1 -9 -1 -15.5t-11 -8.5q-28 -7 -37.5 5t-16.5 37z" />
    <glyph glyph-name="s" unicode="s" horiz-adv-x="438" 
d="M61 187q4 10 14.5 8.5t19.5 -6.5q22 -12 45 -20t60 -8q23 0 41.5 2t31 8t18 17.5t4.5 30.5q-2 12 -5.5 22t-13 17.5t-26.5 13.5t-44 9q-29 4 -60 9.5t-55 28.5q-17 14 -23 29.5t-6 37.5q0 31 14.5 53.5t37.5 36.5t51.5 20.5t57.5 6.5q25 0 48.5 -5.5t39.5 -13.5t20 -14.5
t2 -14.5q-5 -15 -17 -18.5t-30 1.5q-11 3 -32 4.5t-35 0.5q-12 -1 -26 -3.5t-26 -8.5t-20.5 -17.5t-9.5 -29.5q-1 -21 11.5 -29.5t31.5 -13.5q32 -8 64.5 -11t63.5 -17q59 -28 62 -96q1 -19 -6.5 -40.5t-25.5 -38.5q-20 -18 -50.5 -28.5t-82.5 -10.5q-35 0 -68.5 9.5
t-57.5 26.5q-17 12 -21 24t3 28z" />
    <glyph glyph-name="t" unicode="t" horiz-adv-x="403" 
d="M310 92q-23 -12 -51.5 -14.5t-57.5 3.5q-22 5 -35 21.5t-17 35.5q-11 54 -13.5 115t-0.5 137q-1 9 -4 11t-14 2q-14 0 -33.5 -1t-32.5 -2q-14 -2 -19 8t-7 23q-1 11 4.5 16t13.5 7q18 4 39.5 6t38.5 3q14 0 18 3t4 17q0 9 1 21t2.5 24.5t3.5 23.5t4 19q3 15 10 19.5
t20 1.5q14 -2 23 -6t8 -18q-1 -9 -2 -20.5t-2 -24t-1.5 -24.5t-0.5 -20q0 -7 3 -9t12 -2q23 -1 45.5 0t45.5 3q28 2 28 -24q0 -18 -9.5 -23.5t-28.5 -8.5q-14 -2 -33.5 -4t-36.5 -3q-19 -1 -22 -6.5t-4 -21.5q-3 -51 -2 -106t9 -108q1 -8 7.5 -17.5t18.5 -10.5q17 -2 38 2
t32 9q10 4 15.5 1t8.5 -9q11 -31 -26 -49z" />
    <glyph glyph-name="u" unicode="u" horiz-adv-x="518" 
d="M397 84q-14 -5 -26.5 -1.5t-20.5 17.5q-3 5 -5 10t-4 12q-15 -22 -44 -29.5t-61 -7.5q-29 0 -56 4t-49.5 14.5t-38.5 28.5t-22 46q-6 30 -8 63.5t-1 68t4 68.5t7 65q1 10 2 18.5t3.5 15t7.5 9.5t15 3q28 -2 36.5 -14.5t6.5 -37.5q-5 -52 -5.5 -100.5t1.5 -90.5
q1 -25 3 -39t6 -21.5t11 -10.5t18 -7q33 -11 62.5 -12t53.5 5q16 4 28 12t16 36q2 18 3 45.5t1 60t-1.5 66.5t-3.5 65q-2 23 3.5 30.5t22.5 7.5q23 0 33 -7.5t12 -24.5q3 -21 3 -47.5t-1 -56t-2 -61t0 -62.5q1 -39 3 -66t7 -45q4 -13 -2 -19.5t-18 -10.5z" />
    <glyph glyph-name="v" unicode="v" horiz-adv-x="478" 
d="M43 437q-9 26 -7 40.5t19 25.5q19 10 32.5 4.5t18.5 -22.5q10 -30 23 -65t27 -71t29 -72t31 -69q6 -15 11.5 -18t10.5 -2q5 0 8.5 4.5t9.5 18.5q30 73 54 147.5t36 139.5q3 18 16 24t30 1q14 -5 19 -18t3 -24q-8 -41 -19 -86t-26 -90.5t-33 -89t-39 -81.5
q-12 -23 -28 -30t-35 -6q-19 0 -31.5 9t-20.5 24q-45 78 -77.5 151.5t-61.5 154.5z" />
    <glyph glyph-name="w" unicode="w" horiz-adv-x="620" 
d="M309 247q-3 8 -3.5 8t-1.5 -8q-3 -34 -12 -71t-20 -60q-8 -19 -20 -23.5t-30 -4.5q-35 -1 -51.5 10.5t-27.5 31.5q-16 28 -32.5 67t-30.5 82.5t-25.5 89t-17.5 86.5q-2 11 3 22t21 16q14 3 26 -1.5t15 -15.5q8 -39 17.5 -79.5t21 -79.5t25 -74t28.5 -63q3 -5 8 -5.5
t10 -0.5q7 1 12 5.5t9 20.5q7 34 13 70t10 70.5t6.5 65.5t4.5 56q1 9 7.5 11.5t16.5 2.5q8 1 16 -1t10 -10q14 -71 33.5 -141.5t37.5 -121.5q7 -20 12.5 -27.5t15.5 -6.5q8 0 12 5.5t9 19.5q22 67 32.5 129.5t17.5 134.5q1 14 13.5 17t25.5 0q16 -4 21.5 -11t5.5 -19
q-3 -56 -10.5 -110.5t-19.5 -102t-27 -85.5t-32 -60q-7 -9 -21 -10.5t-28 -0.5q-19 1 -27 4.5t-15 11.5q-22 27 -38.5 69.5t-25.5 86.5z" />
    <glyph glyph-name="x" unicode="x" horiz-adv-x="466" 
d="M44 142q27 25 55 55t51 59q11 14 10 22.5t-9 19.5q-26 35 -56.5 78t-54.5 80q-8 11 -2 22t14 17q13 11 28 10.5t21 -9.5q20 -31 43 -65t47 -68q12 -17 16 -23t9 -7q7 0 12 5t15 16q23 26 49.5 60.5t52.5 72.5q6 9 16.5 5.5t19.5 -10.5q12 -11 16 -20t-1 -22
q-18 -37 -44.5 -71.5t-56.5 -69.5q-9 -10 -12.5 -16t-3.5 -10.5t3.5 -9t8.5 -12.5q25 -38 47.5 -64t40.5 -46q19 -22 17.5 -33t-6.5 -18q-6 -9 -16 -13.5t-20 -3.5q-8 1 -16 6.5t-15 12.5q-35 35 -98 121q-9 12 -16 3q-25 -32 -53 -61t-54 -46q-9 -6 -24 -9t-28 6
q-13 10 -12.5 20.5t6.5 15.5z" />
    <glyph glyph-name="y" unicode="y" horiz-adv-x="472" 
d="M44 -40q-13 16 9 31q15 10 31.5 24.5t33.5 31.5t33 35t28 35q10 14 10 21.5t-15 26.5q-45 61 -79 128t-59 133q-6 21 -3 35t22 25q11 6 18.5 -2t13.5 -24q10 -26 25 -56.5t32.5 -61.5t36 -59t35.5 -50q19 -24 31 -5q40 66 60.5 122t30.5 95q5 23 12.5 32.5t26.5 2.5
q28 -11 34 -33t-2 -52q-14 -51 -41 -110.5t-63 -117t-79.5 -109t-91.5 -85.5q-63 -45 -90 -13z" />
    <glyph glyph-name="z" unicode="z" horiz-adv-x="478" 
d="M76 113q-9 3 -17 8t-8 17q0 9 1 17t11 17q51 54 91 98.5t76 92.5q31 40 29 52.5t-34 14.5q-31 2 -62 2t-60 -3q-31 -3 -47 0.5t-20 26.5q-2 11 3 18.5t16 9.5q57 13 120.5 18.5t129.5 4.5q17 -1 30 -7t16 -22q5 -24 3 -40t-9 -27q-36 -63 -81 -116t-95 -105
q-14 -14 -8 -22t42 -7q50 3 97.5 10.5t95.5 24.5q11 5 20 -0.5t12 -21.5q3 -15 -8 -23.5t-19 -13.5q-26 -14 -66.5 -23t-83.5 -14q-44 -5 -90.5 -3t-84.5 16z" />
    <glyph glyph-name="braceleft" unicode="{" horiz-adv-x="340" 
d="M173 216q-2 14 -8 26t-13 20q-9 12 -23 20.5t-27 16t-22 14t-9 13.5q0 13 12.5 21t28 16.5t30 19t19.5 27.5q11 42 14.5 83.5t3.5 89.5q0 16 6.5 29t16.5 22.5t22.5 15t24.5 7.5q6 1 10 1t8 -5q2 -4 -4 -10q-10 -8 -15 -20.5t-7.5 -27.5t-3 -31.5t-0.5 -31.5
q-2 -44 -4 -76.5t-9 -55.5t-20.5 -38t-38.5 -25q25 -13 40 -29.5t23 -45t11 -74t3 -115.5q0 -29 12 -45.5t30 -25.5q10 -5 7 -13t-20 -8q-15 0 -32.5 8t-28.5 28q-10 19 -16 46.5t-10 56t-6.5 54t-4.5 42.5z" />
    <glyph glyph-name="bar" unicode="|" horiz-adv-x="281" 
d="M78 8q6 59 9.5 134t3.5 157t-2 166.5t-6 164.5q-1 35 36 33q20 -1 23 -11.5t5 -27.5q8 -61 11.5 -135t3.5 -153q0 -75 -5 -148.5t-19 -139.5q-5 -24 -9 -38.5t-8.5 -22t-10 -9t-14.5 1.5q-21 7 -18 28z" />
    <glyph glyph-name="braceright" unicode="}" horiz-adv-x="340" 
d="M165 201q-1 -17 -3 -41t-6.5 -50.5t-11 -52.5t-16.5 -45q-11 -20 -28.5 -28t-32.5 -8q-17 0 -20 8t7 13q23 11 32.5 26.5t9.5 44.5q0 70 2.5 112.5t11 68t23.5 39t40 26.5q-25 10 -38.5 28t-20.5 44.5t-9 61.5t-4 79q0 15 -0.5 31.5t-3 31.5t-7.5 27.5t-15 20.5
q-4 4 -5.5 6t2.5 7q6 8 18 4t24 -11t22 -17t16.5 -22t6.5 -27q0 -48 3.5 -94.5t14.5 -88.5q4 -14 14.5 -23.5t23.5 -16.5t25.5 -13t20.5 -13q6 -6 6 -18q0 -7 -8.5 -14t-21 -14.5t-26.5 -16.5t-25 -19q-8 -8 -14 -19.5t-7 -26.5z" />
    <glyph glyph-name="asciitilde" unicode="~" horiz-adv-x="469" 
d="M108 333q-12 0 -19.5 -5.5t-15.5 -13.5q-17 -17 -33 -6q-8 6 -9.5 13t-0.5 14q3 23 25.5 43.5t56.5 20.5q24 0 41 -14t34.5 -31t37 -31t47.5 -14q43 1 68 23.5t45 57.5q7 13 26 1q14 -10 12 -27.5t-17 -43.5q-27 -45 -66 -63.5t-82 -15.5q-28 2 -50 16.5t-40 31.5
t-32.5 30.5t-27.5 13.5z" />
    <glyph glyph-name="uni00A0" unicode="&#xa0;" horiz-adv-x="310" 
 />
    <glyph glyph-name="exclamdown" unicode="&#xa1;" horiz-adv-x="299" 
d="M95 -26q13 84 16 175t0 178q0 8 3.5 11t13.5 5q6 0 14 -4t13 -19q18 -59 26 -114.5t8 -124.5q0 -49 -4 -78.5t-12 -45.5q-7 -16 -18 -21t-24 -5q-24 0 -31.5 11t-4.5 32zM76 473q0 18 12 31.5t34 13.5q19 0 30 -14.5t12 -30.5q0 -18 -9.5 -34.5t-30.5 -16.5
q-26 -1 -37 14t-11 37z" />
    <glyph glyph-name="cent" unicode="&#xa2;" horiz-adv-x="416" 
d="M339 545q-6 -32 -18 -63q26 -18 20 -41q-3 -12 -10.5 -15.5t-28.5 2.5q-24 -63 -52.5 -122t-58.5 -108q16 -11 35 -15t38 -3t36.5 5.5t32.5 10.5q9 4 18 1.5t12 -13.5q4 -27 -17 -44t-43 -21q-15 -3 -35 -5t-41 -0.5t-42 6t-39 13.5q-18 -22 -34.5 -39t-31.5 -28
q-14 -10 -25 -12t-22 9q-7 7 -1 17q15 21 31 43.5t31 46.5q-27 28 -36 60.5t-9 61.5q-2 39 13 79t52 73q25 23 62.5 37.5t75.5 15.5q14 36 26 75q3 9 12 10t21 -2q16 -6 23 -13.5t5 -21.5zM176 393q-21 -18 -32 -48t-8 -62q0 -16 7 -30q21 40 41 82t38 84q-29 -10 -46 -26z
" />
    <glyph glyph-name="sterling" unicode="&#xa3;" horiz-adv-x="515" 
d="M93 131q17 32 23 68.5t6 87.5q0 14 -8 14q-10 -2 -20.5 -2.5t-22.5 -0.5q-40 0 -40 31q0 7 2.5 11t14.5 6q10 1 23.5 3.5t25.5 5.5q14 3 20.5 7.5t5.5 17.5q-2 9 -3.5 21.5t-3.5 25.5q-2 14 -3 28.5t-1 28.5q0 70 29 107q30 36 115 36q27 0 48 -2.5t35 -5.5q22 -6 27 -12
t2 -19q-3 -14 -14 -21t-27 -4q-12 1 -31 3t-34 2q-54 0 -70 -27q-15 -26 -15 -62q0 -15 1 -33.5t4 -35.5q3 -28 6.5 -34t12.5 -6q21 0 51 6q14 2 30 5.5t31 6.5q29 6 29 -25q0 -17 -14 -27t-34 -16t-42.5 -9t-40.5 -5q-15 -3 -19 -6.5t-4 -12.5q0 -32 -1 -65t-8 -60
q-3 -10 50 -10q57 0 102.5 7.5t97.5 22.5q10 3 18.5 2t11.5 -11q4 -18 -3 -29t-22 -17q-48 -20 -111 -29.5t-121 -10.5q-17 -1 -36.5 -1t-37.5 3q-17 2 -28.5 6.5t-11.5 13.5q0 12 5 22z" />
    <glyph glyph-name="currency" unicode="&#xa4;" horiz-adv-x="498" 
d="M53 290q-2 38 9.5 70.5t30.5 58.5q-6 10 -12.5 19t-11.5 18q-8 11 -2 22t14 17q13 11 28 10.5t21 -9.5q4 -7 8 -13.5t9 -13.5q28 18 59 21q49 5 83.5 -7t57.5 -35l27 39q6 9 16.5 5.5t19.5 -10.5q12 -11 16 -20t-1 -22q-16 -31 -39 -64q10 -37 12 -82q2 -35 -4 -64.5
t-17 -54.5q16 -20 31 -34q19 -22 17.5 -33t-6.5 -18q-6 -9 -16 -13.5t-20 -3.5q-8 1 -16 6.5t-15 12.5l-10.5 10.5t-11.5 12.5q-37 -31 -92 -36q-29 -2 -50 1t-41 14q-12 7 -18 13q-24 -16 -37 -18t-25 7q-6 5 -7 11.5t1 13.5t5.5 12.5t6.5 8.5l6.5 6.5t7.5 6.5
q-35 59 -34 135zM234 149q44 5 66.5 37.5t24.5 91.5q-1 43 -9 71.5t-22.5 44t-35 21t-44.5 2.5q-22 -3 -38.5 -16.5t-27 -33t-15.5 -43t-4 -45.5q5 -72 34 -103.5t71 -26.5z" />
    <glyph glyph-name="yen" unicode="&#xa5;" horiz-adv-x="498" 
d="M267 201q-1 -23 -0.5 -45.5t1.5 -42.5q1 -15 -10 -21t-25 -6q-21 0 -27.5 11t-7.5 37q-2 39 0 72q0 6 -2 7.5t-12 1.5q-29 -1 -55.5 1t-52.5 6q-24 3 -31.5 11.5t-7.5 22.5q0 18 19 17q54 -3 131 -3q8 0 10.5 1.5t2.5 6.5v29q0 6 -10 6q-31 1 -56.5 2.5t-52.5 4.5
q-24 4 -34 14t-10 21q0 8 5 13.5t20 3.5q25 -2 48.5 -3t59.5 -1q11 0 12.5 4.5t-5.5 11.5q-36 36 -62 69.5t-50 65.5q-16 21 -25 36t-9 26q0 13 11.5 23.5t22.5 10.5q10 0 19 -10.5t14 -17.5q29 -41 59.5 -82.5t62.5 -73.5q17 -18 25.5 -16t29.5 28q29 37 57 77.5t53 84.5
q6 10 11 16t11 6q17 0 26 -13t9 -27t-13 -41t-47 -73q-17 -23 -37 -45.5t-44 -47.5q-10 -11 8 -11q53 0 109 3q24 1 24 -15q0 -8 -3 -16.5t-20 -12.5q-54 -12 -138 -15q-11 0 -12 -11l-2 -25q-1 -4 1 -7t10 -3q38 -2 74.5 0.5t74.5 6.5q25 3 25 -16q0 -14 -4 -20t-12 -8
q-31 -8 -71 -11.5t-88 -4.5q-5 0 -7.5 -2.5t-2.5 -10.5z" />
    <glyph glyph-name="brokenbar" unicode="&#xa6;" horiz-adv-x="810" 
d="M343 395q6 63 6 128t-5 119q-1 12 5.5 19.5t24.5 8.5q17 0 29 -5t14 -19q4 -25 5.5 -54.5t1.5 -61t-2.5 -63t-7.5 -59.5q-4 -20 -15.5 -30t-27.5 -8q-20 1 -24.5 7.5t-3.5 17.5zM343 -7q6 63 6 128t-5 119q-1 12 5.5 19.5t24.5 8.5q17 0 29 -5t14 -19q4 -25 5.5 -54.5
t1.5 -61t-2.5 -63t-7.5 -59.5q-4 -20 -15.5 -30t-27.5 -8q-20 1 -24.5 7.5t-3.5 17.5z" />
    <glyph glyph-name="section" unicode="&#xa7;" horiz-adv-x="417" 
d="M346 318q0 -34 -13 -57.5t-36 -39.5q22 -15 35 -37.5t13 -51.5q0 -30 -11 -52.5t-30.5 -38.5t-46 -24t-56.5 -8q-42 0 -80 13.5t-63 31.5q-13 11 -13 24t5 21q8 11 20 15t26 -6q19 -13 43 -23.5t65 -10.5q31 0 52.5 14t21.5 40q0 14 -8 25t-21 19.5t-29.5 14t-32.5 8.5
q-26 3 -50 12t-43 23t-30 33.5t-11 44.5q0 64 55 95q-24 13 -39 34.5t-15 56.5q0 51 39 83t99 32q44 0 73.5 -9t49.5 -22h-1q15 -10 16.5 -22.5t-5.5 -22.5l1 1q-5 -10 -17.5 -14t-26.5 4q-20 9 -39.5 14.5t-51.5 5.5q-37 0 -53.5 -14t-16.5 -36q0 -29 25.5 -38.5
t70.5 -16.5q24 -5 47 -14t41.5 -23.5t29.5 -35t11 -48.5zM278 313q0 23 -21.5 39t-57.5 16q-35 0 -57 -16t-22 -39t22 -39t57 -16q36 0 57.5 16t21.5 39z" />
    <glyph glyph-name="dieresis" unicode="&#xa8;" horiz-adv-x="406" 
d="M41 604q0 19 11.5 32.5t36.5 13.5q16 0 28 -13.5t12 -32.5q0 -22 -10.5 -35t-31.5 -13q-26 0 -36 14.5t-10 33.5zM260 604q0 20 9 33t34 13q24 0 34.5 -12.5t10.5 -29.5q0 -23 -9.5 -37.5t-32.5 -14.5q-26 0 -36 15.5t-10 32.5z" />
    <glyph glyph-name="copyright" unicode="&#xa9;" horiz-adv-x="810" 
d="M348 221q-29 12 -47 28t-28 33.5t-14 35.5t-5 35q-1 33 10 61.5t30.5 50t46.5 35.5t58 18q22 3 41 0t30 -9q8 -4 11 -12t2 -17q0 -11 -6.5 -17.5t-26.5 -5.5q-36 2 -57.5 -5.5t-36.5 -21.5q-17 -14 -24.5 -35.5t-5.5 -47.5q2 -23 10.5 -35t22.5 -22q12 -8 27.5 -12
t32.5 -4.5t33 2.5t29 9q7 3 13.5 0t9.5 -13q6 -21 -7.5 -35t-39.5 -20q-25 -6 -55 -5.5t-54 9.5zM399 660q47 0 84 -7t66 -19t51.5 -28.5t39.5 -35.5q31 -34 46.5 -88t13.5 -113q0 -35 -7.5 -70t-22 -66.5t-35.5 -58t-48 -45.5q-52 -35 -108 -47.5t-113 -12.5
q-50 0 -92.5 11.5t-71.5 27.5q-33 18 -58 45t-41 59t-24 67t-8 70q0 69 21.5 126t63 98.5t102.5 64t141 22.5zM372 113q68 0 120 18t87.5 51t54 79.5t18.5 103.5q0 62 -19 108.5t-52 77.5t-78 47t-97 17q-66 1 -118.5 -18t-88.5 -54t-55.5 -84.5t-19.5 -109.5
q0 -52 18 -95.5t51 -74.5t78.5 -48.5t100.5 -17.5z" />
    <glyph glyph-name="ordfeminine" unicode="&#xaa;" horiz-adv-x="404" 
d="M271 439q-10 0 -17.5 2.5t-8.5 8.5q-2 10 -2 17q0 3 -2 1q-11 -10 -30 -13.5t-41 -5.5q-26 0 -46.5 5.5t-34.5 17.5t-19 30.5t1 44.5q8 33 31.5 46.5t49.5 16.5q48 5 91 -7q5 11 7 20t-1 20q-10 35 -62 35q-17 0 -31.5 -3t-26.5 -8q-8 -3 -18 -1t-16 9q-8 10 -8 22.5
t5 15.5q20 13 46 19.5t50 6.5q29 0 61 -9.5t49 -30.5q7 -9 9 -24t3 -28q1 -24 -1 -49t-4 -49t-3.5 -46.5t0.5 -41.5q1 -10 -8 -15.5t-23 -6.5zM95 330q-19 5 -26.5 11.5t-7.5 20.5q0 11 5.5 17t13.5 5q54 -5 119.5 -5t137.5 6q20 2 19 -20q-1 -9 -4.5 -10.5t-10.5 -6.5
q-18 -14 -52 -18.5t-76 -5.5h-65t-53 6zM220 500q10 2 14 7.5t6 13.5q3 13 3 25q0 13 -8 16q-19 5 -40.5 6t-41.5 -5q-25 -8 -28 -34q-1 -28 18 -31q21 -3 39.5 -3t37.5 5z" />
    <glyph glyph-name="guillemotleft" unicode="&#xab;" horiz-adv-x="541" 
d="M246 187q-42 9 -85.5 36.5t-73.5 63.5q-18 22 -17 43t15 28q46 21 88 50.5t74 61.5q4 4 11 4.5t13 -6.5q19 -23 -7 -52q-20 -20 -51 -44t-63 -43q-11 -6 -11 -8t7 -8q28 -26 66.5 -48.5t77.5 -36.5q10 -4 7 -17q-5 -18 -20 -23t-31 -1zM438 187q-42 9 -85.5 36.5
t-73.5 63.5q-18 22 -17 43t15 28q46 21 88 50.5t74 61.5q4 4 11 4.5t13 -6.5q19 -23 -7 -52q-20 -20 -51 -44t-63 -43q-11 -6 -11 -8t7 -8q28 -26 66.5 -48.5t77.5 -36.5q10 -4 7 -17q-5 -18 -20 -23t-31 -1z" />
    <glyph glyph-name="logicalnot" unicode="&#xac;" horiz-adv-x="700" 
d="M529 185q8 32 11.5 69t0.5 75q-2 15 -5.5 23t-9.5 12.5t-14.5 5.5t-20.5 2q-40 2 -84.5 3.5t-90 2t-89.5 0.5t-83 -1q-19 0 -33.5 1t-24.5 5q-11 5 -17.5 17.5t-6.5 26.5q0 12 3 16.5t14 5.5q104 8 226 8t257 -12q31 -3 40.5 -13.5t12.5 -36.5q2 -20 2 -52.5t-5 -65.5
t-16 -62t-30 -43q-13 -8 -28 -4q-9 3 -10 6t1 11z" />
    <glyph glyph-name="uni00AD" unicode="&#xad;" horiz-adv-x="414" 
d="M133 303q-15 0 -34 2t-34 7q-19 5 -26.5 16t-7.5 26q0 10 5 16t14 6q26 -3 64 -4.5t80 -1.5t84.5 2t78.5 5q9 0 14 -4.5t5 -15.5q-2 -15 -11.5 -24t-22.5 -14q-13 -6 -27 -8t-24 -3q-30 -4 -77.5 -6t-80.5 1z" />
    <glyph glyph-name="registered" unicode="&#xae;" horiz-adv-x="810" 
d="M399 659q93 0 149.5 -25.5t91.5 -64.5q30 -34 46 -88.5t14 -112.5q0 -71 -29.5 -136.5t-83.5 -103.5q-52 -36 -108.5 -48t-112.5 -12q-50 0 -92.5 11.5t-71.5 27.5q-67 36 -99 103.5t-32 137.5q0 69 21 126t63 98t103 64t141 23zM445 407q8 7 11 15.5t3 15.5q0 26 -10 36
t-29 16q-17 5 -40 5.5t-40 -2.5q-10 -2 -15 -7t-5 -20v-48q0 -13 5.5 -21t18.5 -8q36 0 62 3.5t39 14.5zM257 476q1 45 22 60.5t81 15.5q31 0 58.5 -4t48.5 -14q20 -11 32 -31t12 -52q0 -27 -8 -47.5t-29 -35.5q-8 -6 -8.5 -8.5t2.5 -8.5q15 -31 35 -60.5t44 -56.5
q6 -10 5.5 -17t-8.5 -14q-12 -9 -26 -11t-22 6q-24 24 -46 52.5t-36 55.5q-5 9 -8 15t-6 9t-6 4.5t-8 1.5t-9.5 -0.5t-9.5 -1.5q-4 0 -9 -1t-9 -1q-12 -3 -14.5 -7.5t-2.5 -15.5q-2 -23 -2.5 -46.5t-0.5 -38.5q0 -18 -7 -26t-19 -8t-23.5 4.5t-14.5 26.5q-5 69 -7.5 132
t-0.5 123zM372 112q135 0 207.5 68.5t72.5 183.5q0 61 -19.5 107.5t-52.5 78.5q-33 31 -78 47t-96 17q-66 0 -118.5 -19t-88.5 -54q-37 -35 -56 -84t-19 -109q0 -53 18 -96t50 -75q33 -31 78.5 -48t101.5 -17z" />
    <glyph glyph-name="macron" unicode="&#xaf;" horiz-adv-x="414" 
d="M133 623q-15 0 -34 2t-34 7q-19 5 -26.5 16t-7.5 26q0 10 5 16t14 6q26 -3 64 -4.5t80 -1.5t84.5 2t78.5 5q9 0 14 -4.5t5 -15.5q-2 -15 -11.5 -24t-22.5 -14q-13 -6 -27 -8t-24 -3q-30 -4 -77.5 -6t-80.5 1z" />
    <glyph glyph-name="degree" unicode="&#xb0;" 
d="M76 586q-1 21 7 40.5t22 34t33.5 23t41.5 8.5q62 0 88 -28.5t28 -75.5q3 -49 -26 -79.5t-79 -33.5q-37 -3 -60 8q-30 16 -43 42.5t-12 60.5zM186 519q26 0 40 16.5t14 45.5q0 38 -13.5 52t-34.5 14q-36 0 -51.5 -20t-15.5 -46q0 -29 19 -45.5t42 -16.5z" />
    <glyph glyph-name="plusminus" unicode="&#xb1;" horiz-adv-x="370" 
d="M147 329q-1 11 -2 17.5t-2 9.5q-2 3 -5 3.5t-8 0.5q-14 -1 -33 -1.5t-33 2.5q-19 3 -26.5 15.5t-7.5 30.5q0 8 5 12.5t14 4.5q18 -1 38.5 -1t34.5 2q11 1 16.5 3t7.5 10q1 9 2 19t1 20v45q-1 12 5.5 16.5t15.5 4.5q15 0 27 -5t13 -25v-67q-1 -13 4.5 -16t16.5 -3
q15 -2 35.5 -2.5t39.5 0.5q13 0 17 -11t1 -22q-3 -9 -10.5 -14.5t-22.5 -9.5q-11 -3 -27.5 -4.5t-28.5 -1.5q-15 0 -18 -4t-3 -15q-1 -9 -2 -18.5t-2 -19.5q-1 -9 -2.5 -17t-2.5 -14q-6 -18 -15 -23.5t-29 -4.5q-10 0 -13.5 6t-2.5 12q2 21 2 35v30v0zM139 122q-15 0 -34 2
t-34 7q-19 5 -26.5 15t-7.5 25q0 10 5 15t14 5q53 -6 119 -5.5t138 6.5q9 0 14 -3.5t5 -14.5q-2 -15 -11.5 -24t-22.5 -13q-13 -5 -27 -7t-24 -3q-24 -3 -52.5 -4.5t-55.5 -0.5z" />
    <glyph glyph-name="uni00B2" unicode="&#xb2;" 
d="M236 558q-11 -31 -37.5 -58.5t-66.5 -52.5q36 -1 69.5 2.5t55.5 11.5q10 3 13.5 2t6.5 -7q4 -12 -0.5 -21.5t-15.5 -13.5q-35 -15 -89 -19.5t-103 4.5q-8 1 -9 6.5t-1 12.5q0 4 0.5 9t4.5 8q17 12 38 30t40 37q18 20 31.5 41t13.5 42q0 28 -13 40.5t-40 12.5
q-11 0 -20.5 -3t-16.5 -9q-6 -4 -11 -9l-11 -11q-8 -9 -14 -9.5t-11 4.5q-5 3 -8 7.5t-1 10.5q6 30 33.5 52t60.5 22q32 0 58 -10t42 -37q12 -22 9.5 -49.5t-8.5 -45.5z" />
    <glyph glyph-name="uni00B3" unicode="&#xb3;" 
d="M66 453q15 -6 33.5 -10t41.5 -3q41 0 53 13.5t9 38.5q-3 15 -16.5 24t-29.5 14q-9 2 -16.5 3t-15.5 1q-7 1 -14.5 1t-14.5 2q-5 0 -13.5 0.5t-12.5 3.5q-7 3 -8 9.5t-1 11.5q0 6 2.5 8.5t6.5 2.5h53q29 0 44.5 11.5t15.5 35.5q0 25 -14.5 32t-36.5 7q-12 0 -25.5 -4
t-28.5 -12q-11 -7 -20 -2.5t-15 13.5q-4 4 -2 9t8 10q17 15 42.5 23.5t46.5 8.5q43 0 72 -20t29 -61q0 -17 -8.5 -35.5t-32.5 -29.5q22 -12 39 -27.5t17 -43.5q0 -49 -30.5 -70t-85.5 -19q-26 0 -48 4.5t-38 14.5q-8 4 -7 13.5t5 15.5q3 5 7 6.5t9 -0.5z" />
    <glyph glyph-name="acute" unicode="&#xb4;" horiz-adv-x="191" 
d="M34 469q-6 6 1 18q19 31 34 64.5t26 68.5q2 8 10.5 8t15.5 -2q17 -6 25 -18t-3 -40q-8 -23 -28.5 -54t-57.5 -48q-15 -7 -23 3z" />
    <glyph glyph-name="mu" unicode="&#xb5;" horiz-adv-x="526" 
d="M63 -37q15 128 18.5 246.5t-1.5 233.5q-1 20 3.5 33.5t24.5 12.5q28 -2 34.5 -14.5t8.5 -37.5q3 -48 4.5 -98.5t-0.5 -92.5q-1 -21 -0.5 -34.5t3.5 -22t9.5 -13t17.5 -8.5q33 -11 62.5 -12t53.5 5q16 4 28 12t16 36q2 18 3 45.5t1 60t-1.5 66.5t-3.5 65q-2 23 3.5 30.5
t22.5 7.5q23 0 33 -7.5t12 -24.5q3 -21 3 -47.5t-1 -56t-2 -61t0 -62.5q1 -39 3 -66t7 -45q4 -13 -2 -19.5t-18 -10.5q-14 -5 -26.5 -1.5t-20.5 17.5q-3 5 -5 10t-4 12q-15 -19 -42.5 -26t-58 -6t-59 7.5t-44.5 15.5q-2 -38 -6 -78t-15 -66q-13 -32 -33 -31t-25 7.5t-3 17.5
z" />
    <glyph glyph-name="paragraph" unicode="&#xb6;" horiz-adv-x="534" 
d="M348 18q7 125 6.5 246t-6.5 250q-1 13 -2.5 15.5t-14.5 2.5h-22q6 -137 9 -268t-9 -270q-3 -29 -29 -29q-7 0 -14.5 2t-13.5 7.5t-10 14t-3 21.5q8 133 0 267q-32 0 -64 10t-58 31t-42 53t-16 76q0 43 16.5 74t45.5 51.5t69.5 30.5t87.5 10q35 0 60.5 -4.5t42 -17
t25.5 -34t11 -54.5q8 -123 8 -254t-8 -255q-1 -15 -14.5 -22t-27.5 -7q-9 0 -19 13.5t-8 39.5z" />
    <glyph glyph-name="periodcentered" unicode="&#xb7;" horiz-adv-x="810" 
d="M357 265q0 19 11.5 33t36.5 13q9 -1 17.5 -5.5t14.5 -10.5q5 -6 6.5 -14t1.5 -16q-3 -18 -12 -33t-30 -15q-26 0 -36 14.5t-10 33.5z" />
    <glyph glyph-name="cedilla" unicode="&#xb8;" 
d="M211 61q32 -10 47 -29.5t15 -42.5q0 -41 -30.5 -61.5t-82.5 -20.5q-24 0 -36 3q-10 3 -15 11.5t-3 18.5q1 10 8.5 17.5t21.5 5.5q7 -2 11.5 -2h9.5q18 0 35.5 5.5t17.5 22.5q0 14 -19 24t-37 12q-14 2 -18 10t3 21l21 39q5 8 14 14.5t25 1.5q15 -5 20 -15.5t-1 -21.5z
" />
    <glyph glyph-name="uni00B9" unicode="&#xb9;" 
d="M184 692q6 -63 4 -133.5t-22 -140.5q-2 -8 -6 -16t-8 -12q-7 -7 -17 -8.5t-16 0.5q-5 2 -7.5 4t-0.5 8q11 52 15 111.5t-1 119.5q0 4 -4 4q-12 -3 -30.5 -5.5t-33.5 -2.5q-6 0 -9.5 5t-4.5 9q-2 8 -0.5 11.5t5.5 5.5q24 11 45 23t35 23q5 3 10 5.5t11 2.5q16 0 25 -2.5
t10 -11.5z" />
    <glyph glyph-name="ordmasculine" unicode="&#xba;" horiz-adv-x="404" 
d="M69 586q0 66 36.5 102t88.5 36q33 0 55 -11t35.5 -30.5t19.5 -46.5t6 -58q0 -61 -30.5 -100.5t-81.5 -39.5q-32 0 -56 11.5t-40 31.5t-24.5 47t-8.5 58zM195 489q17 0 29 7.5t20 20t11.5 28.5t3.5 33q0 52 -17 70t-45 18q-37 0 -56 -24t-19 -59q0 -27 7 -45t18 -29
t23.5 -15.5t24.5 -4.5zM95 330q-20 3 -27 10.5t-7 21.5q0 22 19 22q26 -3 54.5 -4t60.5 -1q35 0 71 1t74 5q16 1 16 -20q0 -9 -9 -16t-23 -11q-47 -13 -110 -15.5t-119 7.5z" />
    <glyph glyph-name="guillemotright" unicode="&#xbb;" horiz-adv-x="541" 
d="M289 174q-28 -6 -41 2t-18 20q-6 16 7 21q18 6 40.5 15t44 21t41 26t31.5 29q7 11 -15 20q-35 14 -68 38t-53 49q-18 26 2 46q9 9 18 9t15 -6q16 -15 37 -30.5t44 -30t46 -26.5t43 -21q17 -8 20 -26t-19 -50q-12 -17 -33 -34t-45.5 -31.5t-50 -25.5t-46.5 -15zM98 174
q-28 -6 -41 2t-18 20q-6 16 7 21q18 6 40.5 15t44 21t41 26t31.5 29q7 11 -15 20q-35 14 -68 38t-53 49q-18 26 2 46q9 9 18 9t15 -6q16 -15 37 -30.5t44 -30t46 -26.5t43 -21q17 -8 20 -26t-19 -50q-12 -17 -33 -34t-45.5 -31.5t-50 -25.5t-46.5 -15z" />
    <glyph glyph-name="onequarter" unicode="&#xbc;" horiz-adv-x="810" 
d="M223 692q6 -63 4 -133.5t-22 -140.5q-2 -8 -6 -16t-8 -12q-7 -7 -17 -8.5t-16 0.5q-5 2 -7.5 4t-0.5 8q11 52 15 111.5t-1 119.5q0 4 -4 4q-12 -3 -30.5 -5.5t-33.5 -2.5q-6 0 -9.5 5t-4.5 9q-2 8 -0.5 11.5t5.5 5.5q24 11 45 23t35 23q5 3 10 5.5t11 2.5q16 0 25 -2.5
t10 -11.5zM486 610q-23 -89 -53.5 -169.5t-68 -150t-79.5 -125t-87 -93.5q-16 -14 -30 -15.5t-22 6.5q-4 4 -5 9t4 11q56 67 98.5 132t75.5 132t58.5 137t48.5 147q4 12 14.5 17.5t26.5 0.5q12 -4 18 -13t1 -26zM601 74q-9 -2 -26.5 -3.5t-37 -3t-37 -1.5t-26.5 3
q-21 3 -16 24q11 52 28 102.5t35 102.5q2 6 12 9.5t26 0.5q14 -3 8 -18q-16 -43 -27 -83t-19 -83q-2 -11 6 -12q14 -2 33.5 -1t33.5 4q18 4 18 26q1 20 0.5 37t-2.5 39q0 5 0.5 9t5.5 6q4 2 13.5 2.5t13.5 -0.5q5 -1 7.5 -3t3.5 -9q2 -23 3 -44t1 -45q0 -8 0.5 -9.5
t5.5 -0.5q14 2 27 6t21 8q8 5 11.5 4t5.5 -11q2 -12 -2 -19t-16 -13q-7 -5 -21 -8.5t-24 -5.5q-6 -2 -6 -11q0 -14 -1.5 -28t-3.5 -25q-5 -38 -36 -38q-4 0 -6.5 1.5t-2.5 7.5q1 19 1.5 37.5t-1.5 38.5q-1 3 -2.5 6t-6.5 1z" />
    <glyph glyph-name="onehalf" unicode="&#xbd;" horiz-adv-x="810" 
d="M223 692q6 -63 4 -133.5t-22 -140.5q-2 -8 -6 -16t-8 -12q-7 -7 -17 -8.5t-16 0.5q-5 2 -7.5 4t-0.5 8q11 52 15 111.5t-1 119.5q0 4 -4 4q-12 -3 -30.5 -5.5t-33.5 -2.5q-6 0 -9.5 5t-4.5 9q-2 8 -0.5 11.5t5.5 5.5q24 11 45 23t35 23q5 3 10 5.5t11 2.5q16 0 25 -2.5
t10 -11.5zM486 610q-23 -89 -53.5 -169.5t-68 -150t-79.5 -125t-87 -93.5q-16 -14 -30 -15.5t-22 6.5q-4 4 -5 9t4 11q56 67 98.5 132t75.5 132t58.5 137t48.5 147q4 12 14.5 17.5t26.5 0.5q12 -4 18 -13t1 -26zM668 153q-11 -31 -37.5 -58.5t-66.5 -52.5q36 -1 69.5 2.5
t55.5 11.5q10 3 13.5 2t6.5 -7q4 -12 -0.5 -21.5t-15.5 -13.5q-35 -15 -89 -19.5t-103 4.5q-8 1 -9 6.5t-1 12.5q0 4 0.5 9t4.5 8q17 12 38 30t40 37q18 20 31.5 41t13.5 42q0 28 -13 40.5t-40 12.5q-11 0 -20.5 -3t-16.5 -9q-6 -4 -11 -9l-11 -11q-8 -9 -14 -9.5t-11 4.5
q-5 3 -8 7.5t-1 10.5q6 30 33.5 52t60.5 22q32 0 58 -10t42 -37q12 -22 9.5 -49.5t-8.5 -45.5z" />
    <glyph glyph-name="threequarters" unicode="&#xbe;" horiz-adv-x="810" 
d="M76 453q15 -6 33.5 -10t41.5 -3q41 0 53 13.5t9 38.5q-3 15 -16.5 24t-29.5 14q-9 2 -16.5 3t-15.5 1q-7 1 -14.5 1t-14.5 2q-5 0 -13.5 0.5t-12.5 3.5q-7 3 -8 9.5t-1 11.5q0 6 2.5 8.5t6.5 2.5h53q29 0 44.5 11.5t15.5 35.5q0 25 -14.5 32t-36.5 7q-12 0 -25.5 -4
t-28.5 -12q-11 -7 -20 -2.5t-15 13.5q-4 4 -2 9t8 10q17 15 42.5 23.5t46.5 8.5q43 0 72 -20t29 -61q0 -17 -8.5 -35.5t-32.5 -29.5q22 -12 39 -27.5t17 -43.5q0 -49 -30.5 -70t-85.5 -19q-26 0 -48 4.5t-38 14.5q-8 4 -7 13.5t5 15.5q3 5 7 6.5t9 -0.5zM486 610
q-23 -89 -53.5 -169.5t-68 -150t-79.5 -125t-87 -93.5q-16 -14 -30 -15.5t-22 6.5q-4 4 -5 9t4 11q56 67 98.5 132t75.5 132t58.5 137t48.5 147q4 12 14.5 17.5t26.5 0.5q12 -4 18 -13t1 -26zM601 74q-9 -2 -26.5 -3.5t-37 -3t-37 -1.5t-26.5 3q-21 3 -16 24q11 52 28 102.5
t35 102.5q2 6 12 9.5t26 0.5q14 -3 8 -18q-16 -43 -27 -83t-19 -83q-2 -11 6 -12q14 -2 33.5 -1t33.5 4q18 4 18 26q1 20 0.5 37t-2.5 39q0 5 0.5 9t5.5 6q4 2 13.5 2.5t13.5 -0.5q5 -1 7.5 -3t3.5 -9q2 -23 3 -44t1 -45q0 -8 0.5 -9.5t5.5 -0.5q14 2 27 6t21 8q8 5 11.5 4
t5.5 -11q2 -12 -2 -19t-16 -13q-7 -5 -21 -8.5t-24 -5.5q-6 -2 -6 -11q0 -14 -1.5 -28t-3.5 -25q-5 -38 -36 -38q-4 0 -6.5 1.5t-2.5 7.5q1 19 1.5 37.5t-1.5 38.5q-1 3 -2.5 6t-6.5 1z" />
    <glyph glyph-name="questiondown" unicode="&#xbf;" horiz-adv-x="431" 
d="M286 269q-2 -23 -7.5 -35.5t-19.5 -18.5q-28 -14 -50 -25.5t-38 -23.5q-24 -18 -35.5 -40t-11.5 -55q0 -29 20.5 -52t56.5 -23q34 0 66 13.5t55 30.5q5 3 11 4t12 -4q6 -6 9.5 -11t0.5 -12q-14 -32 -57 -59.5t-102 -22.5q-66 4 -103.5 44t-37.5 94q-2 66 32.5 107.5
t98.5 68.5q18 8 26 14.5t11 20.5q1 7 1.5 26.5t0.5 28.5q0 15 5.5 21.5t17.5 6.5q22 0 28.5 -6.5t7.5 -18.5q2 -19 2 -40v-33zM210 473q0 17 11 29.5t31 12.5q18 0 28 -13.5t11 -28.5q0 -17 -9 -32t-28 -15q-24 -1 -34 12.5t-10 34.5z" />
    <glyph glyph-name="Agrave" unicode="&#xc0;" horiz-adv-x="522" 
d="M351 137q-5 23 -10 50t-10 42q-3 9 -8 12.5t-13 4.5q-16 2 -34.5 3t-38.5 1q-36 0 -64 -3q-9 -1 -13.5 -4.5t-6.5 -8.5q-7 -27 -15 -57t-19 -53q-10 -18 -22 -28.5t-29 -10.5q-29 0 -29 21q0 7 3 18q18 59 36.5 123.5t36 129t33 125t27.5 110.5q4 17 16 25.5t35 8.5
q30 0 59 -11t43 -43q13 -34 29 -91t31 -122t28 -130t21 -113q5 -32 -2.5 -39.5t-28.5 -7.5q-18 0 -33.5 11.5t-21.5 36.5zM320 335q0 22 -3.5 48t-8.5 52.5t-12 52.5t-14 49q-6 18 -14 22.5t-20 4.5q-9 0 -17.5 -3t-10.5 -11q-6 -21 -13 -49t-13.5 -56.5t-12 -54t-7.5 -42.5
q-3 -22 17 -27q22 -5 47 -6.5t50 -1.5q18 0 25 5t7 17zM253 710q-5 -5 -8 -5.5t-6 0.5q-18 8 -32.5 20.5t-25 26.5t-18 28t-12.5 26q-11 26 -6.5 40t21.5 20q7 3 15.5 3t10.5 -8q11 -35 26 -67.5t34 -66.5q2 -5 4 -8.5t-3 -8.5z" />
    <glyph glyph-name="Aacute" unicode="&#xc1;" horiz-adv-x="522" 
d="M351 137q-5 23 -10 50t-10 42q-3 9 -8 12.5t-13 4.5q-16 2 -34.5 3t-38.5 1q-36 0 -64 -3q-9 -1 -13.5 -4.5t-6.5 -8.5q-7 -27 -15 -57t-19 -53q-10 -18 -22 -28.5t-29 -10.5q-29 0 -29 21q0 7 3 18q18 59 36.5 123.5t36 129t33 125t27.5 110.5q4 17 16 25.5t35 8.5
q30 0 59 -11t43 -43q13 -34 29 -91t31 -122t28 -130t21 -113q5 -32 -2.5 -39.5t-28.5 -7.5q-18 0 -33.5 11.5t-21.5 36.5zM320 335q0 22 -3.5 48t-8.5 52.5t-12 52.5t-14 49q-6 18 -14 22.5t-20 4.5q-9 0 -17.5 -3t-10.5 -11q-6 -21 -13 -49t-13.5 -56.5t-12 -54t-7.5 -42.5
q-3 -22 17 -27q22 -5 47 -6.5t50 -1.5q18 0 25 5t7 17zM220 708q-6 6 1 18q19 31 34 64.5t26 68.5q2 8 10.5 8t15.5 -2q17 -6 25 -18t-3 -40q-8 -23 -28.5 -54t-57.5 -48q-15 -7 -23 3z" />
    <glyph glyph-name="Acircumflex" unicode="&#xc2;" horiz-adv-x="522" 
d="M351 137q-5 23 -10 50t-10 42q-3 9 -8 12.5t-13 4.5q-16 2 -34.5 3t-38.5 1q-36 0 -64 -3q-9 -1 -13.5 -4.5t-6.5 -8.5q-7 -27 -15 -57t-19 -53q-10 -18 -22 -28.5t-29 -10.5q-29 0 -29 21q0 7 3 18q18 59 36.5 123.5t36 129t33 125t27.5 110.5q4 17 16 25.5t35 8.5
q30 0 59 -11t43 -43q13 -34 29 -91t31 -122t28 -130t21 -113q5 -32 -2.5 -39.5t-28.5 -7.5q-18 0 -33.5 11.5t-21.5 36.5zM320 335q0 22 -3.5 48t-8.5 52.5t-12 52.5t-14 49q-6 18 -14 22.5t-20 4.5q-9 0 -17.5 -3t-10.5 -11q-6 -21 -13 -49t-13.5 -56.5t-12 -54t-7.5 -42.5
q-3 -22 17 -27q22 -5 47 -6.5t50 -1.5q18 0 25 5t7 17zM276 853q26 -40 50 -70.5t49 -56.5q10 -10 -4 -25q-8 -9 -16 -7.5t-22 11.5q-20 14 -43 37t-44 53q-4 5 -5.5 5t-6.5 -5q-17 -27 -32.5 -47.5t-37.5 -36.5q-20 -14 -40 -4q-10 5 -11.5 11t3.5 11q27 27 50 59.5
t43 65.5q5 8 12 12t20 4q24 0 35 -17z" />
    <glyph glyph-name="Atilde" unicode="&#xc3;" horiz-adv-x="522" 
d="M351 137q-5 23 -10 50t-10 42q-3 9 -8 12.5t-13 4.5q-16 2 -34.5 3t-38.5 1q-36 0 -64 -3q-9 -1 -13.5 -4.5t-6.5 -8.5q-7 -27 -15 -57t-19 -53q-10 -18 -22 -28.5t-29 -10.5q-29 0 -29 21q0 7 3 18q18 59 36.5 123.5t36 129t33 125t27.5 110.5q4 17 16 25.5t35 8.5
q30 0 59 -11t43 -43q13 -34 29 -91t31 -122t28 -130t21 -113q5 -32 -2.5 -39.5t-28.5 -7.5q-18 0 -33.5 11.5t-21.5 36.5zM320 335q0 22 -3.5 48t-8.5 52.5t-12 52.5t-14 49q-6 18 -14 22.5t-20 4.5q-9 0 -17.5 -3t-10.5 -11q-6 -21 -13 -49t-13.5 -56.5t-12 -54t-7.5 -42.5
q-3 -22 17 -27q22 -5 47 -6.5t50 -1.5q18 0 25 5t7 17zM129 718q-24 0 -15 36q6 24 11.5 43.5t14.5 33.5t22.5 22t34.5 8q16 0 28.5 -12t24 -27t23.5 -27t28 -12q20 0 37 19t29 51q4 11 19 4q15 -8 12 -28t-10.5 -40t-19.5 -36.5t-29.5 -26.5t-39.5 -10q-23 0 -42 14t-38 48
q-8 14 -21 14t-22 -13t-21 -47q-6 -14 -26 -14z" />
    <glyph glyph-name="Adieresis" unicode="&#xc4;" horiz-adv-x="522" 
d="M351 137q-5 23 -10 50t-10 42q-3 9 -8 12.5t-13 4.5q-16 2 -34.5 3t-38.5 1q-36 0 -64 -3q-9 -1 -13.5 -4.5t-6.5 -8.5q-7 -27 -15 -57t-19 -53q-10 -18 -22 -28.5t-29 -10.5q-29 0 -29 21q0 7 3 18q18 59 36.5 123.5t36 129t33 125t27.5 110.5q4 17 16 25.5t35 8.5
q30 0 59 -11t43 -43q13 -34 29 -91t31 -122t28 -130t21 -113q5 -32 -2.5 -39.5t-28.5 -7.5q-18 0 -33.5 11.5t-21.5 36.5zM320 335q0 22 -3.5 48t-8.5 52.5t-12 52.5t-14 49q-6 18 -14 22.5t-20 4.5q-9 0 -17.5 -3t-10.5 -11q-6 -21 -13 -49t-13.5 -56.5t-12 -54t-7.5 -42.5
q-3 -22 17 -27q22 -5 47 -6.5t50 -1.5q18 0 25 5t7 17zM92 774q0 19 11.5 32.5t36.5 13.5q16 0 28 -13.5t12 -32.5q0 -22 -10.5 -35t-31.5 -13q-26 0 -36 14.5t-10 33.5zM311 774q0 20 9 33t34 13q24 0 34.5 -12.5t10.5 -29.5q0 -23 -9.5 -37.5t-32.5 -14.5q-26 0 -36 15.5
t-10 32.5z" />
    <glyph glyph-name="Aring" unicode="&#xc5;" horiz-adv-x="522" 
d="M247 678q26 0 40 16.5t14 45.5q0 38 -13.5 52t-34.5 14q-36 0 -51.5 -20t-15.5 -46q0 -29 19 -45.5t42 -16.5zM296 314q19 2 22.5 7.5t1.5 22.5q-1 22 -5 49.5t-9.5 54.5t-12 51t-11.5 38t-10.5 19t-12.5 7q-11 2 -23.5 -0.5t-15.5 -12.5q-6 -21 -13 -49t-13.5 -56.5
t-12 -54t-7.5 -42.5q-3 -22 17 -27q8 -2 21.5 -3.5t29 -3t30 -1.5t24.5 1zM196 640q-33 17 -46.5 44t-12.5 61q-1 21 7 40.5t22 34t33.5 23t41.5 8.5q62 0 88 -28.5t28 -75.5q2 -43 -20 -71.5t-61 -37.5q17 -6 30.5 -17t21.5 -29q13 -34 29 -91t31 -122t28 -130t21 -113
q4 -26 1 -35t-17 -11q-22 -4 -42 6.5t-28 40.5q-5 23 -10 50t-10 42q-3 9 -8 12t-13 5q-8 1 -27 2t-40 1.5t-41 0t-29 -2.5q-16 -3 -20 -13q-7 -27 -15 -57t-19 -53q-12 -23 -28 -33t-39 -4q-9 3 -12 11.5t2 25.5q17 59 35.5 123.5t35.5 129t33 125t29 110.5q5 21 21 28z
" />
    <glyph glyph-name="AE" unicode="&#xc6;" horiz-adv-x="775" 
d="M341 536q-1 19 -12 24t-43 5q-29 0 -37 -7t-14 -24q-15 -42 -26 -82.5t-19 -88.5q-2 -11 2.5 -17t13.5 -8q34 -5 64 -6t65 -1q5 54 7 103.5t-1 101.5zM342 201q-6 29 -9 70q-38 3 -76.5 3.5t-77.5 -4.5q-9 0 -13.5 -3t-6.5 -8q-3 -13 -9.5 -30.5t-14 -36t-14.5 -35
t-13 -26.5q-12 -21 -28 -30.5t-39 -3.5q-9 2 -12.5 10.5t2.5 23.5q46 122 76 236.5t60 206.5q6 17 25.5 30t58.5 18q85 10 181 13t200 -2q12 0 19 -7.5t5 -24.5q-2 -18 -19 -27.5t-43 -9.5q-32 0 -68.5 -1.5t-66.5 -5.5q-17 -2 -24 -10.5t-9 -24.5q-2 -12 -2 -30.5t1 -34.5
q1 -14 5.5 -23.5t18.5 -9.5q37 0 83.5 2t91.5 8q18 3 24.5 -3t8.5 -23q2 -18 -8.5 -28t-32.5 -15q-28 -6 -59.5 -8.5t-63.5 -4.5q-26 -1 -40 -3t-21 -5.5t-9 -8.5t-3 -12q-3 -24 -2.5 -50t4.5 -48q5 -32 19 -44.5t43 -12.5q18 -1 41.5 0.5t48.5 4t49 6.5t43 9q12 2 19.5 2.5
t9.5 -13.5q3 -23 -6.5 -34.5t-24.5 -19.5q-16 -9 -36 -15t-42 -10.5t-43.5 -6.5t-40.5 -2q-41 0 -68.5 5.5t-45.5 18.5t-29 34.5t-17 53.5z" />
    <glyph glyph-name="Ccedilla" unicode="&#xc7;" horiz-adv-x="524" 
d="M206 110q-45 18 -72 46t-42.5 59.5t-21 63.5t-6.5 58q-2 50 19 104t63 93q29 27 65.5 45.5t75.5 26.5q52 12 98 3q23 -5 34 -13.5t6 -25.5t-15 -23.5t-36 -8.5q-60 -1 -100.5 -18t-69.5 -46q-25 -25 -38 -63t-11 -79q2 -43 16 -71t34 -46q21 -20 46 -29.5t52.5 -11.5
t55 1.5t53.5 9.5q17 4 28.5 -1t10.5 -25q-1 -25 -16.5 -37t-40.5 -20q-21 -6 -44 -9q3 -9 -2 -19l-7 -13q32 -10 47 -29.5t15 -42.5q0 -41 -30.5 -61.5t-82.5 -20.5q-24 0 -36 3q-10 3 -15 11.5t-3 18.5q1 10 8.5 17.5t21.5 5.5q7 -2 11.5 -2h9.5q18 0 35.5 5.5t17.5 22.5
q0 14 -19 24t-37 12q-14 2 -18 10t3 21l19 35q-46 3 -82 19z" />
    <glyph glyph-name="Egrave" unicode="&#xc8;" horiz-adv-x="546" 
d="M82 192q-14 86 -12.5 180t21.5 175q6 25 14 41t21.5 26.5t34.5 16t52 8.5q110 11 195 3q12 -1 19 -9t5 -26q-2 -20 -19 -30.5t-43 -10.5q-34 0 -81 -3.5t-85 -9.5q-17 -2 -24 -15t-10 -26q-3 -10 -5.5 -27.5t-4.5 -34.5q-1 -15 4.5 -25.5t19.5 -10.5q61 1 119 4t97 7
q18 2 24.5 -4t8.5 -24q2 -23 -8.5 -33t-32.5 -12q-42 -5 -87 -8t-77 -5q-26 -1 -40 -4t-21 -7.5t-9 -10.5t-3 -13q-3 -34 0 -63q2 -27 17.5 -35.5t46.5 -10.5q54 -3 111.5 1.5t111.5 20.5q12 4 19.5 3.5t9.5 -15.5q3 -25 -5.5 -39t-25.5 -19q-75 -24 -155.5 -26.5
t-157.5 14.5q-25 5 -33 19.5t-12 37.5zM303 710q-5 -5 -8 -5.5t-6 0.5q-18 8 -32.5 20.5t-25 26.5t-18 28t-12.5 26q-11 26 -6.5 40t21.5 20q7 3 15.5 3t10.5 -8q11 -35 26 -67.5t34 -66.5q2 -5 4 -8.5t-3 -8.5z" />
    <glyph glyph-name="Eacute" unicode="&#xc9;" horiz-adv-x="546" 
d="M82 192q-14 86 -12.5 180t21.5 175q6 25 14 41t21.5 26.5t34.5 16t52 8.5q110 11 195 3q12 -1 19 -9t5 -26q-2 -20 -19 -30.5t-43 -10.5q-34 0 -81 -3.5t-85 -9.5q-17 -2 -24 -15t-10 -26q-3 -10 -5.5 -27.5t-4.5 -34.5q-1 -15 4.5 -25.5t19.5 -10.5q61 1 119 4t97 7
q18 2 24.5 -4t8.5 -24q2 -23 -8.5 -33t-32.5 -12q-42 -5 -87 -8t-77 -5q-26 -1 -40 -4t-21 -7.5t-9 -10.5t-3 -13q-3 -34 0 -63q2 -27 17.5 -35.5t46.5 -10.5q54 -3 111.5 1.5t111.5 20.5q12 4 19.5 3.5t9.5 -15.5q3 -25 -5.5 -39t-25.5 -19q-75 -24 -155.5 -26.5
t-157.5 14.5q-25 5 -33 19.5t-12 37.5zM220 708q-6 6 1 18q19 31 34 64.5t26 68.5q2 8 10.5 8t15.5 -2q17 -6 25 -18t-3 -40q-8 -23 -28.5 -54t-57.5 -48q-15 -7 -23 3z" />
    <glyph glyph-name="Ecircumflex" unicode="&#xca;" horiz-adv-x="546" 
d="M82 192q-14 86 -12.5 180t21.5 175q6 25 14 41t21.5 26.5t34.5 16t52 8.5q110 11 195 3q12 -1 19 -9t5 -26q-2 -20 -19 -30.5t-43 -10.5q-34 0 -81 -3.5t-85 -9.5q-17 -2 -24 -15t-10 -26q-3 -10 -5.5 -27.5t-4.5 -34.5q-1 -15 4.5 -25.5t19.5 -10.5q61 1 119 4t97 7
q18 2 24.5 -4t8.5 -24q2 -23 -8.5 -33t-32.5 -12q-42 -5 -87 -8t-77 -5q-26 -1 -40 -4t-21 -7.5t-9 -10.5t-3 -13q-3 -34 0 -63q2 -27 17.5 -35.5t46.5 -10.5q54 -3 111.5 1.5t111.5 20.5q12 4 19.5 3.5t9.5 -15.5q3 -25 -5.5 -39t-25.5 -19q-75 -24 -155.5 -26.5
t-157.5 14.5q-25 5 -33 19.5t-12 37.5zM286 853q26 -40 50 -70.5t49 -56.5q10 -10 -4 -25q-8 -9 -16 -7.5t-22 11.5q-20 14 -43 37t-44 53q-4 5 -5.5 5t-6.5 -5q-17 -27 -32.5 -47.5t-37.5 -36.5q-20 -14 -40 -4q-10 5 -11.5 11t3.5 11q27 27 50 59.5t43 65.5q5 8 12 12
t20 4q24 0 35 -17z" />
    <glyph glyph-name="Edieresis" unicode="&#xcb;" horiz-adv-x="546" 
d="M82 192q-14 86 -12.5 180t21.5 175q6 25 14 41t21.5 26.5t34.5 16t52 8.5q110 11 195 3q12 -1 19 -9t5 -26q-2 -20 -19 -30.5t-43 -10.5q-34 0 -81 -3.5t-85 -9.5q-17 -2 -24 -15t-10 -26q-3 -10 -5.5 -27.5t-4.5 -34.5q-1 -15 4.5 -25.5t19.5 -10.5q61 1 119 4t97 7
q18 2 24.5 -4t8.5 -24q2 -23 -8.5 -33t-32.5 -12q-42 -5 -87 -8t-77 -5q-26 -1 -40 -4t-21 -7.5t-9 -10.5t-3 -13q-3 -34 0 -63q2 -27 17.5 -35.5t46.5 -10.5q54 -3 111.5 1.5t111.5 20.5q12 4 19.5 3.5t9.5 -15.5q3 -25 -5.5 -39t-25.5 -19q-75 -24 -155.5 -26.5
t-157.5 14.5q-25 5 -33 19.5t-12 37.5zM113 774q0 19 11.5 32.5t36.5 13.5q16 0 28 -13.5t12 -32.5q0 -22 -10.5 -35t-31.5 -13q-26 0 -36 14.5t-10 33.5zM332 774q0 20 9 33t34 13q24 0 34.5 -12.5t10.5 -29.5q0 -23 -9.5 -37.5t-32.5 -14.5q-26 0 -36 15.5t-10 32.5z" />
    <glyph glyph-name="Igrave" unicode="&#xcc;" horiz-adv-x="403" 
d="M32 141q1 16 8.5 18.5t24.5 3.5q12 1 26.5 1h30.5q23 0 25 21q5 77 6 164.5t1 164.5q0 17 -3 27.5t-22 11.5q-21 1 -37.5 2t-28.5 4q-30 9 -30 42q0 22 31 23q63 4 131 4.5t127 -4.5q19 -2 25 -7t5 -22q-1 -12 -5 -19t-15 -9q-21 -5 -40.5 -7.5t-40.5 -4.5
q-18 -1 -19 -26q-5 -86 -6 -171t-1 -171q0 -19 16 -20q46 -3 86 0q13 1 17 -4.5t3 -19.5q-1 -20 -10.5 -27.5t-26.5 -9.5q-59 -8 -117 -9.5t-117 1.5q-16 1 -25 5.5t-13.5 11t-5 13.5t-0.5 13zM203 706q-5 -5 -8 -5.5t-6 0.5q-18 8 -32.5 20.5t-25 26.5t-18 28t-12.5 26
q-11 26 -6.5 40t21.5 20q7 3 15.5 3t10.5 -8q11 -35 26 -67.5t34 -66.5q2 -5 4 -8.5t-3 -8.5z" />
    <glyph glyph-name="Iacute" unicode="&#xcd;" horiz-adv-x="403" 
d="M32 141q1 16 8.5 18.5t24.5 3.5q12 1 26.5 1h30.5q23 0 25 21q5 77 6 164.5t1 164.5q0 17 -3 27.5t-22 11.5q-21 1 -37.5 2t-28.5 4q-30 9 -30 42q0 22 31 23q63 4 131 4.5t127 -4.5q19 -2 25 -7t5 -22q-1 -12 -5 -19t-15 -9q-21 -5 -40.5 -7.5t-40.5 -4.5
q-18 -1 -19 -26q-5 -86 -6 -171t-1 -171q0 -19 16 -20q46 -3 86 0q13 1 17 -4.5t3 -19.5q-1 -20 -10.5 -27.5t-26.5 -9.5q-59 -8 -117 -9.5t-117 1.5q-16 1 -25 5.5t-13.5 11t-5 13.5t-0.5 13zM155 701q-6 6 1 18q19 31 34 64.5t26 68.5q2 8 10.5 8t15.5 -2q17 -6 25 -18
t-3 -40q-8 -23 -28.5 -54t-57.5 -48q-15 -7 -23 3z" />
    <glyph glyph-name="Icircumflex" unicode="&#xce;" horiz-adv-x="403" 
d="M32 141q1 16 8.5 18.5t24.5 3.5q12 1 26.5 1h30.5q23 0 25 21q5 77 6 164.5t1 164.5q0 17 -3 27.5t-22 11.5q-21 1 -37.5 2t-28.5 4q-30 9 -30 42q0 22 31 23q63 4 131 4.5t127 -4.5q19 -2 25 -7t5 -22q-1 -12 -5 -19t-15 -9q-21 -5 -40.5 -7.5t-40.5 -4.5
q-18 -1 -19 -26q-5 -86 -6 -171t-1 -171q0 -19 16 -20q46 -3 86 0q13 1 17 -4.5t3 -19.5q-1 -20 -10.5 -27.5t-26.5 -9.5q-59 -8 -117 -9.5t-117 1.5q-16 1 -25 5.5t-13.5 11t-5 13.5t-0.5 13zM216 843q26 -40 50 -70.5t49 -56.5q10 -10 -4 -25q-8 -9 -16 -7.5t-22 11.5
q-20 14 -43 37t-44 53q-4 5 -5.5 5t-6.5 -5q-17 -27 -32.5 -47.5t-37.5 -36.5q-20 -14 -40 -4q-10 5 -11.5 11t3.5 11q27 27 50 59.5t43 65.5q5 8 12 12t20 4q24 0 35 -17z" />
    <glyph glyph-name="Idieresis" unicode="&#xcf;" horiz-adv-x="403" 
d="M32 141q1 16 8.5 18.5t24.5 3.5q12 1 26.5 1h30.5q23 0 25 21q5 77 6 164.5t1 164.5q0 17 -3 27.5t-22 11.5q-21 1 -37.5 2t-28.5 4q-30 9 -30 42q0 22 31 23q63 4 131 4.5t127 -4.5q19 -2 25 -7t5 -22q-1 -12 -5 -19t-15 -9q-21 -5 -40.5 -7.5t-40.5 -4.5
q-18 -1 -19 -26q-5 -86 -6 -171t-1 -171q0 -19 16 -20q46 -3 86 0q13 1 17 -4.5t3 -19.5q-1 -20 -10.5 -27.5t-26.5 -9.5q-59 -8 -117 -9.5t-117 1.5q-16 1 -25 5.5t-13.5 11t-5 13.5t-0.5 13zM41 754q0 19 11.5 32.5t36.5 13.5q16 0 28 -13.5t12 -32.5q0 -22 -10.5 -35
t-31.5 -13q-26 0 -36 14.5t-10 33.5zM260 754q0 20 9 33t34 13q24 0 34.5 -12.5t10.5 -29.5q0 -23 -9.5 -37.5t-32.5 -14.5q-26 0 -36 15.5t-10 32.5z" />
    <glyph glyph-name="Eth" unicode="&#xd0;" horiz-adv-x="590" 
d="M45 348q-19 5 -26.5 16.5t-7.5 25.5q0 11 5.5 17t13.5 5q19 -2 39.5 -3.5t43.5 -1.5q2 45 6 86.5t9 76.5q6 37 30 52.5t58 17.5q18 1 40.5 -0.5t45.5 -6t46 -11.5t43 -17q63 -32 94.5 -92.5t23.5 -156.5q-5 -71 -30 -114.5t-69 -74.5q-23 -16 -55 -27t-67.5 -17.5
t-71.5 -7.5t-67 2q-28 3 -33.5 15t-6.5 36q-1 42 -1 85t2 86q-38 2 -65 9zM254 191q36 3 68 15.5t56 34t38.5 50t16.5 62.5q2 39 -4 69.5t-17.5 53.5t-27.5 38.5t-34 26.5t-44 15.5t-58 6.5q-23 1 -32.5 -7.5t-14.5 -38.5q-2 -14 -5 -43.5t-5 -66.5q46 1 96 6q20 2 19 -20
q-1 -16 -15 -27q-16 -12 -42.5 -18.5t-60.5 -8.5q-3 -61 0 -104q1 -17 3 -26.5t8 -14t18.5 -5t36.5 1.5z" />
    <glyph glyph-name="Ntilde" unicode="&#xd1;" horiz-adv-x="588" 
d="M377 247q10 -17 13 -15.5t4 21.5q4 86 1 180t-14 180q-2 17 3.5 22t22.5 4t31.5 -9t16.5 -26q17 -115 22 -228t-9 -228q-3 -23 -19 -31.5t-36 -10.5q-19 -2 -33.5 5.5t-28.5 33.5q-35 61 -77 142.5t-93 184.5q-17 34 -20 -5q-2 -26 -3 -64.5t-1 -83t1.5 -91.5t4.5 -90
q2 -29 -6.5 -42.5t-36.5 -13.5q-12 0 -16.5 11t-6.5 22q-7 46 -11.5 101t-7 113t-3 117.5t1.5 114.5q1 55 51 55q28 0 44 -7t27 -24q42 -76 86.5 -161.5t91.5 -176.5zM135 703q-24 0 -15 36q6 24 11.5 43.5t14.5 33.5t22.5 22t34.5 8q16 0 28.5 -12t24 -27t23.5 -27t28 -12
q20 0 37 19t29 51q4 11 19 4q15 -8 12 -28t-10.5 -40t-19.5 -36.5t-29.5 -26.5t-39.5 -10q-23 0 -42 14t-38 48q-8 14 -21 14t-22 -13t-21 -47q-6 -14 -26 -14z" />
    <glyph glyph-name="Ograve" unicode="&#xd2;" horiz-adv-x="599" 
d="M286 630q60 0 105 -21.5t67 -58.5q34 -57 34 -142t-16 -155.5t-58 -112.5q-35 -36 -72 -46.5t-77 -10.5q-54 0 -92.5 21.5t-63 58t-36 85t-11.5 101.5q0 64 17 116t46.5 88.5t69.5 56.5t87 20zM281 154q30 0 55 15.5t43.5 44t28.5 69.5t10 92q0 53 -10 87t-27.5 54
t-40.5 28t-48 9q-37 1 -64.5 -18.5t-45.5 -50.5t-27 -69t-9 -74q0 -42 10.5 -76t28.5 -59t42.5 -38.5t53.5 -13.5zM289 701q-5 -5 -8 -5.5t-6 0.5q-18 8 -32.5 20.5t-25 26.5t-18 28t-12.5 26q-11 26 -6.5 40t21.5 20q7 3 15.5 3t10.5 -8q11 -35 26 -67.5t34 -66.5
q2 -5 4 -8.5t-3 -8.5z" />
    <glyph glyph-name="Oacute" unicode="&#xd3;" horiz-adv-x="599" 
d="M286 630q60 0 105 -21.5t67 -58.5q34 -57 34 -142t-16 -155.5t-58 -112.5q-35 -36 -72 -46.5t-77 -10.5q-54 0 -92.5 21.5t-63 58t-36 85t-11.5 101.5q0 64 17 116t46.5 88.5t69.5 56.5t87 20zM281 154q30 0 55 15.5t43.5 44t28.5 69.5t10 92q0 53 -10 87t-27.5 54
t-40.5 28t-48 9q-37 1 -64.5 -18.5t-45.5 -50.5t-27 -69t-9 -74q0 -42 10.5 -76t28.5 -59t42.5 -38.5t53.5 -13.5zM252 700q-6 6 1 18q19 31 34 64.5t26 68.5q2 8 10.5 8t15.5 -2q17 -6 25 -18t-3 -40q-8 -23 -28.5 -54t-57.5 -48q-15 -7 -23 3z" />
    <glyph glyph-name="Ocircumflex" unicode="&#xd4;" horiz-adv-x="599" 
d="M286 630q60 0 105 -21.5t67 -58.5q34 -57 34 -142t-16 -155.5t-58 -112.5q-35 -36 -72 -46.5t-77 -10.5q-54 0 -92.5 21.5t-63 58t-36 85t-11.5 101.5q0 64 17 116t46.5 88.5t69.5 56.5t87 20zM281 154q30 0 55 15.5t43.5 44t28.5 69.5t10 92q0 53 -10 87t-27.5 54
t-40.5 28t-48 9q-37 1 -64.5 -18.5t-45.5 -50.5t-27 -69t-9 -74q0 -42 10.5 -76t28.5 -59t42.5 -38.5t53.5 -13.5zM314 843q26 -40 50 -70.5t49 -56.5q10 -10 -4 -25q-8 -9 -16 -7.5t-22 11.5q-20 14 -43 37t-44 53q-4 5 -5.5 5t-6.5 -5q-17 -27 -32.5 -47.5t-37.5 -36.5
q-20 -14 -40 -4q-10 5 -11.5 11t3.5 11q27 27 50 59.5t43 65.5q5 8 12 12t20 4q24 0 35 -17z" />
    <glyph glyph-name="Otilde" unicode="&#xd5;" horiz-adv-x="599" 
d="M286 630q60 0 105 -21.5t67 -58.5q34 -57 34 -142t-16 -155.5t-58 -112.5q-35 -36 -72 -46.5t-77 -10.5q-54 0 -92.5 21.5t-63 58t-36 85t-11.5 101.5q0 64 17 116t46.5 88.5t69.5 56.5t87 20zM281 154q30 0 55 15.5t43.5 44t28.5 69.5t10 92q0 53 -10 87t-27.5 54
t-40.5 28t-48 9q-37 1 -64.5 -18.5t-45.5 -50.5t-27 -69t-9 -74q0 -42 10.5 -76t28.5 -59t42.5 -38.5t53.5 -13.5zM143 711q-24 0 -15 36q6 24 11.5 43.5t14.5 33.5t22.5 22t34.5 8q16 0 28.5 -12t24 -27t23.5 -27t28 -12q20 0 37 19t29 51q4 11 19 4q15 -8 12 -28
t-10.5 -40t-19.5 -36.5t-29.5 -26.5t-39.5 -10q-23 0 -42 14t-38 48q-8 14 -21 14t-22 -13t-21 -47q-6 -14 -26 -14z" />
    <glyph glyph-name="Odieresis" unicode="&#xd6;" horiz-adv-x="599" 
d="M286 630q60 0 105 -21.5t67 -58.5q34 -57 34 -142t-16 -155.5t-58 -112.5q-35 -36 -72 -46.5t-77 -10.5q-54 0 -92.5 21.5t-63 58t-36 85t-11.5 101.5q0 64 17 116t46.5 88.5t69.5 56.5t87 20zM281 154q30 0 55 15.5t43.5 44t28.5 69.5t10 92q0 53 -10 87t-27.5 54
t-40.5 28t-48 9q-37 1 -64.5 -18.5t-45.5 -50.5t-27 -69t-9 -74q0 -42 10.5 -76t28.5 -59t42.5 -38.5t53.5 -13.5zM131 758q0 19 11.5 32.5t36.5 13.5q16 0 28 -13.5t12 -32.5q0 -22 -10.5 -35t-31.5 -13q-26 0 -36 14.5t-10 33.5zM350 758q0 20 9 33t34 13q24 0 34.5 -12.5
t10.5 -29.5q0 -23 -9.5 -37.5t-32.5 -14.5q-26 0 -36 15.5t-10 32.5z" />
    <glyph glyph-name="multiply" unicode="&#xd7;" horiz-adv-x="370" 
d="M43 228q19 16 38 37t36 42q7 9 6.5 16t-4.5 15q-15 24 -34 51.5t-39 54.5q-6 8 -1 16.5t12 13.5q13 9 24.5 8t17.5 -10q11 -18 25.5 -39.5t27.5 -39.5q13 -19 20 -20t20 13q15 17 30 38t30 44q4 6 12.5 8t18.5 -4q13 -9 18 -21t-4 -28q-13 -22 -28 -44t-34 -43
q-10 -13 -10.5 -18t8.5 -17q14 -20 29 -38.5t30 -33.5q14 -17 12 -26t-9 -18q-6 -7 -13.5 -9.5t-14.5 -1.5q-6 0 -11.5 4t-11.5 10q-12 12 -30 32.5t-37 48.5q-5 6 -8 5t-6 -6q-15 -19 -30 -36t-33 -29q-15 -11 -28 -11.5t-25 9.5q-10 8 -9.5 15t5.5 12z" />
    <glyph glyph-name="Oslash" unicode="&#xd8;" horiz-adv-x="594" 
d="M440 642q-4 -14 -7.5 -27.5t-7.5 -27.5q18 -14 33 -37q23 -38 30 -90.5t3 -112.5q-4 -65 -22.5 -118t-50.5 -89q-35 -36 -72.5 -46t-76.5 -11q-51 1 -92 22q-14 -17 -27.5 -30t-27.5 -22q-17 -12 -31.5 -13.5t-26.5 10.5q-9 9 -1 20q29 37 58 82q-35 46 -47.5 112.5
t-5.5 135.5q5 54 26 97t52 73t69.5 45.5t78.5 14.5q14 -1 27.5 -3t25.5 -4q5 13 9 26t9 26q5 12 16 13t25 -4q20 -6 29.5 -15.5t4.5 -26.5zM274 154q55 -2 94.5 44.5t47.5 132.5q5 60 -1 100.5t-21 66.5q-34 -93 -78 -179t-91 -152q24 -13 49 -13zM292 553q-32 1 -58 -15
t-44.5 -43t-29.5 -62t-14 -72q-6 -76 22 -132q45 77 83 158t70 162q-8 2 -14.5 2.5t-14.5 1.5z" />
    <glyph glyph-name="Ugrave" unicode="&#xd9;" horiz-adv-x="575" 
d="M142 105q-27 7 -39 28t-16 48q-28 196 2 395q4 26 12.5 37t27.5 9q21 -2 31.5 -8.5t8.5 -21.5q-11 -104 -11.5 -187t4.5 -152q2 -26 8 -49.5t29 -28.5q32 -8 60 -10.5t59 -0.5q15 1 24.5 10.5t17.5 45.5q20 96 24 191t-3 192q-1 14 9.5 17t21.5 3q16 0 28 -7t14 -24
q4 -36 7 -95.5t0 -125t-15.5 -127.5t-37.5 -104q-17 -29 -46 -38.5t-61 -10.5q-34 -1 -74 1t-85 13zM281 680q-5 -5 -8 -5.5t-6 0.5q-18 8 -32.5 20.5t-25 26.5t-18 28t-12.5 26q-11 26 -6.5 40t21.5 20q7 3 15.5 3t10.5 -8q11 -35 26 -67.5t34 -66.5q2 -5 4 -8.5t-3 -8.5z
" />
    <glyph glyph-name="Uacute" unicode="&#xda;" horiz-adv-x="575" 
d="M142 105q-27 7 -39 28t-16 48q-28 196 2 395q4 26 12.5 37t27.5 9q21 -2 31.5 -8.5t8.5 -21.5q-11 -104 -11.5 -187t4.5 -152q2 -26 8 -49.5t29 -28.5q32 -8 60 -10.5t59 -0.5q15 1 24.5 10.5t17.5 45.5q20 96 24 191t-3 192q-1 14 9.5 17t21.5 3q16 0 28 -7t14 -24
q4 -36 7 -95.5t0 -125t-15.5 -127.5t-37.5 -104q-17 -29 -46 -38.5t-61 -10.5q-34 -1 -74 1t-85 13zM246 679q-6 6 1 18q19 31 34 64.5t26 68.5q2 8 10.5 8t15.5 -2q17 -6 25 -18t-3 -40q-8 -23 -28.5 -54t-57.5 -48q-15 -7 -23 3z" />
    <glyph glyph-name="Ucircumflex" unicode="&#xdb;" horiz-adv-x="575" 
d="M142 105q-27 7 -39 28t-16 48q-28 196 2 395q4 26 12.5 37t27.5 9q21 -2 31.5 -8.5t8.5 -21.5q-11 -104 -11.5 -187t4.5 -152q2 -26 8 -49.5t29 -28.5q32 -8 60 -10.5t59 -0.5q15 1 24.5 10.5t17.5 45.5q20 96 24 191t-3 192q-1 14 9.5 17t21.5 3q16 0 28 -7t14 -24
q4 -36 7 -95.5t0 -125t-15.5 -127.5t-37.5 -104q-17 -29 -46 -38.5t-61 -10.5q-34 -1 -74 1t-85 13zM300 843q26 -40 50 -70.5t49 -56.5q10 -10 -4 -25q-8 -9 -16 -7.5t-22 11.5q-20 14 -43 37t-44 53q-4 5 -5.5 5t-6.5 -5q-17 -27 -32.5 -47.5t-37.5 -36.5q-20 -14 -40 -4
q-10 5 -11.5 11t3.5 11q27 27 50 59.5t43 65.5q5 8 12 12t20 4q24 0 35 -17z" />
    <glyph glyph-name="Udieresis" unicode="&#xdc;" horiz-adv-x="575" 
d="M142 105q-27 7 -39 28t-16 48q-28 196 2 395q4 26 12.5 37t27.5 9q21 -2 31.5 -8.5t8.5 -21.5q-11 -104 -11.5 -187t4.5 -152q2 -26 8 -49.5t29 -28.5q32 -8 60 -10.5t59 -0.5q15 1 24.5 10.5t17.5 45.5q20 96 24 191t-3 192q-1 14 9.5 17t21.5 3q16 0 28 -7t14 -24
q4 -36 7 -95.5t0 -125t-15.5 -127.5t-37.5 -104q-17 -29 -46 -38.5t-61 -10.5q-34 -1 -74 1t-85 13zM125 757q0 19 11.5 32.5t36.5 13.5q16 0 28 -13.5t12 -32.5q0 -22 -10.5 -35t-31.5 -13q-26 0 -36 14.5t-10 33.5zM344 757q0 20 9 33t34 13q24 0 34.5 -12.5t10.5 -29.5
q0 -23 -9.5 -37.5t-32.5 -14.5q-26 0 -36 15.5t-10 32.5z" />
    <glyph glyph-name="Yacute" unicode="&#xdd;" horiz-adv-x="501" 
d="M197 134q0 34 2.5 61t3.5 62q1 29 -1 39.5t-9 18.5q-44 62 -83 121.5t-71 119.5q-10 18 -9 31t19 23q13 7 25.5 0.5t22.5 -23.5q30 -54 61 -104t61 -82q16 -19 25.5 -17t29.5 29q28 36 59 87.5t51 104.5q7 18 16 21.5t24 -4.5q26 -15 29 -35t-11 -47q-24 -49 -63.5 -105
t-84.5 -115q-8 -12 -14.5 -26t-5.5 -29q2 -45 -0.5 -82t-4.5 -70q-2 -23 -18 -26t-33 1q-7 2 -14 9.5t-7 36.5zM209 641q-6 6 1 18q19 31 34 64.5t26 68.5q2 8 10.5 8t15.5 -2q17 -6 25 -18t-3 -40q-8 -23 -28.5 -54t-57.5 -48q-15 -7 -23 3z" />
    <glyph glyph-name="Thorn" unicode="&#xde;" horiz-adv-x="521" 
d="M63 102q8 50 11.5 113t3.5 132q0 72 -5 146t-5 144q0 26 36 26q23 0 33.5 -13t15 -32.5t4.5 -42t2 -41.5q33 6 68 6q48 0 86 -7t64.5 -24t40.5 -45.5t14 -72.5q0 -51 -17 -85.5t-46 -55t-68.5 -29.5t-84.5 -9q-31 0 -62 3q-11 -76 -25 -107.5t-37 -31.5q-15 0 -22.5 6.5
t-7.5 14.5q0 2 0.5 2.5t0.5 2.5zM336 307q9 6 15.5 16t10 22.5t5 25t1.5 22.5q0 22 -10 35.5t-27 21t-39 9.5t-47 2q-32 0 -54.5 -3t-27.5 -26q1 -12 1 -24.5v-24.5q0 -21 -0.5 -42.5t-1.5 -42.5q1 -4 9 -7t18.5 -4.5t22.5 -2t21 -0.5q29 0 56 5.5t47 17.5z" />
    <glyph glyph-name="germandbls" unicode="&#xdf;" horiz-adv-x="530" 
d="M198 420q28 5 46 16.5t29 26.5t15.5 32.5t4.5 33.5q0 28 -16 40.5t-53 12.5q-44 0 -66.5 -15.5t-22.5 -53.5q0 -55 2 -106t6.5 -101t10.5 -100t15 -102q1 -7 0.5 -14.5t-4 -13.5t-10 -10t-18.5 -3q-17 1 -24.5 9.5t-10.5 23.5q-11 53 -18 114.5t-10.5 121.5t-3 115
t4.5 95q5 46 38.5 74.5t108.5 33.5q12 1 27 -0.5t31 -4.5t30.5 -8t26.5 -12q19 -11 25.5 -27.5t8.5 -50.5q2 -43 -13 -79t-41 -56q37 -6 61.5 -20t38 -34t19 -46.5t5.5 -57.5q-3 -40 -18.5 -72.5t-41 -55t-58.5 -34.5t-70 -12q-16 0 -24.5 9t-8.5 23t7.5 19.5t25.5 10.5
q51 14 77.5 41.5t26.5 65.5q0 29 -5.5 49t-20.5 32.5t-41 18.5t-67 8q-21 1 -32 12.5t-11 27.5q0 20 18 23z" />
    <glyph glyph-name="agrave" unicode="&#xe0;" horiz-adv-x="489" 
d="M301 190q5 20 5 36q0 19 -12 22q-32 9 -75 9q-47 0 -71.5 -14t-24.5 -52q0 -25 21 -34t68 -9q40 0 62 11.5t27 30.5zM338 73q-27 -1 -30 15q-1 5 -1.5 12t-0.5 12q0 6 -4 2q-14 -14 -42 -20.5t-59 -6.5q-32 0 -58 3.5t-45.5 13.5t-30 27t-10.5 43q0 44 12.5 72t33.5 44
t47.5 22t54.5 6q26 0 50.5 -2.5t49.5 -9.5q7 15 10.5 29t-1.5 29q-8 26 -30.5 38t-58.5 12q-25 0 -45 -4.5t-38 -11.5q-11 -5 -25.5 -2t-22.5 14q-11 14 -11.5 24.5t7.5 14.5q28 19 65 28.5t72 9.5q41 0 80 -13.5t62 -44.5q10 -12 13.5 -33.5t4.5 -40.5q1 -26 0 -51t-4 -50
q-5 -42 -8 -79.5t0 -70.5q3 -30 -37 -31zM266 559q-5 -5 -8 -5.5t-6 0.5q-18 8 -32.5 20.5t-25 26.5t-18 28t-12.5 26q-11 26 -6.5 40t21.5 20q7 3 15.5 3t10.5 -8q11 -35 26 -67.5t34 -66.5q2 -5 4 -8.5t-3 -8.5z" />
    <glyph glyph-name="aacute" unicode="&#xe1;" horiz-adv-x="489" 
d="M301 190q5 20 5 36q0 19 -12 22q-32 9 -75 9q-47 0 -71.5 -14t-24.5 -52q0 -25 21 -34t68 -9q40 0 62 11.5t27 30.5zM338 73q-27 -1 -30 15q-1 5 -1.5 12t-0.5 12q0 6 -4 2q-14 -14 -42 -20.5t-59 -6.5q-32 0 -58 3.5t-45.5 13.5t-30 27t-10.5 43q0 44 12.5 72t33.5 44
t47.5 22t54.5 6q26 0 50.5 -2.5t49.5 -9.5q7 15 10.5 29t-1.5 29q-8 26 -30.5 38t-58.5 12q-25 0 -45 -4.5t-38 -11.5q-11 -5 -25.5 -2t-22.5 14q-11 14 -11.5 24.5t7.5 14.5q28 19 65 28.5t72 9.5q41 0 80 -13.5t62 -44.5q10 -12 13.5 -33.5t4.5 -40.5q1 -26 0 -51t-4 -50
q-5 -42 -8 -79.5t0 -70.5q3 -30 -37 -31zM193 560q-6 6 1 18q19 31 34 64.5t26 68.5q2 8 10.5 8t15.5 -2q17 -6 25 -18t-3 -40q-8 -23 -28.5 -54t-57.5 -48q-15 -7 -23 3z" />
    <glyph glyph-name="acircumflex" unicode="&#xe2;" horiz-adv-x="489" 
d="M301 190q5 20 5 36q0 19 -12 22q-32 9 -75 9q-47 0 -71.5 -14t-24.5 -52q0 -25 21 -34t68 -9q40 0 62 11.5t27 30.5zM338 73q-27 -1 -30 15q-1 5 -1.5 12t-0.5 12q0 6 -4 2q-14 -14 -42 -20.5t-59 -6.5q-32 0 -58 3.5t-45.5 13.5t-30 27t-10.5 43q0 44 12.5 72t33.5 44
t47.5 22t54.5 6q26 0 50.5 -2.5t49.5 -9.5q7 15 10.5 29t-1.5 29q-8 26 -30.5 38t-58.5 12q-25 0 -45 -4.5t-38 -11.5q-11 -5 -25.5 -2t-22.5 14q-11 14 -11.5 24.5t7.5 14.5q28 19 65 28.5t72 9.5q41 0 80 -13.5t62 -44.5q10 -12 13.5 -33.5t4.5 -40.5q1 -26 0 -51t-4 -50
q-5 -42 -8 -79.5t0 -70.5q3 -30 -37 -31zM267 700q26 -40 50 -70.5t49 -56.5q10 -10 -4 -25q-8 -9 -16 -7.5t-22 11.5q-20 14 -43 37t-44 53q-4 5 -5.5 5t-6.5 -5q-17 -27 -32.5 -47.5t-37.5 -36.5q-20 -14 -40 -4q-10 5 -11.5 11t3.5 11q27 27 50 59.5t43 65.5q5 8 12 12
t20 4q24 0 35 -17z" />
    <glyph glyph-name="atilde" unicode="&#xe3;" horiz-adv-x="489" 
d="M301 190q5 20 5 36q0 19 -12 22q-32 9 -75 9q-47 0 -71.5 -14t-24.5 -52q0 -25 21 -34t68 -9q40 0 62 11.5t27 30.5zM338 73q-27 -1 -30 15q-1 5 -1.5 12t-0.5 12q0 6 -4 2q-14 -14 -42 -20.5t-59 -6.5q-32 0 -58 3.5t-45.5 13.5t-30 27t-10.5 43q0 44 12.5 72t33.5 44
t47.5 22t54.5 6q26 0 50.5 -2.5t49.5 -9.5q7 15 10.5 29t-1.5 29q-8 26 -30.5 38t-58.5 12q-25 0 -45 -4.5t-38 -11.5q-11 -5 -25.5 -2t-22.5 14q-11 14 -11.5 24.5t7.5 14.5q28 19 65 28.5t72 9.5q41 0 80 -13.5t62 -44.5q10 -12 13.5 -33.5t4.5 -40.5q1 -26 0 -51t-4 -50
q-5 -42 -8 -79.5t0 -70.5q3 -30 -37 -31zM105 559q-24 0 -15 36q6 24 11.5 43.5t14.5 33.5t22.5 22t34.5 8q16 0 28.5 -12t24 -27t23.5 -27t28 -12q20 0 37 19t29 51q4 11 19 4q15 -8 12 -28t-10.5 -40t-19.5 -36.5t-29.5 -26.5t-39.5 -10q-23 0 -42 14t-38 48q-8 14 -21 14
t-22 -13t-21 -47q-6 -14 -26 -14z" />
    <glyph glyph-name="adieresis" unicode="&#xe4;" horiz-adv-x="489" 
d="M301 190q5 20 5 36q0 19 -12 22q-32 9 -75 9q-47 0 -71.5 -14t-24.5 -52q0 -25 21 -34t68 -9q40 0 62 11.5t27 30.5zM338 73q-27 -1 -30 15q-1 5 -1.5 12t-0.5 12q0 6 -4 2q-14 -14 -42 -20.5t-59 -6.5q-32 0 -58 3.5t-45.5 13.5t-30 27t-10.5 43q0 44 12.5 72t33.5 44
t47.5 22t54.5 6q26 0 50.5 -2.5t49.5 -9.5q7 15 10.5 29t-1.5 29q-8 26 -30.5 38t-58.5 12q-25 0 -45 -4.5t-38 -11.5q-11 -5 -25.5 -2t-22.5 14q-11 14 -11.5 24.5t7.5 14.5q28 19 65 28.5t72 9.5q41 0 80 -13.5t62 -44.5q10 -12 13.5 -33.5t4.5 -40.5q1 -26 0 -51t-4 -50
q-5 -42 -8 -79.5t0 -70.5q3 -30 -37 -31zM80 601q0 19 11.5 32.5t36.5 13.5q16 0 28 -13.5t12 -32.5q0 -22 -10.5 -35t-31.5 -13q-26 0 -36 14.5t-10 33.5zM299 601q0 20 9 33t34 13q24 0 34.5 -12.5t10.5 -29.5q0 -23 -9.5 -37.5t-32.5 -14.5q-26 0 -36 15.5t-10 32.5z" />
    <glyph glyph-name="aring" unicode="&#xe5;" horiz-adv-x="489" 
d="M301 190q5 20 5 36q0 19 -12 22q-32 9 -75 9q-47 0 -71.5 -14t-24.5 -52q0 -25 21 -34t68 -9q40 0 62 11.5t27 30.5zM338 73q-27 -1 -30 15q-1 5 -1.5 12t-0.5 12q0 6 -4 2q-14 -14 -42 -20.5t-59 -6.5q-32 0 -58 3.5t-45.5 13.5t-30 27t-10.5 43q0 44 12.5 72t33.5 44
t47.5 22t54.5 6q26 0 50.5 -2.5t49.5 -9.5q7 15 10.5 29t-1.5 29q-8 26 -30.5 38t-58.5 12q-25 0 -45 -4.5t-38 -11.5q-11 -5 -25.5 -2t-22.5 14q-11 14 -11.5 24.5t7.5 14.5q28 19 65 28.5t72 9.5q41 0 80 -13.5t62 -44.5q10 -12 13.5 -33.5t4.5 -40.5q1 -26 0 -51t-4 -50
q-5 -42 -8 -79.5t0 -70.5q3 -30 -37 -31zM141 664q0 21 8 40.5t22 34t33 23t41 8.5q62 0 88 -28.5t28 -75.5q3 -49 -26 -79.5t-79 -33.5q-37 -3 -60 8q-30 16 -42 42.5t-13 60.5zM251 597q26 0 40 16.5t14 45.5q0 38 -13.5 52t-34.5 14q-36 0 -51.5 -20t-15.5 -46
q0 -29 19 -45.5t42 -16.5z" />
    <glyph glyph-name="ae" unicode="&#xe6;" horiz-adv-x="745" 
d="M637 418q14 -17 19.5 -36t5.5 -41q1 -29 -14 -53.5t-53 -28.5q-40 -4 -90.5 -3t-102.5 6q-13 2 -16 -14q-5 -25 2 -50q4 -16 16.5 -26t29.5 -16t36.5 -8.5t38.5 -3.5q29 -2 59.5 3.5t52.5 16.5q20 11 27 2q20 -25 -5 -47q-22 -19 -53 -29.5t-65 -10.5q-72 0 -115.5 16
t-67.5 40q-26 -26 -61 -37t-80 -11q-36 0 -65 5.5t-48 19.5t-26.5 38t-1.5 62q5 29 17 48.5t27.5 31t34 17t36.5 7.5q67 7 130 -10q5 12 8 27.5t1 30.5q-8 26 -30.5 38t-58.5 12q-25 0 -45 -4.5t-38 -11.5q-11 -5 -25.5 -2t-22.5 14q-11 14 -11.5 24.5t7.5 14.5
q28 19 65 28.5t72 9.5q41 0 79.5 -13.5t61.5 -44.5q26 23 59 35t71 11q39 -1 77.5 -14.5t61.5 -42.5zM418 313q49 -5 85.5 -5.5t65.5 3.5q14 2 17.5 9t3.5 20q0 21 -7 34t-18.5 21t-27 11.5t-31.5 4.5q-27 1 -46.5 -4t-33.5 -14.5t-22.5 -21.5t-12.5 -25q-8 -20 0 -25.5
t27 -7.5zM273 159q13 5 19 12.5t9 18.5q5 20 5 36q0 19 -12 22q-27 7 -64.5 8.5t-66.5 -6.5q-37 -12 -40 -49q-2 -21 4.5 -30.5t20.5 -14.5q16 -5 34 -6.5t35 -1t32 3.5t24 7z" />
    <glyph glyph-name="ccedilla" unicode="&#xe7;" horiz-adv-x="429" 
d="M269 70q32 -10 47 -29.5t15 -42.5q0 -41 -30.5 -61.5t-82.5 -20.5q-24 0 -36 3q-10 3 -15 11.5t-3 18.5q1 10 8.5 17.5t21.5 5.5q7 -2 11.5 -2h9.5q18 0 35.5 5.5t17.5 22.5q0 14 -19 24t-37 12q-14 2 -18 10t3 21l21 39q4 6 7 9q-29 3 -51 12q-37 15 -59 35t-34.5 42.5
t-16.5 45.5t-5 44q-2 39 13 79.5t52 72.5q23 20 53 34t63 18q23 2 47 -0.5t40 -11.5q20 -12 19 -32q-1 -14 -9 -19.5t-32 -4.5q-45 2 -72 -8t-47 -27q-20 -18 -31 -48t-9 -62q3 -27 14.5 -46t28.5 -32t37.5 -18.5t41 -5.5t40.5 4t35 11q10 5 19 2t11 -14q5 -28 -16 -45.5
t-63 -23.5q-20 -24 -25 -45z" />
    <glyph glyph-name="egrave" unicode="&#xe8;" horiz-adv-x="498" 
d="M390 418q14 -17 19.5 -36t5.5 -41q1 -29 -14 -53.5t-53 -28.5q-40 -4 -90.5 -3t-102.5 6q-13 2 -16 -14q-5 -25 2 -50q5 -18 19 -28.5t33.5 -16.5t42 -7.5t44.5 -1.5q26 0 50.5 5t43.5 15q20 11 27 2q20 -25 -5 -47q-21 -18 -53 -28.5t-64 -10.5q-112 0 -166.5 43
t-54.5 142q0 45 13 83.5t37 66.5t58 44t77 16q41 0 81.5 -13t65.5 -44zM171 313q49 -5 85.5 -5t65.5 3q14 2 17.5 9t3.5 20q0 22 -8 36t-20.5 21.5t-29.5 10.5t-35 3q-25 0 -45 -6.5t-34.5 -18t-22.5 -26t-8 -30.5q0 -9 8.5 -12.5t22.5 -4.5zM276 537q-5 -5 -8 -5.5t-6 0.5
q-18 8 -32.5 20.5t-25 26.5t-18 28t-12.5 26q-11 26 -6.5 40t21.5 20q7 3 15.5 3t10.5 -8q11 -35 26 -67.5t34 -66.5q2 -5 4 -8.5t-3 -8.5z" />
    <glyph glyph-name="eacute" unicode="&#xe9;" horiz-adv-x="498" 
d="M390 418q14 -17 19.5 -36t5.5 -41q1 -29 -14 -53.5t-53 -28.5q-40 -4 -90.5 -3t-102.5 6q-13 2 -16 -14q-5 -25 2 -50q5 -18 19 -28.5t33.5 -16.5t42 -7.5t44.5 -1.5q26 0 50.5 5t43.5 15q20 11 27 2q20 -25 -5 -47q-21 -18 -53 -28.5t-64 -10.5q-112 0 -166.5 43
t-54.5 142q0 45 13 83.5t37 66.5t58 44t77 16q41 0 81.5 -13t65.5 -44zM171 313q49 -5 85.5 -5t65.5 3q14 2 17.5 9t3.5 20q0 22 -8 36t-20.5 21.5t-29.5 10.5t-35 3q-25 0 -45 -6.5t-34.5 -18t-22.5 -26t-8 -30.5q0 -9 8.5 -12.5t22.5 -4.5zM210 538q-6 6 1 18
q19 31 34 64.5t26 68.5q2 8 10.5 8t15.5 -2q17 -6 25 -18t-3 -40q-8 -23 -28.5 -54t-57.5 -48q-15 -7 -23 3z" />
    <glyph glyph-name="ecircumflex" unicode="&#xea;" horiz-adv-x="498" 
d="M390 418q14 -17 19.5 -36t5.5 -41q1 -29 -14 -53.5t-53 -28.5q-40 -4 -90.5 -3t-102.5 6q-13 2 -16 -14q-5 -25 2 -50q5 -18 19 -28.5t33.5 -16.5t42 -7.5t44.5 -1.5q26 0 50.5 5t43.5 15q20 11 27 2q20 -25 -5 -47q-21 -18 -53 -28.5t-64 -10.5q-112 0 -166.5 43
t-54.5 142q0 45 13 83.5t37 66.5t58 44t77 16q41 0 81.5 -13t65.5 -44zM171 313q49 -5 85.5 -5t65.5 3q14 2 17.5 9t3.5 20q0 22 -8 36t-20.5 21.5t-29.5 10.5t-35 3q-25 0 -45 -6.5t-34.5 -18t-22.5 -26t-8 -30.5q0 -9 8.5 -12.5t22.5 -4.5zM270 677q26 -40 50 -70.5
t49 -56.5q10 -10 -4 -25q-8 -9 -16 -7.5t-22 11.5q-20 14 -43 37t-44 53q-4 5 -5.5 5t-6.5 -5q-17 -27 -32.5 -47.5t-37.5 -36.5q-20 -14 -40 -4q-10 5 -11.5 11t3.5 11q27 27 50 59.5t43 65.5q5 8 12 12t20 4q24 0 35 -17z" />
    <glyph glyph-name="edieresis" unicode="&#xeb;" horiz-adv-x="498" 
d="M390 418q14 -17 19.5 -36t5.5 -41q1 -29 -14 -53.5t-53 -28.5q-40 -4 -90.5 -3t-102.5 6q-13 2 -16 -14q-5 -25 2 -50q5 -18 19 -28.5t33.5 -16.5t42 -7.5t44.5 -1.5q26 0 50.5 5t43.5 15q20 11 27 2q20 -25 -5 -47q-21 -18 -53 -28.5t-64 -10.5q-112 0 -166.5 43
t-54.5 142q0 45 13 83.5t37 66.5t58 44t77 16q41 0 81.5 -13t65.5 -44zM171 313q49 -5 85.5 -5t65.5 3q14 2 17.5 9t3.5 20q0 22 -8 36t-20.5 21.5t-29.5 10.5t-35 3q-25 0 -45 -6.5t-34.5 -18t-22.5 -26t-8 -30.5q0 -9 8.5 -12.5t22.5 -4.5zM83 585q0 19 11.5 32.5
t36.5 13.5q16 0 28 -13.5t12 -32.5q0 -22 -10.5 -35t-31.5 -13q-26 0 -36 14.5t-10 33.5zM302 585q0 20 9 33t34 13q24 0 34.5 -12.5t10.5 -29.5q0 -23 -9.5 -37.5t-32.5 -14.5q-26 0 -36 15.5t-10 32.5z" />
    <glyph glyph-name="igrave" unicode="&#xec;" horiz-adv-x="274" 
d="M87 94q4 35 7 72.5t2 75.5q-1 43 -3 82t-5 77q-1 12 5.5 19.5t24.5 8.5q17 0 29 -7.5t14 -16.5q5 -23 6.5 -49.5t2.5 -54.5q0 -35 -1 -76t-7 -76t-17 -58.5t-30 -21.5q-20 1 -24 7.5t-4 17.5zM130 509q-5 -5 -8 -5.5t-6 0.5q-18 8 -32.5 20.5t-25 26.5t-18 28t-12.5 26
q-11 26 -6.5 40t21.5 20q7 3 15.5 3t10.5 -8q11 -35 26 -67.5t34 -66.5q2 -5 4 -8.5t-3 -8.5z" />
    <glyph glyph-name="iacute" unicode="&#xed;" horiz-adv-x="259" 
d="M72 94q4 35 7 72.5t2 75.5q-1 43 -3 82t-5 77q-1 12 5.5 19.5t24.5 8.5q17 0 29 -7.5t14 -16.5q5 -23 6.5 -49.5t2.5 -54.5q0 -35 -1 -76t-7 -76t-17 -58.5t-30 -21.5q-20 1 -24 7.5t-4 17.5zM80 508q-6 6 1 18q19 31 34 64.5t26 68.5q2 8 10.5 8t15.5 -2q17 -6 25 -18
t-3 -40q-8 -23 -28.5 -54t-57.5 -48q-15 -7 -23 3z" />
    <glyph glyph-name="icircumflex" unicode="&#xee;" horiz-adv-x="339" 
d="M118 94q4 35 7 72.5t2 75.5q-1 43 -3 82t-5 77q-1 12 5.5 19.5t24.5 8.5q17 0 29 -7.5t14 -16.5q5 -23 6.5 -49.5t2.5 -54.5q0 -35 -1 -76t-7 -76t-17 -58.5t-30 -21.5q-20 1 -24 7.5t-4 17.5zM185 656q26 -40 50 -70.5t49 -56.5q10 -10 -4 -25q-8 -9 -16 -7.5t-22 11.5
q-20 14 -43 37t-44 53q-4 5 -5.5 5t-6.5 -5q-17 -27 -32.5 -47.5t-37.5 -36.5q-20 -14 -40 -4q-10 5 -11.5 11t3.5 11q27 27 50 59.5t43 65.5q5 8 12 12t20 4q24 0 35 -17z" />
    <glyph glyph-name="idieresis" unicode="&#xef;" horiz-adv-x="366" 
d="M144 94q4 35 7 72.5t2 75.5q-1 43 -3 82t-5 77q-1 12 5.5 19.5t24.5 8.5q17 0 29 -7.5t14 -16.5q5 -23 6.5 -49.5t2.5 -54.5q0 -35 -1 -76t-7 -76t-17 -58.5t-30 -21.5q-20 1 -24 7.5t-4 17.5zM45 574q0 19 11.5 32.5t36.5 13.5q16 0 28 -13.5t12 -32.5q0 -22 -10.5 -35
t-31.5 -13q-26 0 -36 14.5t-10 33.5zM224 574q0 20 9 33t34 13q24 0 34.5 -12.5t10.5 -29.5q0 -23 -9.5 -37.5t-32.5 -14.5q-26 0 -36 15.5t-10 32.5z" />
    <glyph glyph-name="eth" unicode="&#xf0;" horiz-adv-x="526" 
d="M224 546q-14 -3 -33 -6t-35 -2q-20 1 -29.5 9.5t-13.5 23.5q-3 10 0.5 17t12.5 9q26 3 63 11q26 5 54 12q-5 7 -10.5 13t-10.5 13q-11 11 -1.5 19.5t37.5 7.5q20 -1 34 -10.5t25 -23.5q16 4 31 9q41 13 76 24q8 3 14 -0.5t9 -13.5q2 -15 -5.5 -26.5t-18.5 -19.5
q-11 -9 -24 -14t-23 -9t-22 -8q62 -116 62 -288q0 -62 -15 -102.5t-41.5 -64.5t-62 -34t-76.5 -10q-81 0 -119.5 44.5t-41.5 117.5q-2 39 7 75t26.5 64.5t42 47t53.5 23.5q32 6 65 1.5t65 -17.5q-8 35 -17 64.5t-22 55.5q-32 -9 -56 -12zM243 148q41 0 65 30t24 96
q0 64 -19 88t-70 24q-30 0 -50.5 -14t-33.5 -35t-18 -46t-4 -48q1 -18 5 -35.5t15 -30.5t31 -21t55 -8z" />
    <glyph glyph-name="ntilde" unicode="&#xf1;" horiz-adv-x="515" 
d="M348 78q-16 4 -18 9.5t1 22.5q7 31 9.5 63.5t2.5 63t-2.5 57t-5.5 47.5q-10 65 -74 68q-37 2 -62 -7t-36 -30q-7 -14 -10 -43q-3 -35 -5.5 -82.5t-6.5 -90.5q-3 -32 -13 -49.5t-33 -19.5q-5 0 -11.5 0.5t-11.5 2.5t-8.5 5.5t-2.5 9.5q3 47 7.5 103t10.5 110q5 48 3.5 88
t-7.5 64q-8 27 19 31q17 2 31.5 -3.5t18.5 -18.5q4 -11 5 -25q1 -5 5 -5.5t7 1.5q25 19 54.5 26.5t55.5 7.5q35 0 67.5 -15.5t50.5 -41.5q16 -21 21 -51t7 -54q1 -13 1.5 -34.5t-0.5 -47t-3.5 -52.5t-8.5 -50q-2 -11 -6 -23.5t-11 -22t-17.5 -14t-23.5 -0.5zM124 556
q-24 0 -15 36q6 24 11.5 43.5t14.5 33.5t22.5 22t34.5 8q16 0 28.5 -12t24 -27t23.5 -27t28 -12q20 0 37 19t29 51q4 11 19 4q15 -8 12 -28t-10.5 -40t-19.5 -36.5t-29.5 -26.5t-39.5 -10q-23 0 -42 14t-38 48q-8 14 -21 14t-22 -13t-21 -47q-6 -14 -26 -14z" />
    <glyph glyph-name="ograve" unicode="&#xf2;" horiz-adv-x="503" 
d="M58 290q0 47 15 84.5t39.5 63.5t56 39.5t65.5 13.5q46 0 77.5 -15t51.5 -41.5t29 -62.5t11 -78q2 -47 -9 -85t-32 -65.5t-51.5 -44.5t-67.5 -20q-29 -2 -50 1t-41 14q-46 30 -70 81t-24 115zM330 278q0 78 -25 109t-67 31q-25 0 -44.5 -11t-32.5 -29t-20 -41.5t-7 -48.5
q0 -71 27.5 -105t69.5 -34q45 0 72 33.5t27 95.5zM253 561q-5 -5 -8 -5.5t-6 0.5q-18 8 -32.5 20.5t-25 26.5t-18 28t-12.5 26q-11 26 -6.5 40t21.5 20q7 3 15.5 3t10.5 -8q11 -35 26 -67.5t34 -66.5q2 -5 4 -8.5t-3 -8.5z" />
    <glyph glyph-name="oacute" unicode="&#xf3;" horiz-adv-x="503" 
d="M58 290q0 47 15 84.5t39.5 63.5t56 39.5t65.5 13.5q46 0 77.5 -15t51.5 -41.5t29 -62.5t11 -78q2 -47 -9 -85t-32 -65.5t-51.5 -44.5t-67.5 -20q-29 -2 -50 1t-41 14q-46 30 -70 81t-24 115zM330 278q0 78 -25 109t-67 31q-25 0 -44.5 -11t-32.5 -29t-20 -41.5t-7 -48.5
q0 -71 27.5 -105t69.5 -34q45 0 72 33.5t27 95.5zM190 550q-6 6 1 18q19 31 34 64.5t26 68.5q2 8 10.5 8t15.5 -2q17 -6 25 -18t-3 -40q-8 -23 -28.5 -54t-57.5 -48q-15 -7 -23 3z" />
    <glyph glyph-name="ocircumflex" unicode="&#xf4;" horiz-adv-x="503" 
d="M58 290q0 47 15 84.5t39.5 63.5t56 39.5t65.5 13.5q46 0 77.5 -15t51.5 -41.5t29 -62.5t11 -78q2 -47 -9 -85t-32 -65.5t-51.5 -44.5t-67.5 -20q-29 -2 -50 1t-41 14q-46 30 -70 81t-24 115zM330 278q0 78 -25 109t-67 31q-25 0 -44.5 -11t-32.5 -29t-20 -41.5t-7 -48.5
q0 -71 27.5 -105t69.5 -34q45 0 72 33.5t27 95.5zM266 691q26 -40 50 -70.5t49 -56.5q10 -10 -4 -25q-8 -9 -16 -7.5t-22 11.5q-20 14 -43 37t-44 53q-4 5 -5.5 5t-6.5 -5q-17 -27 -32.5 -47.5t-37.5 -36.5q-20 -14 -40 -4q-10 5 -11.5 11t3.5 11q27 27 50 59.5t43 65.5
q5 8 12 12t20 4q24 0 35 -17z" />
    <glyph glyph-name="otilde" unicode="&#xf5;" horiz-adv-x="503" 
d="M58 290q0 47 15 84.5t39.5 63.5t56 39.5t65.5 13.5q46 0 77.5 -15t51.5 -41.5t29 -62.5t11 -78q2 -47 -9 -85t-32 -65.5t-51.5 -44.5t-67.5 -20q-29 -2 -50 1t-41 14q-46 30 -70 81t-24 115zM330 278q0 78 -25 109t-67 31q-25 0 -44.5 -11t-32.5 -29t-20 -41.5t-7 -48.5
q0 -71 27.5 -105t69.5 -34q45 0 72 33.5t27 95.5zM101 553q-24 0 -15 36q6 24 11.5 43.5t14.5 33.5t22.5 22t34.5 8q16 0 28.5 -12t24 -27t23.5 -27t28 -12q20 0 37 19t29 51q4 11 19 4q15 -8 12 -28t-10.5 -40t-19.5 -36.5t-29.5 -26.5t-39.5 -10q-23 0 -42 14t-38 48
q-8 14 -21 14t-22 -13t-21 -47q-6 -14 -26 -14z" />
    <glyph glyph-name="odieresis" unicode="&#xf6;" horiz-adv-x="503" 
d="M58 290q0 47 15 84.5t39.5 63.5t56 39.5t65.5 13.5q46 0 77.5 -15t51.5 -41.5t29 -62.5t11 -78q2 -47 -9 -85t-32 -65.5t-51.5 -44.5t-67.5 -20q-29 -2 -50 1t-41 14q-46 30 -70 81t-24 115zM330 278q0 78 -25 109t-67 31q-25 0 -44.5 -11t-32.5 -29t-20 -41.5t-7 -48.5
q0 -71 27.5 -105t69.5 -34q45 0 72 33.5t27 95.5zM89 604q0 19 11.5 32.5t36.5 13.5q16 0 28 -13.5t12 -32.5q0 -22 -10.5 -35t-31.5 -13q-26 0 -36 14.5t-10 33.5zM308 604q0 20 9 33t34 13q24 0 34.5 -12.5t10.5 -29.5q0 -23 -9.5 -37.5t-32.5 -14.5q-26 0 -36 15.5
t-10 32.5z" />
    <glyph glyph-name="divide" unicode="&#xf7;" horiz-adv-x="380" 
d="M179 303q-29 0 -56.5 1.5t-56.5 7.5q-19 5 -26.5 16t-7.5 26q0 22 19 22q27 -3 59 -4.5t67.5 -1t72.5 2t73 4.5q19 0 19 -20q-2 -15 -11.5 -24t-22.5 -14q-30 -10 -63.5 -13t-65.5 -3zM135 481q0 19 11.5 33t36.5 13q20 -2 30 -14t10 -32q0 -18 -10.5 -33t-31.5 -15
q-26 0 -36 14.5t-10 33.5zM135 186q0 19 11.5 33t36.5 13q20 -2 30 -14t10 -32q0 -18 -10.5 -33t-31.5 -15q-26 0 -36 14.5t-10 33.5z" />
    <glyph glyph-name="oslash" unicode="&#xf8;" horiz-adv-x="507" 
d="M57 290q-2 41 11.5 76.5t36 62t50.5 43t55 18.5q54 4 93 -11q13 28 24 57q5 10 16 10.5t25 -3.5q19 -5 28 -12t5 -21q-6 -23 -13.5 -45.5t-15.5 -44.5q15 -26 22 -58t8 -68q2 -47 -8.5 -85t-31.5 -65.5t-52 -44.5t-68 -20q-29 -2 -49 0.5t-39 12.5q-17 -15 -30.5 -26
t-30.5 -19q-13 -6 -25.5 -6.5t-23.5 10.5q-6 7 -5 14t6 12q13 12 27 27.5t28 37.5q-45 61 -43 148zM271 412q-22 8 -53 5q-22 -3 -38.5 -16.5t-27 -33t-15.5 -43t-4 -45.5q3 -44 15 -72q70 100 123 205zM238 149q44 5 66.5 37.5t24.5 91.5q-2 22 -3 42q-26 -49 -55.5 -92
t-60.5 -78q12 -3 28 -1z" />
    <glyph glyph-name="ugrave" unicode="&#xf9;" horiz-adv-x="518" 
d="M397 84q-14 -5 -26.5 -1.5t-20.5 17.5q-3 5 -5 10t-4 12q-15 -22 -44 -29.5t-61 -7.5q-29 0 -56 4t-49.5 14.5t-38.5 28.5t-22 46q-6 30 -8 63.5t-1 68t4 68.5t7 65q1 10 2 18.5t3.5 15t7.5 9.5t15 3q28 -2 36.5 -14.5t6.5 -37.5q-5 -52 -5.5 -100.5t1.5 -90.5
q1 -25 3 -39t6 -21.5t11 -10.5t18 -7q33 -11 62.5 -12t53.5 5q16 4 28 12t16 36q2 18 3 45.5t1 60t-1.5 66.5t-3.5 65q-2 23 3.5 30.5t22.5 7.5q23 0 33 -7.5t12 -24.5q3 -21 3 -47.5t-1 -56t-2 -61t0 -62.5q1 -39 3 -66t7 -45q4 -13 -2 -19.5t-18 -10.5zM243 551
q-5 -5 -8 -5.5t-6 0.5q-18 8 -32.5 20.5t-25 26.5t-18 28t-12.5 26q-11 26 -6.5 40t21.5 20q7 3 15.5 3t10.5 -8q11 -35 26 -67.5t34 -66.5q2 -5 4 -8.5t-3 -8.5z" />
    <glyph glyph-name="uacute" unicode="&#xfa;" horiz-adv-x="518" 
d="M397 84q-14 -5 -26.5 -1.5t-20.5 17.5q-3 5 -5 10t-4 12q-15 -22 -44 -29.5t-61 -7.5q-29 0 -56 4t-49.5 14.5t-38.5 28.5t-22 46q-6 30 -8 63.5t-1 68t4 68.5t7 65q1 10 2 18.5t3.5 15t7.5 9.5t15 3q28 -2 36.5 -14.5t6.5 -37.5q-5 -52 -5.5 -100.5t1.5 -90.5
q1 -25 3 -39t6 -21.5t11 -10.5t18 -7q33 -11 62.5 -12t53.5 5q16 4 28 12t16 36q2 18 3 45.5t1 60t-1.5 66.5t-3.5 65q-2 23 3.5 30.5t22.5 7.5q23 0 33 -7.5t12 -24.5q3 -21 3 -47.5t-1 -56t-2 -61t0 -62.5q1 -39 3 -66t7 -45q4 -13 -2 -19.5t-18 -10.5zM215 553q-6 6 1 18
q19 31 34 64.5t26 68.5q2 8 10.5 8t15.5 -2q17 -6 25 -18t-3 -40q-8 -23 -28.5 -54t-57.5 -48q-15 -7 -23 3z" />
    <glyph glyph-name="ucircumflex" unicode="&#xfb;" horiz-adv-x="518" 
d="M397 84q-14 -5 -26.5 -1.5t-20.5 17.5q-3 5 -5 10t-4 12q-15 -22 -44 -29.5t-61 -7.5q-29 0 -56 4t-49.5 14.5t-38.5 28.5t-22 46q-6 30 -8 63.5t-1 68t4 68.5t7 65q1 10 2 18.5t3.5 15t7.5 9.5t15 3q28 -2 36.5 -14.5t6.5 -37.5q-5 -52 -5.5 -100.5t1.5 -90.5
q1 -25 3 -39t6 -21.5t11 -10.5t18 -7q33 -11 62.5 -12t53.5 5q16 4 28 12t16 36q2 18 3 45.5t1 60t-1.5 66.5t-3.5 65q-2 23 3.5 30.5t22.5 7.5q23 0 33 -7.5t12 -24.5q3 -21 3 -47.5t-1 -56t-2 -61t0 -62.5q1 -39 3 -66t7 -45q4 -13 -2 -19.5t-18 -10.5zM265 696
q26 -40 50 -70.5t49 -56.5q10 -10 -4 -25q-8 -9 -16 -7.5t-22 11.5q-20 14 -43 37t-44 53q-4 5 -5.5 5t-6.5 -5q-17 -27 -32.5 -47.5t-37.5 -36.5q-20 -14 -40 -4q-10 5 -11.5 11t3.5 11q27 27 50 59.5t43 65.5q5 8 12 12t20 4q24 0 35 -17z" />
    <glyph glyph-name="udieresis" unicode="&#xfc;" horiz-adv-x="518" 
d="M397 84q-14 -5 -26.5 -1.5t-20.5 17.5q-3 5 -5 10t-4 12q-15 -22 -44 -29.5t-61 -7.5q-29 0 -56 4t-49.5 14.5t-38.5 28.5t-22 46q-6 30 -8 63.5t-1 68t4 68.5t7 65q1 10 2 18.5t3.5 15t7.5 9.5t15 3q28 -2 36.5 -14.5t6.5 -37.5q-5 -52 -5.5 -100.5t1.5 -90.5
q1 -25 3 -39t6 -21.5t11 -10.5t18 -7q33 -11 62.5 -12t53.5 5q16 4 28 12t16 36q2 18 3 45.5t1 60t-1.5 66.5t-3.5 65q-2 23 3.5 30.5t22.5 7.5q23 0 33 -7.5t12 -24.5q3 -21 3 -47.5t-1 -56t-2 -61t0 -62.5q1 -39 3 -66t7 -45q4 -13 -2 -19.5t-18 -10.5zM85 607
q0 19 11.5 32.5t36.5 13.5q16 0 28 -13.5t12 -32.5q0 -22 -10.5 -35t-31.5 -13q-26 0 -36 14.5t-10 33.5zM304 607q0 20 9 33t34 13q24 0 34.5 -12.5t10.5 -29.5q0 -23 -9.5 -37.5t-32.5 -14.5q-26 0 -36 15.5t-10 32.5z" />
    <glyph glyph-name="yacute" unicode="&#xfd;" horiz-adv-x="472" 
d="M44 -40q-13 16 9 31q15 10 31.5 24.5t33.5 31.5t33 35t28 35q10 14 10 21.5t-15 26.5q-45 61 -79 128t-59 133q-6 21 -3 35t22 25q11 6 18.5 -2t13.5 -24q10 -26 25 -56.5t32.5 -61.5t36 -59t35.5 -50q19 -24 31 -5q40 66 60.5 122t30.5 95q5 23 12.5 32.5t26.5 2.5
q28 -11 34 -33t-2 -52q-14 -51 -41 -110.5t-63 -117t-79.5 -109t-91.5 -85.5q-63 -45 -90 -13zM192 512q-6 6 1 18q19 31 34 64.5t26 68.5q2 8 10.5 8t15.5 -2q17 -6 25 -18t-3 -40q-8 -23 -28.5 -54t-57.5 -48q-15 -7 -23 3z" />
    <glyph glyph-name="thorn" unicode="&#xfe;" horiz-adv-x="533" 
d="M66 -28q11 85 15.5 172t4 171.5t-4.5 165t-10 152.5q-2 15 8 22t28 6q42 -1 45 -31q4 -43 6.5 -86t4.5 -88q37 31 78 34q53 5 89 -8.5t58.5 -40.5t33 -65t11.5 -82q2 -47 -8.5 -85t-31.5 -65.5t-52 -44.5t-68 -20q-29 -2 -50 1t-41 14q-15 9 -27 21q-2 -28 -5.5 -55
t-7.5 -54q-6 -42 -23.5 -52.5t-34.5 -5.5q-21 6 -18 24zM360 278q0 77 -24.5 108.5t-64.5 31.5q-55 0 -81 -39t-26 -96q0 -59 27 -96.5t68 -37.5q47 0 74 35t27 94z" />
    <glyph glyph-name="ydieresis" unicode="&#xff;" horiz-adv-x="472" 
d="M44 -40q-13 16 9 31q15 10 31.5 24.5t33.5 31.5t33 35t28 35q10 14 10 21.5t-15 26.5q-45 61 -79 128t-59 133q-6 21 -3 35t22 25q11 6 18.5 -2t13.5 -24q10 -26 25 -56.5t32.5 -61.5t36 -59t35.5 -50q19 -24 31 -5q40 66 60.5 122t30.5 95q5 23 12.5 32.5t26.5 2.5
q28 -11 34 -33t-2 -52q-14 -51 -41 -110.5t-63 -117t-79.5 -109t-91.5 -85.5q-63 -45 -90 -13zM74 604q0 19 11.5 32.5t36.5 13.5q16 0 28 -13.5t12 -32.5q0 -22 -10.5 -35t-31.5 -13q-26 0 -36 14.5t-10 33.5zM293 604q0 20 9 33t34 13q24 0 34.5 -12.5t10.5 -29.5
q0 -23 -9.5 -37.5t-32.5 -14.5q-26 0 -36 15.5t-10 32.5z" />
    <glyph glyph-name="dotlessi" unicode="&#x131;" horiz-adv-x="241" 
d="M63 94q5 75 6 155t-5 152q-1 12 5.5 19.5t24.5 8.5q17 0 29 -7.5t14 -16.5q5 -23 6.5 -49.5t2.5 -54.5q0 -35 -1.5 -75.5t-7.5 -75t-17 -58t-29 -23.5q-20 0 -24.5 7t-3.5 18z" />
    <glyph glyph-name="OE" unicode="&#x152;" horiz-adv-x="723" 
d="M206 110q-45 18 -72 46t-42.5 59.5t-21 63.5t-6.5 58q-2 50 19 104t63 93q29 27 65.5 45.5t75.5 26.5q52 12 98 3q1 0 1 -0.5t1 -0.5q9 2 19.5 3.5t23.5 3.5q35 4 74 5.5t81 -2.5q12 -1 19 -9t5 -26q-2 -20 -19 -30.5t-43 -10.5t-57 -3.5t-69 -9.5q-17 -2 -24 -15
t-10 -26q-3 -10 -5.5 -27.5t-4.5 -34.5q-1 -15 4.5 -25.5t19.5 -10.5q30 0 54 1t44.5 2.5t39 3.5t38.5 4q18 2 24.5 -4t8.5 -24q2 -23 -8.5 -33t-32.5 -12q-21 -2 -37 -4t-30 -4t-27.5 -3t-29.5 -2q-26 -1 -40 -4t-21 -7.5t-9 -10.5t-3 -13q-2 -17 -2.5 -33t2.5 -30
q5 -24 20.5 -35.5t57.5 -11.5q40 0 81 4.5t88 18.5q12 4 19.5 3.5t9.5 -15.5q3 -25 -5.5 -39t-25.5 -19q-53 -15 -108 -21t-115 0q-40 -12 -91.5 -11t-96.5 19zM204 474q-25 -25 -38 -63t-11 -79q2 -43 16 -71t34 -46q20 -19 43.5 -28.5t49.5 -12.5q-13 85 -11.5 177.5
t21.5 171.5q0 2 2 8q-35 -8 -60.5 -22.5t-45.5 -34.5z" />
    <glyph glyph-name="oe" unicode="&#x153;" horiz-adv-x="766" 
d="M658 418q14 -17 19.5 -36t5.5 -41q1 -29 -14 -53.5t-53 -28.5q-40 -4 -90.5 -3t-102.5 6q-13 2 -16 -14q-5 -25 2 -50q4 -16 16.5 -26t29.5 -16t36.5 -8.5t38.5 -3.5q29 -2 59.5 3.5t52.5 16.5q20 11 27 2q20 -25 -5 -47q-26 -22 -64.5 -32t-77.5 -7q-58 5 -97.5 19.5
t-62.5 42.5q-43 -57 -119 -63q-29 -2 -50 1t-41 14q-46 30 -70.5 81t-23.5 115q-2 41 11.5 76.5t36 62t50.5 43t55 18.5q65 6 104.5 -15t60.5 -60q26 29 62 45t81 15q39 -1 77.5 -14.5t61.5 -42.5zM439 313q49 -5 85.5 -5.5t65.5 3.5q14 2 17.5 9t3.5 20q0 21 -7 34
t-18.5 21t-27 11.5t-31.5 4.5q-27 1 -46.5 -4t-33.5 -14.5t-22.5 -21.5t-12.5 -25q-8 -20 0 -25.5t27 -7.5zM239 149q44 5 67 37.5t24 91.5q0 43 -8 71.5t-23 44t-35.5 21t-44.5 2.5q-22 -3 -38.5 -16.5t-27 -33t-15.5 -43t-4 -45.5q5 -72 34 -103.5t71 -26.5z" />
    <glyph glyph-name="Scaron" unicode="&#x160;" horiz-adv-x="489" 
d="M91 228q29 -26 71.5 -41t90.5 -15q37 0 58.5 17.5t21.5 57.5q0 16 -4 30t-15 26t-30.5 21.5t-50.5 17.5q-17 4 -35 7.5t-35.5 9.5t-33.5 15.5t-29 25.5q-15 18 -20.5 35t-5.5 38q0 41 13.5 71.5t36.5 50t55 29t68 9.5q33 0 65.5 -9t59.5 -24q14 -8 21.5 -16.5t4.5 -19.5
q-5 -15 -20.5 -21.5t-39.5 0.5q-20 8 -46 10.5t-42 2.5q-35 -2 -59 -17t-29 -55q-2 -24 10.5 -43t33.5 -28q14 -5 28 -8.5t30 -5.5q24 -5 47 -12t43 -22q16 -11 27.5 -22t18 -24.5t9.5 -30.5t3 -39q0 -37 -8.5 -61.5t-28.5 -47.5q-19 -21 -48.5 -34t-68.5 -13q-54 0 -104 19
t-85 55q-14 14 -17 30.5t11 31.5q11 13 28 -1zM100 850q15 9 26.5 3t18.5 -15q14 -21 31 -44t36 -41q8 -8 13 -8t13 9q19 21 34.5 45t26.5 43q4 7 8.5 11.5t13.5 4.5q31 0 31 -18q0 -6 -3 -13t-6 -13q-14 -25 -36.5 -53.5t-46.5 -50.5q-9 -9 -19 -12t-22 -3t-20 4.5
t-14 11.5q-25 24 -47 52.5t-38 55.5q-6 9 -8 17t8 14z" />
    <glyph glyph-name="scaron" unicode="&#x161;" horiz-adv-x="438" 
d="M61 187q4 10 14.5 8.5t19.5 -6.5q22 -12 45 -20t60 -8q23 0 41.5 2t31 8t18 17.5t4.5 30.5q-2 12 -5.5 22t-13 17.5t-26.5 13.5t-44 9q-29 4 -60 9.5t-55 28.5q-17 14 -23 29.5t-6 37.5q0 31 14.5 53.5t37.5 36.5t51.5 20.5t57.5 6.5q25 0 48.5 -5.5t39.5 -13.5t20 -14.5
t2 -14.5q-5 -15 -17 -18.5t-30 1.5q-11 3 -32 4.5t-35 0.5q-12 -1 -26 -3.5t-26 -8.5t-20.5 -17.5t-9.5 -29.5q-1 -21 11.5 -29.5t31.5 -13.5q32 -8 64.5 -11t63.5 -17q59 -28 62 -96q1 -19 -6.5 -40.5t-25.5 -38.5q-20 -18 -50.5 -28.5t-82.5 -10.5q-35 0 -68.5 9.5
t-57.5 26.5q-17 12 -21 24t3 28zM70 712q15 9 26.5 3t18.5 -15q14 -21 31 -44t36 -41q8 -8 13 -8t13 9q19 21 34.5 45t26.5 43q4 7 8.5 11.5t13.5 4.5q31 0 31 -18q0 -6 -3 -13t-6 -13q-14 -25 -36.5 -53.5t-46.5 -50.5q-9 -9 -19 -12t-22 -3t-20 4.5t-14 11.5
q-25 24 -47 52.5t-38 55.5q-6 9 -8 17t8 14z" />
    <glyph glyph-name="Ydieresis" unicode="&#x178;" horiz-adv-x="501" 
d="M197 134q0 34 2.5 61t3.5 62q1 29 -1 39.5t-9 18.5q-44 62 -83 121.5t-71 119.5q-10 18 -9 31t19 23q13 7 25.5 0.5t22.5 -23.5q30 -54 61 -104t61 -82q16 -19 25.5 -17t29.5 29q28 36 59 87.5t51 104.5q7 18 16 21.5t24 -4.5q26 -15 29 -35t-11 -47q-24 -49 -63.5 -105
t-84.5 -115q-8 -12 -14.5 -26t-5.5 -29q2 -45 -0.5 -82t-4.5 -70q-2 -23 -18 -26t-33 1q-7 2 -14 9.5t-7 36.5zM88 724q0 19 11.5 32.5t36.5 13.5q16 0 28 -13.5t12 -32.5q0 -22 -10.5 -35t-31.5 -13q-26 0 -36 14.5t-10 33.5zM307 724q0 20 9 33t34 13q24 0 34.5 -12.5
t10.5 -29.5q0 -23 -9.5 -37.5t-32.5 -14.5q-26 0 -36 15.5t-10 32.5z" />
    <glyph glyph-name="Zcaron" unicode="&#x17d;" horiz-adv-x="541" 
d="M83 130q-22 8 -22 37q-1 11 3.5 21t15.5 23q61 70 121 147t103 144q17 27 10 38.5t-51 9.5q-17 -1 -38.5 -2t-44 -2.5l-45 -3t-41.5 -3.5q-25 -2 -35.5 4t-16.5 23q-11 30 18 37q69 16 137.5 21t140.5 3q20 -1 36 -9.5t20 -27.5q6 -29 4 -46.5t-13 -37.5
q-42 -77 -98.5 -150t-111.5 -140q-15 -19 -8.5 -28t46.5 -8q57 2 116.5 11t113.5 30q19 10 27 -7q6 -12 4.5 -22t-8.5 -18.5t-16 -14.5t-18 -10q-37 -17 -74 -23t-79 -10q-49 -5 -101.5 -3t-94.5 17zM81 851q15 9 26.5 3t18.5 -15q14 -21 31 -44t36 -41q8 -8 13 -8t13 9
q19 21 34.5 45t26.5 43q4 7 8.5 11.5t13.5 4.5q31 0 31 -18q0 -6 -3 -13t-6 -13q-14 -25 -36.5 -53.5t-46.5 -50.5q-9 -9 -19 -12t-22 -3t-20 4.5t-14 11.5q-25 24 -47 52.5t-38 55.5q-6 9 -8 17t8 14z" />
    <glyph glyph-name="zcaron" unicode="&#x17e;" horiz-adv-x="478" 
d="M76 113q-9 3 -17 8t-8 17q0 9 1 17t11 17q51 54 91 98.5t76 92.5q31 40 29 52.5t-34 14.5q-31 2 -62 2t-60 -3q-31 -3 -47 0.5t-20 26.5q-2 11 3 18.5t16 9.5q57 13 120.5 18.5t129.5 4.5q17 -1 30 -7t16 -22q5 -24 3 -40t-9 -27q-36 -63 -81 -116t-95 -105
q-14 -14 -8 -22t42 -7q50 3 97.5 10.5t95.5 24.5q11 5 20 -0.5t12 -21.5q3 -15 -8 -23.5t-19 -13.5q-26 -14 -66.5 -23t-83.5 -14q-44 -5 -90.5 -3t-84.5 16zM63 715q15 9 26.5 3t18.5 -15q14 -21 31 -44t36 -41q8 -8 13 -8t13 9q19 21 34.5 45t26.5 43q4 7 8.5 11.5
t13.5 4.5q31 0 31 -18q0 -6 -3 -13t-6 -13q-14 -25 -36.5 -53.5t-46.5 -50.5q-9 -9 -19 -12t-22 -3t-20 4.5t-14 11.5q-25 24 -47 52.5t-38 55.5q-6 9 -8 17t8 14z" />
    <glyph glyph-name="florin" unicode="&#x192;" horiz-adv-x="455" 
d="M150 -47q-80 0 -123 43q-25 25 -9 50q6 9 14.5 11.5t15.5 -3.5q15 -12 37 -22t43 -12q28 -3 46 6.5t18 41.5q0 72 -4.5 146.5t-12.5 155.5q-1 13 -13 13q-21 0 -48 -0.5t-45 1.5q-13 1 -19 9t-7 20q-1 14 5 21.5t18 11.5q16 5 44 8t54 3q14 0 16 2.5t2 16.5q1 23 4.5 50
t13.5 50t29 39.5t51 18.5q42 2 70.5 -6t45.5 -19q27 -16 10 -48q-4 -7 -9.5 -7.5t-10.5 1.5q-18 7 -38 12t-40 3q-11 -2 -21.5 -7.5t-15.5 -16.5q-8 -17 -9.5 -36.5t-1.5 -36.5q0 -8 3 -11t14 -3q9 0 24 -1t31.5 -3t31.5 -4.5t25 -4.5q14 -3 19 -9t4 -19q-1 -19 -9.5 -26.5
t-22.5 -7.5h-48t-52 -1q-15 -1 -20 -5.5t-3 -18.5q8 -78 13 -147t5 -135q0 -64 -32.5 -94t-92.5 -30z" />
    <glyph glyph-name="circumflex" unicode="&#x2c6;" 
d="M218 620q26 -40 50 -70.5t49 -56.5q10 -10 -4 -25q-8 -9 -16 -7.5t-22 11.5q-20 14 -43 37t-44 53q-4 5 -5.5 5t-6.5 -5q-17 -27 -32.5 -47.5t-37.5 -36.5q-20 -14 -40 -4q-10 5 -11.5 11t3.5 11q27 27 50 59.5t43 65.5q5 8 12 12t20 4q24 0 35 -17z" />
    <glyph glyph-name="caron" unicode="&#x2c7;" 
d="M75 626q15 9 26.5 3t18.5 -15q14 -21 31 -44t36 -41q8 -8 13 -8t13 9q19 21 34.5 45t26.5 43q4 7 8.5 11.5t13.5 4.5q31 0 31 -18q0 -6 -3 -13t-6 -13q-14 -25 -36.5 -53.5t-46.5 -50.5q-9 -9 -19 -12t-22 -3t-20 4.5t-14 11.5q-25 24 -47 52.5t-38 55.5q-6 9 -8 17t8 14
z" />
    <glyph glyph-name="ring" unicode="&#x2da;" 
d="M79 555q0 21 8 40.5t22 34t33 23t41 8.5q62 0 88 -28.5t28 -75.5q3 -49 -26 -79.5t-79 -33.5q-37 -3 -60 8q-30 16 -42 42.5t-13 60.5zM189 488q26 0 40 16.5t14 45.5q0 38 -13.5 52t-34.5 14q-36 0 -51.5 -20t-15.5 -46q0 -29 19 -45.5t42 -16.5z" />
    <glyph glyph-name="tilde" unicode="&#x2dc;" horiz-adv-x="477" 
d="M109 559q-24 0 -15 36q6 24 11.5 43.5t14.5 33.5t22.5 22t34.5 8q16 0 28.5 -12t24 -27t23.5 -27t28 -12q20 0 37 19t29 51q4 11 19 4q15 -8 12 -28t-10.5 -40t-19.5 -36.5t-29.5 -26.5t-39.5 -10q-23 0 -42 14t-38 48q-8 14 -21 14t-22 -13t-21 -47q-6 -14 -26 -14z" />
    <glyph glyph-name="uni0302" unicode="&#x302;" 
d="M213 624q26 -40 50 -70.5t49 -56.5q10 -10 -4 -25q-8 -9 -16 -7.5t-22 11.5q-20 14 -43 37t-44 53q-4 5 -5.5 5t-6.5 -5q-17 -27 -32.5 -47.5t-37.5 -36.5q-20 -14 -40 -4q-10 5 -11.5 11t3.5 11q27 27 50 59.5t43 65.5q5 8 12 12t20 4q24 0 35 -17z" />
    <glyph glyph-name="tildecomb" unicode="&#x303;" 
d="M75 486q-24 0 -15 36q6 24 11.5 43.5t14.5 33.5t22.5 22t34.5 8q16 0 28.5 -12t24 -27t23.5 -27t28 -12q20 0 37 19t29 51q4 11 19 4q15 -8 12 -28t-10.5 -40t-19.5 -36.5t-29.5 -26.5t-39.5 -10q-23 0 -42 14t-38 48q-8 14 -21 14t-22 -13t-21 -47q-6 -14 -26 -14z" />
    <glyph glyph-name="endash" unicode="&#x2013;" 
d="M56 273q-26 8 -32.5 20t-6.5 24q0 20 19 17q69 -10 153 -10.5t164 11.5q10 2 14 -5t5 -15q2 -17 -4.5 -25t-20.5 -12q-32 -10 -71 -15t-78.5 -5.5t-76.5 3.5t-65 12z" />
    <glyph glyph-name="emdash" unicode="&#x2014;" horiz-adv-x="810" 
d="M87 281q-39 5 -54.5 16t-13.5 25q3 31 35 28q169 -17 337.5 -16.5t337.5 18.5q20 2 29 -5t11 -22t-4.5 -22.5t-29.5 -12.5q-163 -30 -324 -30.5t-324 21.5z" />
    <glyph glyph-name="quoteleft" unicode="&#x2018;" horiz-adv-x="262" 
d="M133 641q-3 -11 9 -11q13 0 24 -7q8 -6 12 -13.5t4 -19.5q0 -23 -11.5 -33t-31.5 -10q-23 0 -34.5 14.5t-13.5 38.5q-2 31 12 65t36 56q9 9 17 9q6 0 12 -6t-1 -14q-10 -11 -19.5 -28.5t-14.5 -40.5z" />
    <glyph glyph-name="quoteright" unicode="&#x2019;" horiz-adv-x="262" 
d="M112 630q0 4 -2 7.5t-7 4.5q-7 1 -12.5 2t-11.5 5q-18 10 -18 35q0 23 12 33t32 10q26 0 36.5 -14t10.5 -40q0 -9 -1.5 -28t-6.5 -39q-11 -40 -35 -59q-10 -8 -17 -8q-6 0 -11 5q-6 6 1 14q10 11 20 29.5t10 42.5z" />
    <glyph glyph-name="quotesinglbase" unicode="&#x201a;" horiz-adv-x="262" 
d="M112 86q0 4 -2 7.5t-7 4.5q-7 1 -12.5 2t-11.5 5q-18 10 -18 35q0 23 12 33t32 10q26 0 36.5 -14t10.5 -40q0 -9 -1.5 -28t-6.5 -39q-11 -40 -35 -59q-10 -8 -17 -8q-6 0 -11 5q-6 6 1 14q10 11 20 29.5t10 42.5z" />
    <glyph glyph-name="quotedblleft" unicode="&#x201c;" 
d="M150 641q-3 -11 9 -11q13 0 24 -7q8 -6 12 -13.5t4 -19.5q0 -23 -11.5 -33t-31.5 -10q-23 0 -34.5 14.5t-13.5 38.5q-2 31 12 65t36 56q9 9 17 9q6 0 12 -6t-1 -14q-10 -11 -19.5 -28.5t-14.5 -40.5zM296 641q-3 -11 9 -11q13 0 24 -7q8 -6 12 -13.5t4 -19.5
q0 -23 -11.5 -33t-31.5 -10q-23 0 -34.5 14.5t-13.5 38.5q-2 31 12 65t36 56q9 9 17 9q6 0 12 -6t-1 -14q-10 -11 -19.5 -28.5t-14.5 -40.5z" />
    <glyph glyph-name="quotedblright" unicode="&#x201d;" 
d="M111 630q0 4 -2 7.5t-7 4.5q-7 1 -12.5 2t-11.5 5q-18 10 -18 35q0 23 12 33t32 10q26 0 36.5 -14t10.5 -40q0 -9 -1.5 -28t-6.5 -39q-11 -40 -35 -59q-10 -8 -17 -8q-6 0 -11 5q-6 6 1 14q10 11 20 29.5t10 42.5zM246 630q0 4 -2 7.5t-7 4.5q-7 1 -12.5 2t-11.5 5
q-18 10 -18 35q0 23 12 33t32 10q26 0 36.5 -14t10.5 -40q0 -9 -1.5 -28t-6.5 -39q-11 -40 -35 -59q-10 -8 -17 -8q-6 0 -11 5q-6 6 1 14q10 11 20 29.5t10 42.5z" />
    <glyph glyph-name="quotedblbase" unicode="&#x201e;" 
d="M111 86q0 4 -2 7.5t-7 4.5q-7 1 -12.5 2t-11.5 5q-18 10 -18 35q0 23 12 33t32 10q26 0 36.5 -14t10.5 -40q0 -9 -1.5 -28t-6.5 -39q-11 -40 -35 -59q-10 -8 -17 -8q-6 0 -11 5q-6 6 1 14q10 11 20 29.5t10 42.5zM246 86q0 4 -2 7.5t-7 4.5q-7 1 -12.5 2t-11.5 5
q-18 10 -18 35q0 23 12 33t32 10q26 0 36.5 -14t10.5 -40q0 -9 -1.5 -28t-6.5 -39q-11 -40 -35 -59q-10 -8 -17 -8q-6 0 -11 5q-6 6 1 14q10 11 20 29.5t10 42.5z" />
    <glyph glyph-name="dagger" unicode="&#x2020;" horiz-adv-x="419" 
d="M147 12q6 117 6 227.5t-3 213.5q-55 3 -85 11q-19 5 -26.5 16.5t-7.5 25.5q0 23 19 21q23 -2 47.5 -3t50.5 -2q-2 28 -3 55.5t-3 53.5q-1 15 8.5 23.5t27.5 7.5q40 -1 45 -32q3 -25 6 -52t5 -56q32 1 65 2.5t68 4.5q20 2 19 -20q-1 -16 -15 -27q-17 -14 -54 -21t-80 -9
q0 -17 0.5 -34.5t0.5 -34.5q0 -64 -2 -147.5t-13 -189.5q-5 -41 -23 -52t-35 -6q-20 5 -18 24z" />
    <glyph glyph-name="daggerdbl" unicode="&#x2021;" horiz-adv-x="419" 
d="M231 152q-2 -25 -3.5 -51.5t-4.5 -54.5q-5 -41 -23 -52t-35 -6q-20 5 -18 24q2 35 3 69.5t1 68.5q-56 3 -86 11q-19 5 -26.5 16.5t-7.5 25.5q0 23 19 21q23 -2 50 -3.5t53 -0.5q1 61 0 118.5t-3 114.5q-55 3 -85 11q-19 5 -26.5 16.5t-7.5 25.5q0 23 19 21q23 -2 47.5 -3
t50.5 -2q-2 28 -3 55.5t-3 53.5q-1 15 8.5 23.5t27.5 7.5q40 -1 45 -32q3 -25 6 -52t5 -56q32 1 65 2.5t68 4.5q20 2 19 -20q-1 -16 -15 -27q-17 -14 -54 -21t-80 -9q0 -17 0.5 -34.5t0.5 -34.5q0 -35 -0.5 -75t-2.5 -88q66 0 132 6q20 2 19 -20q-1 -9 -4.5 -18.5
t-10.5 -14.5q-14 -11 -51 -15.5t-89 -5.5z" />
    <glyph glyph-name="bullet" unicode="&#x2022;" horiz-adv-x="351" 
d="M107 303q0 29 16 49t52 20q22 0 41.5 -16t19.5 -45q0 -35 -16.5 -56t-44.5 -21q-39 0 -53.5 21.5t-14.5 47.5z" />
    <glyph glyph-name="ellipsis" unicode="&#x2026;" horiz-adv-x="810" 
d="M92 305q0 19 11.5 33t36.5 13q9 -1 17.5 -5.5t14.5 -10.5q5 -6 6.5 -14t1.5 -16q-3 -18 -12 -33t-30 -15q-26 0 -36 14.5t-10 33.5zM352 305q0 19 11.5 33t36.5 13q9 -1 17.5 -5.5t14.5 -10.5q5 -6 6.5 -14t1.5 -16q-3 -18 -12 -33t-30 -15q-26 0 -36 14.5t-10 33.5z
M612 305q0 19 11.5 33t36.5 13q9 -1 17.5 -5.5t14.5 -10.5q5 -6 6.5 -14t1.5 -16q-3 -18 -12 -33t-30 -15q-26 0 -36 14.5t-10 33.5z" />
    <glyph glyph-name="perthousand" unicode="&#x2030;" horiz-adv-x="810" 
d="M31 517q3 68 34.5 109t73.5 40q25 0 45.5 -11t33.5 -33q12 -24 17 -58.5t3 -72.5q-2 -77 -32 -122.5t-83 -45.5q-15 0 -26 4t-20 14q-27 27 -38 75t-8 101zM178 417q3 -6 6 -5.5t6 9.5t5 26.5t3 32.5q2 42 -1.5 69t-11.5 42q-9 15 -21 20.5t-27 5.5q-12 0 -15 -2t0 -11
q9 -42 23.5 -92t32.5 -95zM97 571q-3 9 -5.5 9.5t-5.5 -9.5q-3 -9 -5 -18t-3 -19l-2 -20t-1 -19q-4 -54 11.5 -92t46.5 -37q5 0 10 0.5t8 2.5q4 2 4 6t-3 13q-11 28 -26.5 77t-28.5 106zM398 605q-18 -84 -42 -163.5t-56 -152.5q-36 -81 -81 -156t-99 -122
q-9 -7 -17.5 -10.5t-14.5 -3.5q-12 0 -21 11t0 21q49 61 90.5 134.5t74.5 151.5t58 158t41 155q3 15 11.5 20t25.5 2q18 -4 25.5 -15.5t4.5 -29.5zM302 175q3 68 34.5 109t73.5 40q25 0 45.5 -11t33.5 -33q12 -24 17 -58.5t3 -72.5q-2 -77 -34 -122.5t-85 -45.5q-15 0 -26 4
t-20 14q-25 25 -35 74t-7 102zM368 229q-3 9 -5.5 9.5t-5.5 -9.5q-3 -9 -5 -18t-3 -19l-2 -20t-1 -19q-4 -54 11.5 -92t46.5 -37q5 0 10 0.5t8 2.5q4 2 4 6t-3 13q-11 28 -26.5 77t-28.5 106zM449 75q3 -6 6 -5.5t6 9.5t5 26.5t3 32.5q2 42 -1.5 69t-11.5 42q-9 15 -21 20.5
t-27 5.5q-12 0 -15 -2t0 -11q9 -42 23.5 -92t32.5 -95zM539 175q3 68 34.5 109t73.5 40q25 0 45.5 -11t33.5 -33q12 -24 17 -58.5t3 -72.5q-2 -77 -34 -122.5t-85 -45.5q-15 0 -26.5 4t-20.5 14q-25 27 -34.5 75t-6.5 101zM605 229q-3 9 -5.5 9.5t-5.5 -9.5q-3 -9 -5 -18
t-3 -19l-2 -20t-1 -19q-4 -54 11.5 -92t46.5 -37q5 0 10 0.5t8 2.5q4 2 4 6t-3 13q-11 28 -26.5 77t-28.5 106zM686 75q3 -6 6 -5.5t6 9.5t5 26.5t3 32.5q2 42 -1.5 69t-11.5 42q-9 15 -21 20.5t-27 5.5q-12 0 -15 -2t0 -11q9 -42 23.5 -92t32.5 -95z" />
    <glyph glyph-name="guilsinglleft" unicode="&#x2039;" horiz-adv-x="344" 
d="M226 187q-42 9 -85.5 36.5t-73.5 63.5q-18 22 -17 43t15 28q46 21 88 50.5t74 61.5q4 4 11 4.5t13 -6.5q19 -23 -7 -52q-20 -20 -51 -44t-63 -43q-11 -6 -11 -8t7 -8q28 -26 66.5 -48.5t77.5 -36.5q10 -4 7 -17q-5 -18 -20 -23t-31 -1z" />
    <glyph glyph-name="guilsinglright" unicode="&#x203a;" horiz-adv-x="344" 
d="M109 174q-28 -6 -41 2t-18 20q-6 16 7 21q18 6 40.5 15t44 21t41 26t31.5 29q7 11 -15 20q-35 14 -68 38t-53 49q-18 26 2 46q9 9 18 9t15 -6q16 -15 37 -30.5t44 -30t46 -26.5t43 -21q17 -8 20 -26t-19 -50q-12 -17 -33 -34t-45.5 -31.5t-50 -25.5t-46.5 -15z" />
    <glyph glyph-name="Euro" unicode="&#x20ac;" horiz-adv-x="568" 
d="M68 269q-21 2 -29 13.5t-8 24.5q0 9 6 14.5t15 5.5q9 -1 18 -1.5t18 -0.5q-1 18 -1 35t3 35q-3 0 -6 0.5t-5 0.5q-3 0 -6 0.5t-5 1.5q-21 2 -29 13.5t-8 24.5q0 9 6 14.5t15 5.5l54 -3q27 63 84.5 105t133.5 57q27 5 53.5 6t50.5 -3q24 -5 35 -14t7 -25
q-6 -18 -16.5 -22.5t-37.5 -4.5q-72 0 -131 -26t-87 -76q58 -1 116.5 1t118.5 6q10 0 15 -4t5 -14q0 -15 -9.5 -26.5t-26.5 -13.5q-56 -8 -116 -11t-120 0q-3 -16 -3 -33.5t3 -32.5q63 -2 125 -0.5t127 6.5q10 0 15 -4t5 -14q0 -15 -9.5 -26.5t-26.5 -13.5
q-51 -8 -108.5 -10.5t-112.5 -0.5q19 -41 64.5 -62.5t88.5 -21.5q27 0 54.5 3t52.5 9q18 3 30 0t12 -23q-1 -16 -8.5 -26.5t-19.5 -17.5q-23 -14 -57 -19t-63 -5q-102 0 -164.5 45.5t-85.5 123.5q-9 0 -17 1t-15 3z" />
    <glyph glyph-name="trademark" unicode="&#x2122;" horiz-adv-x="623" 
d="M518 381q-1 27 -3.5 60.5t-6.5 72.5q-1 9 -2.5 10t-5.5 -8q-12 -27 -28.5 -60t-32.5 -55q-6 -9 -14 -9t-11 10q-11 25 -25 55.5t-27 57.5q-4 8 -7 7t-3 -10q-3 -24 -4 -57t1 -69q0 -15 -6 -24t-25 -7q-4 0 -6 1.5t-3 4.5q-1 2 -1.5 5.5t-0.5 6.5q-5 48 -5.5 103.5
t4.5 124.5q0 9 3.5 15t13.5 6q13 0 23.5 -3.5t16.5 -13.5q12 -24 29.5 -61t31.5 -70q2 -6 4 -7t5 5q8 15 15.5 30.5t14.5 31.5t13.5 31.5t13.5 30.5q6 14 12 18t15 4q20 0 25.5 -9t7.5 -20q0 -8 1.5 -19.5t2.5 -25.5q2 -14 3 -30t3 -32q1 -23 2.5 -44.5t2.5 -37.5
q0 -23 -8.5 -31t-21.5 -9q-13 0 -15 4.5t-2 16.5zM172 536q3 -44 2 -81t-4 -67q-3 -20 -12 -26.5t-25 -6.5q-8 0 -11.5 4t-2.5 10q3 44 1.5 85t-5.5 83q-1 7 -1.5 11.5t-2.5 7.5q-2 2 -6 2.5t-11 1.5h-17q-4 0 -8 0.5t-9 1.5q-14 1 -22 9.5t-8 23.5q0 12 3.5 17t16.5 5
q51 1 95.5 1.5t90.5 -1.5q17 -1 22.5 -5t5.5 -17q-1 -10 -6.5 -19.5t-16.5 -10.5q-12 -2 -26.5 -2.5t-23.5 -0.5q-15 0 -18 -4t-1 -22z" />
    </font>
</defs>
</svg>
